<svg width="916" height="588" viewBox="0 0 916 588" fill="none" xmlns="http://www.w3.org/2000/svg">
<g clip-path="url(#clip0)">
<path d="M248.807 196.96C289.124 196.96 321.807 164.277 321.807 123.96C321.807 83.6432 289.124 50.96 248.807 50.96C208.49 50.96 175.807 83.6432 175.807 123.96C175.807 164.277 208.49 196.96 248.807 196.96Z" fill="#DC4F6B"/>
<path d="M636.807 425.96H40.957L255.127 119.74L338.877 0L402.627 91.14L636.807 425.96Z" fill="#A5737A"/>
<path d="M610.779 115.96L393.956 425.96H827.602L610.779 115.96L393.956 425.96H827.602L610.779 115.96Z" fill="#D19AA2"/>
<path d="M338.877 0L343.807 85.96L327.516 209.655C327.516 209.655 462.083 280.503 462.445 283.731C462.807 286.96 434.098 377.796 434.098 377.796L636.807 425.96L338.877 0Z" fill="#8F555E"/>
<path d="M610.779 115.96L646.13 199.138L708.807 324.96L745.909 343.929C745.909 343.929 743.476 373.392 743.642 377.176C743.807 380.96 827.602 425.96 827.602 425.96L610.779 115.96Z" fill="#E6E6E6"/>
<path d="M915 425.96H1C0.734784 425.96 0.480429 425.855 0.292892 425.667C0.105356 425.48 0 425.225 0 424.96C0 424.695 0.105356 424.44 0.292892 424.253C0.480429 424.065 0.734784 423.96 1 423.96H915C915.265 423.96 915.52 424.065 915.707 424.253C915.895 424.44 916 424.695 916 424.96C916 425.225 915.895 425.48 915.707 425.667C915.52 425.855 915.265 425.96 915 425.96Z" fill="#CCCCCC"/>
<path d="M202.571 366.789C245.779 366.789 280.807 331.762 280.807 288.553C280.807 245.344 245.779 210.316 202.571 210.316C159.362 210.316 124.334 245.344 124.334 288.553C124.334 331.762 159.362 366.789 202.571 366.789Z" fill="#80ECDE"/>
<path opacity="0.2" d="M144.803 236.297C137.505 253.367 136.515 272.477 142.01 290.21C147.505 307.944 159.126 323.145 174.797 333.099C190.468 343.053 209.168 347.11 227.556 344.546C245.943 341.981 262.819 332.962 275.168 319.1C270.71 329.529 264.038 338.865 255.614 346.46C247.19 354.055 237.215 359.727 226.381 363.084C215.547 366.442 204.113 367.403 192.87 365.903C181.628 364.402 170.846 360.475 161.272 354.394C151.697 348.313 143.56 340.223 137.422 330.684C131.285 321.146 127.295 310.387 125.729 299.154C124.162 287.92 125.057 276.48 128.35 265.627C131.644 254.773 137.258 244.765 144.803 236.297V236.297Z" fill="black"/>
<path d="M202.785 288.553H203.001L206.869 510.366H198.702L202.785 288.553Z" fill="#3F3D56"/>
<path d="M303.571 463.976C340.704 463.976 370.807 433.873 370.807 396.739C370.807 359.606 340.704 329.503 303.571 329.503C266.437 329.503 236.334 359.606 236.334 396.739C236.334 433.873 266.437 463.976 303.571 463.976Z" fill="#0E8A7A"/>
<path opacity="0.2" d="M253.925 351.831C247.654 366.501 246.803 382.924 251.525 398.164C256.247 413.404 266.234 426.468 279.702 435.023C293.17 443.577 309.241 447.064 325.043 444.86C340.845 442.656 355.348 434.905 365.961 422.992C362.13 431.955 356.396 439.978 349.156 446.505C341.917 453.032 333.344 457.907 324.034 460.792C314.723 463.677 304.896 464.504 295.234 463.214C285.572 461.924 276.306 458.55 268.078 453.323C259.85 448.097 252.857 441.145 247.582 432.947C242.308 424.75 238.879 415.504 237.533 405.85C236.186 396.196 236.955 386.364 239.786 377.037C242.616 367.709 247.441 359.109 253.925 351.831V351.831Z" fill="black"/>
<path d="M303.755 396.739H303.94L307.265 587.366H300.246L303.755 396.739Z" fill="#3F3D56"/>
<path d="M395.042 295.43C447.086 295.43 489.277 253.239 489.277 201.195C489.277 149.15 447.086 106.96 395.042 106.96C342.997 106.96 300.807 149.15 300.807 201.195C300.807 253.239 342.997 295.43 395.042 295.43Z" fill="#0E8A7A"/>
<path opacity="0.2" d="M464.622 138.253C473.412 158.815 474.604 181.832 467.986 203.191C461.368 224.551 447.37 242.861 428.494 254.851C409.619 266.84 387.095 271.726 364.948 268.638C342.801 265.549 322.474 254.685 307.599 237.989C312.968 250.551 321.005 261.795 331.152 270.943C341.298 280.091 353.313 286.924 366.362 290.967C379.412 295.011 393.184 296.169 406.726 294.362C420.267 292.554 433.254 287.824 444.786 280.5C456.318 273.175 466.12 263.431 473.512 251.942C480.904 240.453 485.71 227.494 487.597 213.963C489.484 200.433 488.406 186.654 484.439 173.581C480.472 160.508 473.71 148.454 464.622 138.253V138.253Z" fill="black"/>
<path d="M394.783 201.195H394.524L389.864 468.366H399.702L394.783 201.195Z" fill="#3F3D56"/>
<path d="M538.763 116.587L551.558 106.354C541.618 105.257 537.534 110.678 535.862 114.969C528.097 111.745 519.644 115.97 519.644 115.97L545.244 125.264C543.952 121.815 541.704 118.805 538.763 116.587V116.587Z" fill="#3F3D56"/>
<path d="M555.346 36.8287L568.141 26.5953C558.202 25.4987 554.117 30.9196 552.446 35.2103C544.681 31.9858 536.227 36.2116 536.227 36.2116L561.827 45.5054C560.536 42.0559 558.288 39.046 555.346 36.8287V36.8287Z" fill="#3F3D56"/>
<path d="M647.474 120.781L660.269 110.548C650.329 109.451 646.245 114.872 644.574 119.163C636.808 115.938 628.355 120.164 628.355 120.164L653.955 129.458C652.663 126.008 650.415 122.999 647.474 120.781V120.781Z" fill="#3F3D56"/>
<path d="M677.562 571.734C677.562 571.734 678.052 561.476 688.088 562.668Z" fill="#3F3D56"/>
<path d="M720.099 571.734C720.099 571.734 720.589 561.476 730.625 562.668Z" fill="#3F3D56"/>
<path d="M700.249 571.734C700.249 571.734 700.738 561.476 710.775 562.668Z" fill="#3F3D56"/>
<path d="M659.3 571.734C659.3 571.734 658.811 561.476 648.774 562.668Z" fill="#3F3D56"/>
<path d="M701.837 572.443C701.837 572.443 701.348 562.185 691.312 563.377Z" fill="#3F3D56"/>
<path d="M526.036 423.357L525.037 424.016L600.242 537.958L601.241 537.299L526.036 423.357Z" fill="#2F2E41"/>
<path d="M480.961 563.067L488.299 563.066L491.79 534.76L480.959 534.761L480.961 563.067Z" fill="#FFB8B8"/>
<path d="M479.089 560.671L493.541 560.67H493.542C495.984 560.67 498.327 561.64 500.054 563.368C501.781 565.095 502.751 567.437 502.752 569.88V570.179L479.089 570.18L479.089 560.671Z" fill="#2F2E41"/>
<path d="M432.999 556.043L439.895 558.553L452.858 533.148L442.68 529.444L432.999 556.043Z" fill="#FFB8B8"/>
<path d="M432.059 553.151L445.64 558.094L445.641 558.094C447.936 558.93 449.805 560.643 450.838 562.857C451.87 565.07 451.98 567.604 451.145 569.899L451.043 570.18L428.807 562.087L432.059 553.151Z" fill="#2F2E41"/>
<path d="M478.868 369.821L494.432 374.61L507.002 395.56L502.213 420.102L499.819 441.652V537.425C499.819 537.425 481.399 542.214 473.549 537.425L476.474 481.757L456.721 541.017L434.573 532.637L459.714 449.433C459.309 443.28 460.339 437.117 462.721 431.43C464.878 426.367 468.665 422.169 473.481 419.504V414.715L468.692 384.187L478.868 369.821Z" fill="#3F3D56"/>
<path d="M490.665 367.404C498.784 367.404 505.367 360.822 505.367 352.702C505.367 344.583 498.784 338.001 490.665 338.001C482.545 338.001 475.963 344.583 475.963 352.702C475.963 360.822 482.545 367.404 490.665 367.404Z" fill="#FFB8B8"/>
<path d="M504.857 348.869C502.867 348.472 500.803 348.706 498.952 349.539C497.102 350.372 495.557 351.761 494.534 353.514C494.029 351.653 491.028 351.749 489.918 353.325C488.807 354.901 489.053 357.03 489.413 358.923C489.773 360.817 490.181 362.875 489.307 364.593C488.84 365.395 488.169 366.06 487.363 366.518C486.556 366.977 485.642 367.214 484.714 367.205C482.852 367.16 481.043 366.584 479.498 365.545C476.619 363.774 474.318 361.205 472.873 358.149C471.428 355.094 470.902 351.685 471.36 348.337C471.817 344.988 473.237 341.845 475.448 339.289C477.659 336.733 480.565 334.875 483.813 333.94C487.446 332.894 491.304 333.056 495.079 333.266C498.155 333.271 501.208 333.805 504.104 334.846C506.931 336.042 509.444 338.422 509.966 341.448C510.487 344.473 508.716 349.891 505.658 350.157" fill="#2F2E41"/>
<path d="M481.684 336.006C483.017 335.785 484.311 335.37 485.525 334.777C486.125 334.481 486.653 334.057 487.071 333.534C487.489 333.012 487.787 332.404 487.943 331.753C488.066 331.105 487.944 330.433 487.6 329.87C487.256 329.306 486.715 328.89 486.082 328.703C485.112 328.623 484.138 328.784 483.246 329.172C482.802 329.362 482.317 329.438 481.836 329.391C481.356 329.344 480.895 329.178 480.495 328.906C479.704 328.165 479.894 326.824 479.218 325.981C478.855 325.616 478.389 325.37 477.882 325.276C477.376 325.182 476.852 325.245 476.383 325.456C475.444 325.893 474.606 326.52 473.922 327.296L470.299 330.885C469.594 331.583 468.831 332.45 469.011 333.402C469.176 333.892 469.516 334.304 469.965 334.56C470.414 334.816 470.941 334.898 471.447 334.791C472.472 334.555 473.422 334.07 474.216 333.38C473.08 334.088 472.164 335.1 471.574 336.302C471.293 336.894 471.18 337.552 471.249 338.204C471.317 338.856 471.565 339.477 471.964 339.997C473.258 341.488 475.711 341.284 477.594 340.54C480.083 339.555 482.238 337.878 483.804 335.707" fill="#2F2E41"/>
<path d="M481.714 331.655C478.397 330.895 475.119 329.808 472.814 327.996C470.509 326.185 469.361 323.526 470.67 321.292C470.009 322.425 469.69 323.726 469.751 325.036C469.811 326.347 470.249 327.612 471.011 328.679C472.999 331.239 475.854 332.982 479.039 333.58C479.711 333.788 480.431 333.786 481.102 333.574C481.699 333.308 481.719 332.525 481.022 332.424" fill="#2F2E41"/>
<path d="M522.917 418.2C522.63 418.365 522.356 418.552 522.099 418.76L493.76 409.921L492.166 402.887L481.237 403.905L482.848 416.631C482.978 417.659 483.438 418.617 484.159 419.361C484.88 420.105 485.823 420.596 486.847 420.758L520.201 426.062C520.687 427.242 521.52 428.246 522.591 428.94C523.661 429.635 524.918 429.987 526.193 429.95C527.469 429.913 528.703 429.488 529.731 428.733C530.759 427.978 531.533 426.927 531.95 425.721C532.367 424.515 532.406 423.211 532.064 421.982C531.721 420.753 531.012 419.657 530.032 418.84C529.051 418.024 527.845 417.525 526.574 417.411C525.304 417.297 524.028 417.572 522.917 418.2V418.2Z" fill="#FFB8B8"/>
<path d="M480.065 379.997C480.065 379.997 482.626 372.681 490.324 373.346C498.023 374.011 493.833 403.342 493.833 403.342L478.868 423.694L480.065 379.997Z" fill="#3F3D56"/>
<path d="M565.577 562.388L560.224 550.934L568.497 547.069L573.849 558.523V558.523C574.36 559.62 574.415 560.874 574.001 562.011C573.587 563.148 572.74 564.075 571.643 564.587C570.547 565.099 569.293 565.155 568.155 564.743C567.017 564.331 566.09 563.484 565.577 562.388V562.388Z" fill="#8F555E"/>
<path d="M547.16 537.878C550.263 537.878 552.779 535.363 552.779 532.259C552.779 529.156 550.263 526.64 547.16 526.64C544.057 526.64 541.541 529.156 541.541 532.259C541.541 535.363 544.057 537.878 547.16 537.878Z" fill="#8F555E"/>
<path d="M590.193 564.677L584.84 553.223L593.113 549.357L598.465 560.811C598.977 561.908 599.033 563.164 598.62 564.302C598.207 565.44 597.359 566.367 596.262 566.88C595.165 567.393 593.909 567.449 592.771 567.036C591.633 566.622 590.705 565.774 590.193 564.677V564.677Z" fill="#8F555E"/>
<path d="M547.175 543.629C547.471 540.478 549.006 537.572 551.442 535.551C553.878 533.529 557.017 532.556 560.169 532.846L597.805 536.345C599.137 536.47 600.365 537.119 601.22 538.149C602.074 539.178 602.485 540.505 602.363 541.837L601.965 546.12C601.604 549.956 599.736 553.492 596.771 555.953C593.806 558.413 589.986 559.597 586.149 559.245L557.959 556.624C554.807 556.327 551.901 554.793 549.88 552.357C547.858 549.92 546.885 546.782 547.175 543.629Z" fill="#3F3D56"/>
<path d="M554.152 562.739L555.323 550.151L564.414 550.996L563.244 563.584C563.131 564.79 562.545 565.901 561.613 566.673C560.681 567.446 559.481 567.817 558.276 567.705C557.071 567.593 555.959 567.007 555.186 566.076C554.413 565.145 554.041 563.944 554.152 562.739V562.739Z" fill="#3F3D56"/>
<path d="M580.534 565.192L581.704 552.604L590.796 553.449L589.625 566.037C589.513 567.242 588.926 568.353 587.994 569.126C587.063 569.899 585.862 570.27 584.657 570.158C583.452 570.046 582.34 569.46 581.567 568.529C580.794 567.597 580.422 566.397 580.534 565.192V565.192Z" fill="#3F3D56"/>
<path d="M622.154 518.826C622.667 518.293 623.28 517.867 623.958 517.572C624.635 517.277 625.365 517.118 626.104 517.106C626.843 517.093 627.577 517.226 628.265 517.497C628.952 517.769 629.579 518.173 630.11 518.687C630.641 519.202 631.066 519.816 631.359 520.494C631.652 521.173 631.809 521.902 631.82 522.641C631.831 523.38 631.696 524.114 631.422 524.801C631.149 525.488 630.743 526.114 630.227 526.644L619.966 537.239L611.893 529.421L622.154 518.826Z" fill="#8F555E"/>
<path d="M597.904 539.323L606.125 530.835C608.123 528.776 610.856 527.594 613.725 527.548C616.594 527.502 619.364 528.596 621.427 530.589L623.557 532.652C626.012 535.035 627.421 538.294 627.476 541.714C627.531 545.135 626.227 548.437 623.85 550.897L617.077 557.891C616.329 558.662 615.305 559.104 614.231 559.121C613.157 559.139 612.12 558.729 611.348 557.983L597.996 545.052C597.225 544.304 596.783 543.281 596.765 542.207C596.748 541.133 597.158 540.096 597.904 539.323V539.323Z" fill="#3F3D56"/>
<path d="M623.376 517.564C623.729 517.2 624.15 516.909 624.616 516.707C625.081 516.505 625.582 516.397 626.089 516.389C626.596 516.381 627.1 516.473 627.572 516.66C628.044 516.846 628.474 517.124 628.838 517.477C629.203 517.83 629.494 518.251 629.696 518.716C629.897 519.182 630.005 519.683 630.013 520.19C630.022 520.697 629.93 521.201 629.743 521.673C629.557 522.144 629.279 522.575 628.926 522.939L617.443 534.796L611.893 529.421L623.376 517.564Z" fill="#3F3D56"/>
<path d="M606.641 537.612L621.273 551.782C622.34 552.82 622.951 554.238 622.973 555.726C622.995 557.214 622.426 558.649 621.391 559.718C620.356 560.787 618.939 561.402 617.452 561.427C615.964 561.453 614.527 560.888 613.456 559.855L598.823 545.685L606.641 537.612Z" fill="#3F3D56"/>
<path d="M622.039 560.205C622.95 559.265 623.265 558.092 622.742 557.586C622.22 557.08 621.058 557.432 620.147 558.373C619.237 559.313 618.922 560.486 619.444 560.992C619.967 561.498 621.129 561.146 622.039 560.205Z" fill="#0E8A7A"/>
<path d="M599.483 551.492H602.476V534.732H599.483V551.492Z" fill="#2F2E41"/>
<path d="M773.406 480.41H764.82L760.736 447.293H773.408L773.406 480.41Z" fill="#FFB8B8"/>
<path d="M775.596 488.733L747.911 488.732V488.382C747.911 485.524 749.047 482.783 751.067 480.763C753.088 478.742 755.829 477.607 758.687 477.607H758.687L775.596 477.607L775.596 488.733Z" fill="#2F2E41"/>
<path d="M863.41 393.957L865.068 402.381L833.364 412.786L830.916 400.353L863.41 393.957Z" fill="#FFB8B8"/>
<path d="M871.153 390.2L876.5 417.364L876.156 417.431C873.352 417.983 870.444 417.399 868.071 415.806C865.698 414.214 864.054 411.744 863.502 408.94L863.502 408.94L860.236 392.349L871.153 390.2Z" fill="#2F2E41"/>
<path d="M764.225 378.715C764.225 378.715 788.951 404.092 798.712 415.805C808.472 427.517 814.328 419.058 814.328 419.058L839.281 412.373L853.37 407.996C853.37 407.996 850.767 395.633 850.116 396.284C849.466 396.934 811.268 400.467 811.268 400.467C811.268 400.467 801.315 388.475 800.664 380.667C800.013 372.859 783.095 363.749 783.095 363.749L764.225 378.715Z" fill="#2F2E41"/>
<path d="M768.78 378.064C768.78 378.064 763.574 400.188 756.084 406.548C748.594 412.908 752.513 418.407 752.513 418.407L762.924 463.305L775.938 462.654C775.938 462.654 771.299 426.032 770.648 421.477C769.998 416.922 786.349 395.633 786.349 395.633L768.78 378.064Z" fill="#2F2E41"/>
<path d="M725.921 346.868C732.031 346.868 736.983 341.916 736.983 335.806C736.983 329.697 732.031 324.745 725.921 324.745C719.812 324.745 714.86 329.697 714.86 335.806C714.86 341.916 719.812 346.868 725.921 346.868Z" fill="#FFB8B8"/>
<path d="M749.91 367.653C751.862 367.653 757.718 378.715 757.718 378.715C757.718 378.715 770.732 382.619 772.684 379.366C774.636 376.112 779.842 370.907 784.396 368.955C788.951 367.003 786.999 365.051 784.396 363.098C781.794 361.146 773.335 355.941 765.526 346.831C757.718 337.721 745.355 335.769 744.054 335.769C742.752 335.769 739.499 348.783 739.499 348.783C737.547 352.687 747.958 367.653 749.91 367.653Z" fill="#0E658A"/>
<path d="M721.432 330.659C723.693 331.711 726.324 337.227 729.498 334.827C729.766 334.577 730.051 334.346 730.35 334.136C730.801 333.961 731.297 333.939 731.761 334.072C732.226 334.204 732.635 334.485 732.926 334.872C733.57 335.59 733.949 336.511 734.568 337.253C734.843 337.65 735.234 337.953 735.688 338.119C736.143 338.285 736.637 338.306 737.104 338.18L738.62 334.888C739.015 334.112 739.317 333.292 739.52 332.445C739.675 331.307 739.568 330.149 739.207 329.059C738.845 327.97 738.239 326.977 737.435 326.158C735.814 324.534 733.953 323.171 731.916 322.116C730.57 321.23 729.09 320.567 727.533 320.153C726.752 319.953 725.934 319.943 725.148 320.123C724.362 320.303 723.631 320.668 723.014 321.188C722.607 321.677 722.162 322.134 721.686 322.556C720.824 322.971 719.914 323.279 718.977 323.472C717.231 324.141 716.211 325.919 715.33 327.569C714.872 328.289 714.588 329.107 714.501 329.957C714.418 333.824 719.41 329.717 721.432 330.659Z" fill="#2F2E41"/>
<path d="M745.682 489.272C763.673 488.63 792.207 489.266 792.493 489.272L792.892 489.281L793.081 488.93C793.124 488.85 797.489 480.907 803.442 482.102L803.698 480.826C797.502 479.585 793.114 486.306 792.135 487.963C788.644 487.888 762.519 487.368 745.635 487.972C728.24 488.594 725.464 482.577 725.437 482.516L724.232 483.007C724.34 483.277 726.951 489.318 743.167 489.318C743.971 489.318 744.809 489.303 745.682 489.272Z" fill="#2F2E41"/>
<path d="M743.247 490.574H742.864C741.532 490.574 740.453 491.653 740.453 492.985V493.368C740.453 494.7 741.532 495.779 742.864 495.779H743.247C744.578 495.779 745.658 494.7 745.658 493.368V492.985C745.658 491.653 744.578 490.574 743.247 490.574Z" fill="#2F2E41"/>
<path d="M787.762 490.574H788.144C788.784 490.574 789.397 490.828 789.85 491.28C790.302 491.732 790.556 492.346 790.556 492.985V493.368C790.556 494.007 790.302 494.621 789.85 495.073C789.397 495.525 788.784 495.779 788.144 495.779H787.762C787.122 495.779 786.509 495.525 786.057 495.073C785.604 494.621 785.35 494.007 785.35 493.368V492.985C785.35 492.346 785.604 491.732 786.057 491.28C786.509 490.828 787.122 490.574 787.762 490.574V490.574Z" fill="#2F2E41"/>
<path d="M745.824 391.3C746.043 391.225 746.268 391.167 746.497 391.127L754.897 372.11L751.923 368.028L757.497 362.734L763.464 369.449C763.946 369.991 764.24 370.676 764.3 371.399C764.36 372.122 764.184 372.845 763.798 373.46L751.221 393.491C751.619 394.291 751.765 395.194 751.638 396.078C751.51 396.963 751.117 397.788 750.51 398.443C749.902 399.099 749.11 399.554 748.238 399.748C747.365 399.942 746.455 399.866 745.627 399.53C744.799 399.193 744.093 398.613 743.602 397.866C743.112 397.119 742.861 396.24 742.883 395.347C742.904 394.453 743.197 393.588 743.722 392.865C744.248 392.142 744.981 391.596 745.824 391.3V391.3Z" fill="#FFB8B8"/>
<path d="M764.225 363.749C764.225 364.4 756.417 373.509 754.206 372.639C751.995 371.768 751.211 368.955 747.878 366.05C744.544 363.146 741.451 347.482 741.451 347.482C741.451 347.482 764.225 363.098 764.225 363.749Z" fill="#0E658A"/>
</g>
<defs>
<clipPath id="clip0">
<rect width="916" height="587.366" fill="white"/>
</clipPath>
</defs>
</svg>
