<?xml version="1.0" ?><svg viewBox="0 0 60 60" xmlns="http://www.w3.org/2000/svg"><title/><g id="text"><text font-family="MyriadPro-Regular, Myriad Pro" font-size="9" transform="translate(2.50439 -49.60986)"><tspan letter-spacing="-0.03299em"/><tspan x="7.31689" y="0"/><tspan letter-spacing="-0.00602em" x="26.36035" y="0"/><tspan x="30.54492" y="0"/><tspan letter-spacing="-0.03098em" x="36.0166" y="0"/><tspan x="40.12061" y="0"/><tspan letter-spacing="-0.00998em" x="45.06152" y="0"/><tspan x="47.91455" y="0"/><tspan letter-spacing="-0.00298em" x="14.45801" y="10.7998"/><tspan x="19.93896" y="10.7998"/></text></g><g id="colour"><path d="M38.95325,16.00621l-.0206-.01015c-2.90252,4.75522-7.01947,4.76537-9.97337,4.75522h-.1132a10.79427,10.79427,0,0,0-3.98314,1.1761c-1.56446.6793-3.19061,1.389-4.33317.92269a2.76031,2.76031,0,0,1-1.39962-1.56146,7.87047,7.87047,0,0,0,2.87149-1.70336.48493.48493,0,0,0,0-.70975.5027.5027,0,0,0-.72042,0A7.49916,7.49916,0,0,1,16.93773,20.731c-.03078-.17235-.06169-.33461-.10277-.4968a5.57688,5.57688,0,0,1-.09272-2.35227,2.21059,2.21059,0,0,1,1.14244-1.754c2.55261-1.06459,4.19924-3.03157,5.93872-5.12022,2.285-2.74771,4.66247-5.57649,9.39694-6.36736L32.52052,5.786a.51368.51368,0,0,0,.17489.6996.52113.52113,0,0,0,.71011-.17235L35.76252,2.43l.0103.01015.80284,4.70448a.48092.48092,0,0,0,.07212.20279A12.96783,12.96783,0,0,1,38.95325,16.00621Z" fill="#3a3a3a"/><path d="M33.22034,4.64026c-.02454.00409-.0448.0119-.06934.01611l.01306.07611Z" fill="#3a3a3a"/><path d="M36.64771,7.34741a.48129.48129,0,0,1-.072-.20282l-.80286-4.70447L35.76245,2.43l-2.335,3.84692.14819.86768a.48129.48129,0,0,0,.072.20282,12.96725,12.96725,0,0,1,2.30554,8.65881l-.02063-.01019c-2.90247,4.75525-8.36279,4.75525-7.08655,4.75525h.11316c2.954.01013,7.07092,0,9.97339-4.75525l.02063.01019A12.96725,12.96725,0,0,0,36.64771,7.34741Z" fill="#2d2d2d"/><path d="M43.53664,55H16.46336c-1.10943-2.54449-.08542-3.1111,1.57873-4.05558,1.62144-.9,3.80814-2.13331,3.04013-5.94442H38.91778c-.768,3.8111,1.41869,5.04442,3.04013,5.94442C43.62206,51.8889,44.64607,52.45551,43.53664,55Z" fill="#2d2d2d"/><path d="M41.37052,43.75977A5.71075,5.71075,0,0,1,39.76313,45H20.92161c-2.63991-1.9865-3.99183-3.89942-4.14075-5.84384-.24481-3.20569,2.82079-6.2748,6.06753-9.52251,2.73581-2.73277,5.5566-5.5601,6.78079-8.80781,2.789,0,6.72751-.1156,9.81468-3.82584-.26612,1.55553-.68142,3.12159-1.10711,4.71921-1.55411,5.88592-3.1615,11.982,2.91669,18.53A2.5909,2.5909,0,0,1,41.37052,43.75977Z" fill="#3a3a3a"/><path d="M41.25342,40.24921c-6.07812-6.548-4.4707-12.6441-2.91675-18.53.02905-.10913.05493-.21564.08374-.32446l.00012-.00006.00684-.02661c.188-.70728.37268-1.41083.54041-2.10822.18286-.75732.3479-1.51038.47607-2.25983-.187.22473-.37744.43512-.57019.63428-.0791.08167-.16028.15369-.24011.23114-.11389.11041-.22717.22321-.34253.3255-.10583.09363-.21338.17786-.32031.26489-.09033.07355-.17993.15009-.27087.21912-.12634.09558-.254.1828-.38159.27008-.07166.04913-.14294.10077-.215.14734-.14551.09387-.29211.1803-.43884.26422-.05286.03033-.10559.06244-.15857.09149-.16431.08984-.32922.173-.49438.25146-.03406.01617-.06787.03314-.10181.04889q-.27228.12552-.54541.23224l-.04761.01886q-.29462.11343-.58911.20752a16.48638,16.48638,0,0,1-5.09839.61877,11.328,11.328,0,0,1-2.38409,3.501A23.78877,23.78877,0,0,0,34,23.5c-1.23608,5.14679-2.00708,11.08209,3.25342,16.74921a2.59113,2.59113,0,0,1,.11719,3.51056A5.71294,5.71294,0,0,1,35.76318,45h4a5.71294,5.71294,0,0,0,1.60742-1.24023A2.59113,2.59113,0,0,0,41.25342,40.24921Z" fill="#2d2d2d"/><rect fill="#2d2d2d" height="4" width="30" x="15" y="55"/><path d="M43.6392,38.60453a2.12113,2.12113,0,0,1-.17029,2.27744A2.39069,2.39069,0,0,1,41.87974,42h-.04545A3.57884,3.57884,0,0,0,40.756,39.72256c-6.06153-6.02485-4.50631-11.501-2.84911-17.28779,1.487-5.18634,3.01927-10.54865-1.15782-16.34573L36,2a12.90013,12.90013,0,0,1,5.40309,4.57555c3.98421,5.44514,2.57656,10.48654,1.07829,15.81783C41.01705,27.63147,39.50728,33.04553,43.6392,38.60453Z" fill="#3a3a3a"/></g><g data-name="Layer 1" id="Layer_1"><path d="M45,54.00036h-.5481c.71265-2.71387-1.19922-3.75043-2.531-4.4668-1.51953-.81738-2.6377-1.41895-2.0625-3.8623A6.86782,6.86782,0,0,0,41.501,44.30993a3.8281,3.8281,0,0,0,.76245-1.3338,3.64426,3.64426,0,0,0,2.41626-1.76288,3.69326,3.69326,0,0,0,.21484-3.66016,1.11983,1.11983,0,0,0-.06641-.11426c-3.30176-4.86816-2.10645-9.5498-.8418-14.50684,1.33887-5.24609,2.72266-10.6709-1.16211-16.498A13.02252,13.02252,0,0,0,37.0719,1.35009L36.98633.83629A.99994.99994,0,0,0,35.14258.48571L33.60571,3.04723C28.04907,3.76549,25.34448,7.03978,22.96,9.93981c-1.56934,1.9082-3.05176,3.71-5.19629,4.62012a3.57429,3.57429,0,0,0-2.00781,2.9082,6.92458,6.92458,0,0,0,.11035,2.84766,6.15853,6.15853,0,0,1,.13867.78027A.9992.9992,0,0,0,17,22.00036a7.49183,7.49183,0,0,0,1.31372-.13055,4.07562,4.07562,0,0,0,2.03882,2.09442,3.62,3.62,0,0,0,1.37891.26074,10.57714,10.57714,0,0,0,4.00879-1.19141c.51147-.22577,1.02808-.44855,1.52783-.63354a32.44612,32.44612,0,0,1-5.356,6.42651c-3.2959,3.34082-6.4082,6.49512-6.13086,10.22363.16895,2.2666,1.58887,4.4082,4.34082,6.53809.62012,2.5127-.50684,3.11914-2.043,3.94531-1.33179.71637-3.24365,1.75293-2.531,4.4668H15a.99942.99942,0,0,0-1,1v4a.99942.99942,0,0,0,1,1H45a.99942.99942,0,0,0,1-1v-4A.99942.99942,0,0,0,45,54.00036ZM41.168,7.555c3.38281,5.07422,2.167,9.83887.87988,14.88184-1.31348,5.14941-2.67187,10.47168,1.083,16.0625a1.70291,1.70291,0,0,1-.11816,1.60547,2.216,2.216,0,0,1-.65747.71863,4.13325,4.13325,0,0,0-.98022-1.86121c-5.15527-5.623-3.8125-10.77832-2.38965-16.23633,1.3252-5.08984,2.69629-10.35156-1.03418-16.09863L37.47656,3.7788A12.25323,12.25323,0,0,1,41.168,7.555ZM24.93262,21.20348c-1.42871.62988-2.9043,1.28516-3.8252.9082a1.87252,1.87252,0,0,1-.848-.82068A8.03,8.03,0,0,0,22.707,19.70739.99989.99989,0,0,0,21.293,18.29332a6.64511,6.64511,0,0,1-3.46289,1.64258l-.01172-.05664a5.02387,5.02387,0,0,1-.082-2.1377,1.668,1.668,0,0,1,.80859-1.33984c2.59668-1.10254,4.30664-3.18164,5.96-5.19141C26.573,8.69463,28.54675,6.30309,32.229,5.3416l-.08643.1441A1,1,0,1,0,33.85742,6.515L35.46,3.84411l.55371,3.32031a1.01174,1.01174,0,0,0,.1543.39063,12.509,12.509,0,0,1,2.15942,8.06152c-2.66846,4.38184-6.33728,4.39154-9.217,4.38379H29A10.66492,10.66492,0,0,0,24.93262,21.20348ZM17.77539,38.90172c-.21-2.82227,2.59277-5.66309,5.55957-8.66992,2.51819-2.55182,5.0979-5.19061,6.34229-8.23865,2.34985-.03479,5.39355-.21149,8.06592-2.55988-.208.92255-.44922,1.85022-.69336,2.78778-1.49414,5.73633-3.04,11.668,2.85156,18.09277a1.99338,1.99338,0,0,1,.10156,2.66992,4.806,4.806,0,0,1-1.28247,1.0166h-17.373C19.07666,42.24053,17.89966,40.57067,17.77539,38.90172Zm1.252,12.39258c1.48376-.79773,3.63794-1.968,3.199-5.29395H37.77368c-.439,3.32593,1.71521,4.49622,3.199,5.29395,1.42871.76892,2.03833,1.116,1.38074,2.70605H17.64661C16.989,52.41027,17.59863,52.06322,19.02734,51.2943ZM44,58.00036H16v-2H44Z"/><path d="M30,11.45965v.54071a1,1,0,1,0,2,0v-.36823l.01074.003A7.1389,7.1389,0,0,0,34,12.00036a1,1,0,0,0,0-2,5.59559,5.59559,0,0,1-1.43945-.28809c-1.416-.40527-3.55859-1.01758-5.39258,1.7334A1,1,0,1,0,28.832,12.555,2.65619,2.65619,0,0,1,30,11.45965Z"/></g></svg>