<?xml version="1.0" ?><svg enable-background="new 0 0 24 24" id="Layer_1" version="1.1" viewBox="0 0 24 24" xml:space="preserve" xmlns="http://www.w3.org/2000/svg" xmlns:xlink="http://www.w3.org/1999/xlink"><g><path d="M24,10.5C24,3.0849609,12.4897461,3,12,3S0,3.0849609,0,10.5   c0,0.1275024,0.026123,2.9844971,1.934082,4.2453003c-0.2443237,1.0366821-0.1375732,2.1117554,0.3525391,3.0720825   c0.5576172,1.0927734,1.5117188,1.8984375,2.6870117,2.2685547C6.8969727,20.6923828,9.2607422,21,12,21   s5.1030273-0.3076172,7.0263672-0.9140625c1.175293-0.3701172,2.1293945-1.1757813,2.6870117-2.2685547   c0.4901123-0.9603271,0.5969849-2.0354004,0.3526001-3.0720825C23.973938,13.484436,24,10.6275024,24,10.5z M12,7   c3.0327148,0,5.5,2.2431641,5.5,5c0,1.0020752-0.3502808,1.9581909-0.953125,2.7736816C15.2200317,14.9048462,13.6790161,15,12,15   c-1.6856689,0-3.2330322-0.0962524-4.5648193-0.2285767C6.8364868,13.9578247,6.5,12.9989624,6.5,12   C6.5,9.2431641,8.9672852,7,12,7z M20.8227539,17.3632813c-0.4345703,0.8515625-1.1796875,1.4804688-2.097168,1.7695313   C16.8999023,19.7080078,14.637207,20,12,20s-4.8999023-0.2919922-6.7255859-0.8671875   c-0.9174805-0.2890625-1.6625977-0.9179688-2.097168-1.7695313c-0.3618164-0.7089844-0.4707031-1.5-0.3183594-2.2685547   C4.0859375,15.3583984,7.534668,16,12,16s7.9140625-0.6416016,9.1411133-0.9052734   C21.293457,15.8632813,21.1845703,16.6542969,20.8227539,17.3632813z" fill="#303C42"/><path d="M9.3789063,13.9853516c0.2661133,0.0634766,0.5385742-0.0957031,0.605957-0.3642578l0.7075195-2.8291016   l0.8789063,1.4648438c0.1806641,0.3027344,0.6767578,0.3027344,0.8574219,0l0.8789063-1.4648438l0.7075195,2.8291016   C14.0717773,13.8486328,14.2753906,14,14.4995117,14c0.0400391,0,0.0810547-0.0048828,0.121582-0.0146484   c0.2680664-0.0673828,0.4311523-0.3388672,0.3637695-0.6064453l-1-4c-0.0488281-0.1962891-0.2114258-0.34375-0.4111328-0.3730469   c-0.2011719-0.0292969-0.3979492,0.0634766-0.5024414,0.2373047L12,11.0283203l-1.0712891-1.7851563   c-0.1040039-0.1738281-0.2998047-0.2666016-0.5024414-0.2373047c-0.199707,0.0292969-0.3623047,0.1767578-0.4111328,0.3730469l-1,4   C8.9477539,13.6464844,9.1108398,13.9179688,9.3789063,13.9853516z" fill="#303C42"/></g><g/><g/><g/><g/><g/><g/><g/><g/><g/><g/><g/><g/><g/><g/><g/></svg>