<?xml version="1.0" ?><svg viewBox="0 0 32 32" xmlns="http://www.w3.org/2000/svg"><defs><style>.cls-1{fill:#f2d8c2;}.cls-2{fill:#568c78;}</style></defs><title/><g data-name="Layer 12" id="Layer_12"><path class="cls-1" d="M27.79,8.42,20.61,2.24A1,1,0,0,0,20,2H4.86a1,1,0,0,0-1,1V13.82a1,1,0,0,0,1,1h1v2.12L4.8,17a1,1,0,0,0-.94,1V29a1,1,0,0,0,1,1H27.14a1,1,0,0,0,1-1V9.18A1,1,0,0,0,27.79,8.42Z"/><path class="cls-2" d="M8,11.06H8a1,1,0,0,1-1-1c0-1.35,0-3,0-3.25a1,1,0,0,1,.82-1.14A1,1,0,0,1,9,6.38a20.26,20.26,0,0,1,0,3.7A1,1,0,0,1,8,11.06Z"/><path class="cls-2" d="M11,11.06h0a1,1,0,0,1-1-1c0-1.35,0-3,0-3.26a1,1,0,0,1,.81-1.14A1,1,0,0,1,12,6.37a21.43,21.43,0,0,1,.07,3.7A1,1,0,0,1,11,11.06Z"/><path class="cls-2" d="M14.06,11.06h0a1,1,0,0,1-1-1c0-1.35,0-3,0-3.26a1,1,0,0,1,.8-1.14A1,1,0,0,1,15,6.37a21.43,21.43,0,0,1,.07,3.7A1,1,0,0,1,14.06,11.06Z"/><path class="cls-2" d="M17,11.06h0a1,1,0,0,1-1-1c0-1.35,0-3,0-3.26a1,1,0,0,1,.8-1.14,1,1,0,0,1,1.15.72,21.71,21.71,0,0,1,.08,3.7A1,1,0,0,1,17,11.06Z"/><path class="cls-2" d="M20.09,11.06h0a1,1,0,0,1-1-1c0-1.35,0-3,0-3.26a1,1,0,0,1,.8-1.14A1,1,0,0,1,21,6.37a23.23,23.23,0,0,1,.07,3.7A1,1,0,0,1,20.09,11.06Z"/><path class="cls-2" d="M22.88,11h0a1,1,0,0,1-1-1c0-.52,0-1.18,0-1.4a1,1,0,0,1,1.87-.68c.09.19.19.39.12,2.16A1,1,0,0,1,22.88,11Z"/></g></svg>