<?xml version="1.0" ?><svg data-name="Layer 1" id="Layer_1" viewBox="0 0 512 512" xmlns="http://www.w3.org/2000/svg"><defs><style>.cls-1{fill:none;stroke:#083b43;stroke-linecap:round;stroke-linejoin:round;stroke-width:20px;}.cls-2{fill:#083b43;}</style></defs><title/><path class="cls-1" d="M169.7,344.23a5.6,5.6,0,0,0,8.13,5,46.82,46.82,0,0,1,49.4,5.08h0a46.84,46.84,0,0,0,57.54,0h0a46.82,46.82,0,0,1,49.4-5.08,5.6,5.6,0,0,0,8.13-5V234.13A86.29,86.29,0,0,0,256,147.84h0a86.29,86.29,0,0,0-86.3,86.29Z"/><circle class="cls-2" cx="218.9" cy="229.79" r="19.63"/><circle class="cls-2" cx="293.1" cy="229.79" r="19.63"/></svg>