<svg width="444" height="66" viewBox="0 0 444 66" fill="none" xmlns="http://www.w3.org/2000/svg">
<path fill-rule="evenodd" clip-rule="evenodd" d="M0 33C0 14.85 13.95 0 31 0C48.205 0 62 14.85 62 33C62 51.15 48.05 66 31 66C13.95 66 0 51.15 0 33ZM42.625 48.345C43.5576 49.005 44.6426 48.6722 45.2626 47.685C45.7224 46.6922 45.57 45.375 44.485 44.88C36.425 39.6 26.195 38.4422 14.415 41.25C13.485 41.58 12.71 42.5672 13.02 43.725C13.33 44.715 14.2626 45.5427 15.3424 45.2072C26.195 42.5672 35.34 43.56 42.625 48.345ZM45.7224 39.435C46.81 40.26 48.205 39.765 48.9826 38.61C49.755 37.455 49.2926 35.8078 48.36 35.31C38.75 29.0427 24.8 27.225 13.485 30.8522C12.245 31.1822 11.625 32.67 11.935 33.99C12.245 35.31 13.6426 35.97 14.88 35.64C24.645 32.34 37.355 33.99 45.7224 39.435ZM13.33 25.5777C22.785 22.44 39.37 23.1 49.2926 29.37C50.685 30.1923 52.5476 29.7028 53.32 28.545C54.095 27.06 53.63 25.08 52.2376 24.255C40.765 16.9922 22.63 16.3323 11.625 19.7972C10.23 20.295 9.3 21.9422 9.765 23.595C10.23 25.08 11.78 26.07 13.33 25.5777ZM86.0859 28.9766C87.0391 29.1719 88.4961 29.2695 90.457 29.2695L91.6055 29.2109L101.883 44H108.844L108.75 42.125H106.688C106.32 42.125 105.992 42.0469 105.703 41.8906C105.414 41.7344 105.051 41.3828 104.613 40.8359L95.4023 28.5898C97.3555 28.082 98.9023 27.2852 100.043 26.1992C100.559 25.707 100.984 25.168 101.32 24.582C101.664 23.9883 101.906 23.3984 102.047 22.8125C102.195 22.2266 102.27 21.4766 102.27 20.5625C102.27 19.6484 101.973 18.6055 101.379 17.4336C100.793 16.2539 99.9414 15.2148 98.8242 14.3164C97.7148 13.4102 96.4453 12.7969 95.0156 12.4766C93.5938 12.1484 91.6094 11.9844 89.0625 11.9844H78.0234L77.9766 13.9062H79.3242C80.1133 13.9062 80.7109 13.9531 81.1172 14.0469C81.8438 14.2109 82.207 14.7383 82.207 15.6289V40.7305C82.207 41.2227 82.1719 41.5391 82.1016 41.6797C82.0469 41.8125 81.9531 41.9219 81.8203 42.0078C81.6875 42.0859 81.1094 42.125 80.0859 42.125H78.9844V44H91.7578L91.8516 42.125H89.4023C87.8633 42.125 86.9062 42.0508 86.5312 41.9023C86.2344 41.7852 86.0859 41.3945 86.0859 40.7305V28.9766ZM89.168 27.875C87.4961 27.875 86.4688 27.7148 86.0859 27.3945V16.1094C86.0859 15.125 86.207 14.4844 86.4492 14.1875C86.6055 14 86.9648 13.9062 87.5273 13.9062C90.7305 13.9062 93.207 14.6406 94.957 16.1094C96.6602 17.5391 97.5117 19.4102 97.5117 21.7227C97.5117 23.8242 96.8477 25.375 95.5195 26.375C94.1914 27.375 92.0742 27.875 89.168 27.875ZM113.977 33.8281L114.023 33.1484L126.07 31.707C126.211 31.707 126.371 31.6445 126.551 31.5195C126.738 31.3945 126.832 31.2188 126.832 30.9922C126.832 30.1641 126.395 29.2031 125.52 28.1094C123.785 25.9375 121.566 24.8516 118.863 24.8516C116.449 24.8516 114.438 25.7969 112.828 27.6875C111.188 29.6172 110.367 32.125 110.367 35.2109C110.367 37.9844 111.195 40.2734 112.852 42.0781C114.422 43.7734 116.523 44.6211 119.156 44.6211C121.094 44.6211 122.867 44.125 124.477 43.1328C125.156 42.7188 125.762 42.2812 126.293 41.8203C126.824 41.3516 127.223 40.9258 127.488 40.543C127.754 40.1602 127.887 39.8242 127.887 39.5352C127.887 39.2461 127.742 39.1016 127.453 39.1016C127.305 39.1016 126.797 39.3672 125.93 39.8984C125.578 40.1172 125.18 40.3398 124.734 40.5664C124.297 40.7852 123.754 40.9727 123.105 41.1289C122.457 41.2852 121.703 41.3633 120.844 41.3633C119.984 41.3633 119.125 41.1953 118.266 40.8594C115.406 39.7422 113.977 37.3984 113.977 33.8281ZM122.367 30.418L114.117 31.4727C114.375 29.9336 114.902 28.7188 115.699 27.8281C116.496 26.9297 117.316 26.4805 118.16 26.4805C119.004 26.4805 119.727 26.7383 120.328 27.2539C120.578 27.4727 120.93 27.8789 121.383 28.4727C121.836 29.0586 122.164 29.707 122.367 30.418ZM136.453 9.14844C134.477 9.51562 132.125 9.88672 129.398 10.2617L129.492 11.8906C131.055 11.5703 131.996 11.4102 132.316 11.4102C132.637 11.4102 132.844 11.5547 132.938 11.8438C133.039 12.1328 133.09 12.7891 133.09 13.8125V41.1641C133.09 41.7266 132.941 42.0859 132.645 42.2422C132.355 42.3906 131.785 42.4648 130.934 42.4648H129.879V44H140.344V42.4648H139.523C138.211 42.4648 137.371 42.3945 137.004 42.2539C136.637 42.1055 136.453 41.7422 136.453 41.1641V9.14844ZM142.816 30.3711C142.816 31.5195 143.188 32.0938 143.93 32.0938C144.195 32.0938 144.516 31.9727 144.891 31.7305C145.273 31.4883 145.465 31.2266 145.465 30.9453C145.465 30.6641 145.371 30.1875 145.184 29.5156C145.098 29.2031 145.031 28.9414 144.984 28.7305C145.141 28.4023 145.492 28.082 146.039 27.7695C146.297 27.6211 146.676 27.4961 147.176 27.3945C147.676 27.293 148.352 27.2422 149.203 27.2422C150.062 27.2422 150.75 27.4609 151.266 27.8984C151.812 28.3594 152.086 29.2773 152.086 30.6523V33.5352C150.32 33.5352 148.691 33.875 147.199 34.5547C145.715 35.2266 144.551 36.125 143.707 37.25C142.863 38.375 142.441 39.5742 142.441 40.8477C142.441 42.1133 142.926 43.0586 143.895 43.6836C144.332 43.9648 144.801 44.1758 145.301 44.3164C145.801 44.457 146.438 44.5273 147.211 44.5273C147.992 44.5273 148.902 44.2344 149.941 43.6484C150.988 43.0547 151.832 42.3242 152.473 41.457C153.168 42.3555 153.719 43.0352 154.125 43.4961C154.453 43.8789 154.973 44.3203 155.684 44.8203C155.77 44.7969 156.672 44.2656 158.391 43.2266C158.797 42.9766 159 42.7578 159 42.5703C159 42.3828 158.855 42.25 158.566 42.1719C157.535 41.8906 156.766 41.4688 156.258 40.9062C155.719 40.2969 155.449 39.2656 155.449 37.8125V28.8359C155.449 28.1719 155.336 27.5938 155.109 27.1016C154.453 25.6953 153.156 24.9922 151.219 24.9922C147.812 24.9922 145.387 25.9297 143.941 27.8047C143.191 28.7734 142.816 29.6289 142.816 30.3711ZM146.484 41.2578C146.023 40.7969 145.793 40.25 145.793 39.6172C145.793 38.4141 146.34 37.332 147.434 36.3711C148.598 35.3477 150.148 34.8359 152.086 34.8359V39.3008C152.086 39.8164 151.957 40.2734 151.699 40.6719C151.543 40.9219 151.344 41.1367 151.102 41.3164C150.859 41.4961 150.527 41.6445 150.105 41.7617C149.691 41.8789 149.102 41.9375 148.336 41.9375C147.57 41.9375 146.953 41.7109 146.484 41.2578ZM176.273 41.8906C176.273 42.2734 175.457 42.4648 173.824 42.4648V44H183.516V42.4648H182.695C182.547 42.4648 182.379 42.4414 182.191 42.3945C182.004 42.3477 181.812 42.2852 181.617 42.207C181.43 42.1211 180.926 41.6289 180.105 40.7305L173.438 33.6758L178.863 28.3086L179.449 27.7227C179.543 27.6211 179.68 27.5 179.859 27.3594C180.047 27.2188 180.246 27.0781 180.457 26.9375C180.668 26.7891 181.305 26.7148 182.367 26.7148H183.328V25.1797H174.879V26.7148C176.316 26.7148 177.035 26.875 177.035 27.1953C177.035 27.4141 176.734 27.8477 176.133 28.4961L172.289 32.5273L168.539 28.2031C168.188 27.7578 168.012 27.4336 168.012 27.2305C168.012 27.0195 168.188 26.8828 168.539 26.8203C168.898 26.75 169.477 26.7148 170.273 26.7148H171.234V25.1797H160.816V26.7148C161.488 26.7148 161.973 26.7695 162.27 26.8789C162.48 26.957 162.66 27.0234 162.809 27.0781C162.965 27.1328 163.371 27.5078 164.027 28.2031L170.227 34.7891L164.18 40.8359C163.617 41.3828 163.055 41.8281 162.492 42.1719C162.188 42.3672 161.562 42.4648 160.617 42.4648H160.242L160.195 44H169.312V42.4648H168.164C166.656 42.4648 165.902 42.3125 165.902 42.0078C165.902 41.8125 166.109 41.4844 166.523 41.0234L171.328 35.9375L175.312 40.5898C175.367 40.6523 175.539 40.8398 175.828 41.1523C176.125 41.4648 176.273 41.7109 176.273 41.8906ZM192.469 24.5117C190.336 25.0898 188.082 25.5703 185.707 25.9531L185.754 27.3945C187.066 27.1367 187.902 27.0078 188.262 27.0078C188.621 27.0078 188.852 27.1133 188.953 27.3242C189.055 27.5273 189.105 27.9336 189.105 28.543V41.3633C189.105 41.7383 188.984 42.0391 188.742 42.2656C188.594 42.3984 187.789 42.4648 186.328 42.4648H185.895V44H196.312V42.4648H195.445C194.109 42.4648 193.258 42.3906 192.891 42.2422C192.609 42.1328 192.469 41.7734 192.469 41.1641V24.5117ZM190.008 16.8242C190.484 17.3789 190.891 17.6562 191.227 17.6562C191.562 17.6562 192.004 17.3828 192.551 16.8359C193.105 16.2891 193.383 15.8477 193.383 15.5117C193.383 15.168 193.109 14.7422 192.562 14.2344C192.023 13.7266 191.598 13.4727 191.285 13.4727C190.98 13.4727 190.574 13.7148 190.066 14.1992C189.559 14.6836 189.305 15.1016 189.305 15.4531C189.305 15.8047 189.539 16.2617 190.008 16.8242ZM211.488 28.5547C211.98 29.1016 212.227 30.043 212.227 31.3789V41.0234C212.227 41.5234 212.148 41.918 211.992 42.207C211.898 42.3789 211.434 42.4648 210.598 42.4648H209.496L209.543 44H218.473L218.52 42.4648C217.277 42.4648 216.477 42.3945 216.117 42.2539C215.766 42.1133 215.59 41.7031 215.59 41.0234V32.7734C215.59 31.4453 215.555 30.3867 215.484 29.5977C215.422 28.9727 215.332 28.4805 215.215 28.1211C215.105 27.7539 214.938 27.3516 214.711 26.9141C214.492 26.4688 214.223 26.1289 213.902 25.8945C213.59 25.6523 213.188 25.4492 212.695 25.2852C212.211 25.1211 211.457 25.0391 210.434 25.0391C209.41 25.0391 208.273 25.3672 207.023 26.0234C206.484 26.3125 206 26.5977 205.57 26.8789C205.148 27.1602 204.77 27.4258 204.434 27.6758C204.105 27.918 203.887 28.0625 203.777 28.1094C203.777 27.0781 203.828 25.9414 203.93 24.6992L198.023 25.9062V27.3945C199.148 27.1367 199.754 27.0078 199.84 27.0078C200.16 27.0078 200.359 27.1523 200.438 27.4414C200.523 27.7305 200.566 28.3867 200.566 29.4102V41.3516C200.566 41.4531 200.555 41.582 200.531 41.7383C200.508 41.8867 200.48 41.9844 200.449 42.0312C200.426 42.0781 200.371 42.1406 200.285 42.2188C200.207 42.2969 200.125 42.3438 200.039 42.3594C199.961 42.375 199.832 42.3984 199.652 42.4297C199.48 42.4531 199.25 42.4648 198.961 42.4648H197.93L197.977 44H207.328L207.434 42.4648H206.801C205.98 42.4648 205.426 42.4453 205.137 42.4062C204.91 42.3828 204.738 42.3633 204.621 42.3477C204.504 42.332 204.359 42.2578 204.188 42.125C204.016 41.9922 203.93 41.7266 203.93 41.3281V29.2695C205.992 28.2383 207.645 27.7227 208.887 27.7227C210.137 27.7227 211.004 28 211.488 28.5547ZM230.941 41.9375L227.684 41.9844H226.875C226.555 41.9844 226.305 41.9766 226.125 41.9609C226.023 41.9453 225.891 41.9297 225.727 41.9141C225.562 41.8906 225.434 41.8633 225.34 41.832C225.254 41.8008 225.148 41.7656 225.023 41.7266C224.586 41.5859 224.367 41.2734 224.367 40.7891C224.367 40.2578 224.738 39.8359 225.48 39.5234C226.223 39.2109 227.227 39.0547 228.492 39.0547C230.82 39.0547 232.723 38.3828 234.199 37.0391C234.871 36.4219 235.398 35.7109 235.781 34.9062C236.172 34.1016 236.367 33.2266 236.367 32.2812C236.367 31.3281 236.184 30.5742 235.816 30.0195C235.676 29.8086 235.547 29.6172 235.43 29.4453C235.32 29.2656 235.266 29.1367 235.266 29.0586C235.266 28.9727 235.695 28.9297 236.555 28.9297H237.328C237.789 28.9297 238.18 28.8906 238.5 28.8125C238.656 28.7812 238.773 28.7188 238.852 28.625C238.938 28.5234 239.023 28.3945 239.109 28.2383C239.203 28.0742 239.25 27.4414 239.25 26.3398V25.1328H238.242C238.195 25.2109 238.133 25.332 238.055 25.4961C237.977 25.6602 237.91 25.7891 237.855 25.8828C237.809 25.9766 237.719 26.0898 237.586 26.2227C237.461 26.3477 237.316 26.4453 237.152 26.5156C236.996 26.5859 236.773 26.6484 236.484 26.7031C236.203 26.75 235.719 26.7734 235.031 26.7734C234.344 26.7734 233.609 26.5391 232.828 26.0703C232.508 25.8828 232.047 25.625 231.445 25.2969C230.844 24.9688 229.859 24.8047 228.492 24.8047C226.516 24.8047 224.758 25.5195 223.219 26.9492C221.68 28.3711 220.91 30.0703 220.91 32.0469C220.91 33.9609 221.508 35.5391 222.703 36.7812C223.625 37.7578 224.531 38.3555 225.422 38.5742C224.898 38.6992 224.312 38.8828 223.664 39.125C223.352 39.25 223.035 39.4102 222.715 39.6055C222.395 39.793 222.102 39.9961 221.836 40.2148C221.578 40.4336 221.367 40.6992 221.203 41.0117C221.039 41.3242 220.957 41.6484 220.957 41.9844C220.957 42.3125 221.047 42.6172 221.227 42.8984C221.891 43.9922 223.355 44.6797 225.621 44.9609C225.113 45.0938 224.477 45.3125 223.711 45.6172C222.922 45.9297 222.207 46.3242 221.566 46.8008C219.816 48.0898 218.941 49.6055 218.941 51.3477C218.941 52.5352 219.352 53.5312 220.172 54.3359C221.727 55.8594 223.926 56.6211 226.77 56.6211C231.184 56.6211 234.711 55.2617 237.352 52.543C238.906 50.9414 239.684 49.1992 239.684 47.3164C239.684 43.7305 236.77 41.9375 230.941 41.9375ZM224.027 53.3867C223.105 52.707 222.645 51.9375 222.645 51.0781C222.645 49.4922 223.336 48.1094 224.719 46.9297C226.18 45.6797 228.047 45.0547 230.32 45.0547C234.32 45.0547 236.32 46.2383 236.32 48.6055C236.32 50.1055 235.734 51.3516 234.562 52.3438C232.906 53.7266 230.789 54.418 228.211 54.418C226.352 54.418 224.957 54.0742 224.027 53.3867ZM225.902 27.9336C226.582 27.0273 227.41 26.5742 228.387 26.5742C229.371 26.5742 230.258 27.0703 231.047 28.0625C231.422 28.5469 231.723 29.1758 231.949 29.9492C232.176 30.7227 232.289 31.7617 232.289 33.0664C232.289 34.3633 231.938 35.4531 231.234 36.3359C230.562 37.1562 229.777 37.5664 228.879 37.5664C227.863 37.5664 226.961 37.0781 226.172 36.1016C225.789 35.6328 225.48 35.0195 225.246 34.2617C225.012 33.4961 224.895 32.4766 224.895 31.2031C224.895 29.9219 225.23 28.832 225.902 27.9336ZM250.957 11.9844L250.91 13.9062H252.586C253.594 13.9062 254.27 14 254.613 14.1875C254.957 14.3672 255.129 14.8008 255.129 15.4883V40.3086C255.129 40.7539 255.113 41.082 255.082 41.293C255.059 41.4492 255.031 41.5586 255 41.6211C254.969 41.6836 254.879 41.7852 254.73 41.9258C254.59 42.0586 253.973 42.125 252.879 42.125H251.531L251.578 44H274.758L276.34 35.9844L274.664 35.8906C274.562 36.4609 274.477 36.9414 274.406 37.332C274.344 37.7148 274.273 38.0938 274.195 38.4688C274.125 38.8438 274.031 39.3125 273.914 39.875C273.797 40.4375 273.617 40.8398 273.375 41.082C272.945 41.5117 268.688 41.75 260.602 41.7969C260.156 41.7969 259.828 41.7578 259.617 41.6797C259.219 41.5156 259.02 40.9297 259.02 39.9219V15.6758C259.02 15.082 259.082 14.6797 259.207 14.4688C259.285 14.3359 259.395 14.2109 259.535 14.0938C259.676 13.9688 260.191 13.9062 261.082 13.9062H263.238V11.9844H250.957ZM279.188 31.6953C278.953 32.6406 278.836 33.6133 278.836 34.6133C278.836 36.7148 279.344 38.6055 280.359 40.2852C282.141 43.2383 284.836 44.7148 288.445 44.7148C291.492 44.7148 293.93 43.7969 295.758 41.9609C297.539 40.1562 298.43 37.8906 298.43 35.1641C298.43 31.9844 297.516 29.4375 295.688 27.5234C293.938 25.6797 291.488 24.7578 288.34 24.7578C285.801 24.7578 283.734 25.4375 282.141 26.7969C281.414 27.4219 280.797 28.1602 280.289 29.0117C279.789 29.8555 279.422 30.75 279.188 31.6953ZM282.961 36.1602C282.773 35.2617 282.68 34.3047 282.68 33.2891C282.68 31.1172 283.203 29.4102 284.25 28.168C285.258 26.9805 286.48 26.3867 287.918 26.3867C289.707 26.3867 291.219 27.0938 292.453 28.5078C293.055 29.2031 293.527 30.1133 293.871 31.2383C294.223 32.3555 294.398 33.6992 294.398 35.2695C294.398 36.8398 294.148 38.25 293.648 39.5C293.383 40.1719 293.047 40.7539 292.641 41.2461C292.242 41.7383 291.738 42.1289 291.129 42.418C290.52 42.707 289.832 42.8516 289.066 42.8516C288.301 42.8516 287.574 42.6719 286.887 42.3125C286.207 41.9453 285.613 41.4531 285.105 40.8359C284.605 40.2109 284.168 39.5 283.793 38.7031C283.426 37.8984 283.148 37.0508 282.961 36.1602ZM314.098 26.0469L302.238 29.5508V32.4336L314.098 28.9766V26.0469ZM335.789 24.5117C334.078 24.957 332.062 25.1797 329.742 25.1797H324.41V18.3711C324.41 17.0664 324.578 15.8047 324.914 14.5859C325.094 13.9141 325.32 13.3203 325.594 12.8047C325.875 12.2891 326.238 11.8633 326.684 11.5273C327.137 11.1914 327.699 11.0234 328.371 11.0234C329.043 11.0234 329.719 11.3438 330.398 11.9844C330.688 12.2578 331.035 12.625 331.441 13.0859C331.855 13.5391 332.137 13.7656 332.285 13.7656C332.816 13.7656 333.379 13.4492 333.973 12.8164C334.574 12.1836 334.875 11.6055 334.875 11.082C334.875 10.5508 334.418 10.1055 333.504 9.74609C332.598 9.37891 331.535 9.19531 330.316 9.19531C328.137 9.19531 326.254 9.86328 324.668 11.1992C322.262 13.2227 321.059 15.8203 321.059 18.9922V25.1797H318.129L317.555 27.4883H321.059V41.1641C321.059 41.7266 320.93 42.0859 320.672 42.2422C320.422 42.3906 319.879 42.4648 319.043 42.4648H317.883V44H327.867V42.4648H326.285C325.418 42.4648 324.875 42.3789 324.656 42.207C324.492 42.0742 324.41 41.7109 324.41 41.1172V27.4883H329.309C330.848 27.4883 331.75 27.5625 332.016 27.7109C332.289 27.8516 332.426 28.3516 332.426 29.2109V41.3633C332.426 41.8398 332.285 42.1445 332.004 42.2773C331.73 42.4023 331.184 42.4648 330.363 42.4648H329.402V44H338.719V42.4648H337.418C336.691 42.4648 336.238 42.3984 336.059 42.2656C335.879 42.1328 335.789 41.7656 335.789 41.1641V24.5117ZM350.707 11.9844L350.613 13.9062H351.949C352.668 13.9062 353.203 13.9531 353.555 14.0469C354.148 14.1953 354.445 14.7227 354.445 15.6289V40.7305C354.445 41.332 354.312 41.7148 354.047 41.8789C353.789 42.043 353.25 42.125 352.43 42.125H350.988V44H357.809C359.098 44 360.176 43.9883 361.043 43.9648C366.16 43.8242 369.676 42.8906 371.59 41.1641C373.027 39.8672 373.746 37.9258 373.746 35.3398C373.746 34.0117 373.406 32.6641 372.727 31.2969C371.484 28.8438 369.391 27.2852 366.445 26.6211C368.039 26.1523 369.434 25.3438 370.629 24.1953C371.223 23.6328 371.699 22.9766 372.059 22.2266C372.418 21.4688 372.598 20.6016 372.598 19.625C372.598 18.6484 372.363 17.6758 371.895 16.707C370.363 13.5586 366.836 11.9844 361.312 11.9844H350.707ZM358.336 40.3555L358.242 27.4883C359.617 27.4883 360.934 27.6211 362.191 27.8867C362.934 28.043 363.625 28.2461 364.266 28.4961C364.914 28.7383 365.543 29.0664 366.152 29.4805C366.77 29.8945 367.297 30.3711 367.734 30.9102C368.172 31.4414 368.523 32.0938 368.789 32.8672C369.055 33.6328 369.188 34.4648 369.188 35.3633C369.188 36.2617 369.07 37.082 368.836 37.8242C368.695 38.2695 368.508 38.6797 368.273 39.0547C368.047 39.4219 367.734 39.7891 367.336 40.1562C366.938 40.5156 366.477 40.8203 365.953 41.0703C365.43 41.3125 364.781 41.5117 364.008 41.668C363.242 41.8164 362.309 41.8906 361.207 41.8906C360.105 41.8906 359.352 41.8008 358.945 41.6211C358.539 41.4336 358.336 41.0117 358.336 40.3555ZM358.336 15.1953C358.336 14.4609 358.828 14.0938 359.812 14.0938C361.828 14.0938 363.473 14.4531 364.746 15.1719C367.004 16.4531 368.133 18.207 368.133 20.4336C368.133 21.7305 367.695 22.9727 366.82 24.1602C365.875 25.4492 364.613 26.0938 363.035 26.0938H358.336V15.1953ZM380.836 33.8281L380.883 33.1484L392.93 31.707C393.07 31.707 393.23 31.6445 393.41 31.5195C393.598 31.3945 393.691 31.2188 393.691 30.9922C393.691 30.1641 393.254 29.2031 392.379 28.1094C390.645 25.9375 388.426 24.8516 385.723 24.8516C383.309 24.8516 381.297 25.7969 379.688 27.6875C378.047 29.6172 377.227 32.125 377.227 35.2109C377.227 37.9844 378.055 40.2734 379.711 42.0781C381.281 43.7734 383.383 44.6211 386.016 44.6211C387.953 44.6211 389.727 44.125 391.336 43.1328C392.016 42.7188 392.621 42.2812 393.152 41.8203C393.684 41.3516 394.082 40.9258 394.348 40.543C394.613 40.1602 394.746 39.8242 394.746 39.5352C394.746 39.2461 394.602 39.1016 394.312 39.1016C394.164 39.1016 393.656 39.3672 392.789 39.8984C392.438 40.1172 392.039 40.3398 391.594 40.5664C391.156 40.7852 390.613 40.9727 389.965 41.1289C389.316 41.2852 388.562 41.3633 387.703 41.3633C386.844 41.3633 385.984 41.1953 385.125 40.8594C382.266 39.7422 380.836 37.3984 380.836 33.8281ZM389.227 30.418L380.977 31.4727C381.234 29.9336 381.762 28.7188 382.559 27.8281C383.355 26.9297 384.176 26.4805 385.02 26.4805C385.863 26.4805 386.586 26.7383 387.188 27.2539C387.438 27.4727 387.789 27.8789 388.242 28.4727C388.695 29.0586 389.023 29.707 389.227 30.418ZM397.582 30.3711C397.582 31.5195 397.953 32.0938 398.695 32.0938C398.961 32.0938 399.281 31.9727 399.656 31.7305C400.039 31.4883 400.23 31.2266 400.23 30.9453C400.23 30.6641 400.137 30.1875 399.949 29.5156C399.863 29.2031 399.797 28.9414 399.75 28.7305C399.906 28.4023 400.258 28.082 400.805 27.7695C401.062 27.6211 401.441 27.4961 401.941 27.3945C402.441 27.293 403.117 27.2422 403.969 27.2422C404.828 27.2422 405.516 27.4609 406.031 27.8984C406.578 28.3594 406.852 29.2773 406.852 30.6523V33.5352C405.086 33.5352 403.457 33.875 401.965 34.5547C400.48 35.2266 399.316 36.125 398.473 37.25C397.629 38.375 397.207 39.5742 397.207 40.8477C397.207 42.1133 397.691 43.0586 398.66 43.6836C399.098 43.9648 399.566 44.1758 400.066 44.3164C400.566 44.457 401.203 44.5273 401.977 44.5273C402.758 44.5273 403.668 44.2344 404.707 43.6484C405.754 43.0547 406.598 42.3242 407.238 41.457C407.934 42.3555 408.484 43.0352 408.891 43.4961C409.219 43.8789 409.738 44.3203 410.449 44.8203C410.535 44.7969 411.438 44.2656 413.156 43.2266C413.562 42.9766 413.766 42.7578 413.766 42.5703C413.766 42.3828 413.621 42.25 413.332 42.1719C412.301 41.8906 411.531 41.4688 411.023 40.9062C410.484 40.2969 410.215 39.2656 410.215 37.8125V28.8359C410.215 28.1719 410.102 27.5938 409.875 27.1016C409.219 25.6953 407.922 24.9922 405.984 24.9922C402.578 24.9922 400.152 25.9297 398.707 27.8047C397.957 28.7734 397.582 29.6289 397.582 30.3711ZM401.25 41.2578C400.789 40.7969 400.559 40.25 400.559 39.6172C400.559 38.4141 401.105 37.332 402.199 36.3711C403.363 35.3477 404.914 34.8359 406.852 34.8359V39.3008C406.852 39.8164 406.723 40.2734 406.465 40.6719C406.309 40.9219 406.109 41.1367 405.867 41.3164C405.625 41.4961 405.293 41.6445 404.871 41.7617C404.457 41.8789 403.867 41.9375 403.102 41.9375C402.336 41.9375 401.719 41.7109 401.25 41.2578ZM414.492 27.4414C414.492 27.6992 414.684 27.8281 415.066 27.8281H417.375V39.3945C417.375 40.8633 417.73 42.0703 418.441 43.0156C418.801 43.4922 419.289 43.8633 419.906 44.1289C420.523 44.3945 421.238 44.5273 422.051 44.5273C422.871 44.5273 423.734 44.3594 424.641 44.0234C425.547 43.6875 426.297 43.2734 426.891 42.7812C427.492 42.2891 427.793 41.8594 427.793 41.4922C427.793 41.1172 427.68 40.9297 427.453 40.9297C427.422 40.9297 427.242 41.0078 426.914 41.1641C426.586 41.3125 426.148 41.4648 425.602 41.6211C425.062 41.7695 424.547 41.8438 424.055 41.8438C423.57 41.8438 423.148 41.7969 422.789 41.7031C421.422 41.3438 420.738 40.4453 420.738 39.0078V27.8281H426.926L427.219 25.5195H420.738V20.7734C420.738 20.5469 420.641 20.4336 420.445 20.4336C420.328 20.4336 419.703 21.1562 418.57 22.6016C418.039 23.2734 417.637 23.7656 417.363 24.0781C417.09 24.3828 416.543 24.9766 415.723 25.8594C414.902 26.7422 414.492 27.2695 414.492 27.4414ZM431.941 45.1016L431.895 44.6211C431.895 44.207 432.035 44 432.316 44C432.379 44 432.906 44.1016 433.898 44.3047C434.898 44.5156 435.941 44.6211 437.027 44.6211C439.066 44.6211 440.629 44.0703 441.715 42.9688C442.215 42.4609 442.598 41.8867 442.863 41.2461C443.129 40.5977 443.262 39.8828 443.262 39.1016C443.262 38.3203 443.062 37.6094 442.664 36.9688C442.453 36.6328 442.164 36.25 441.797 35.8203C441.438 35.3828 440.52 34.668 439.043 33.6758L436.887 32.2344C436.504 31.9844 436.227 31.7891 436.055 31.6484C436.03 31.6307 435.99 31.6024 435.937 31.5637L435.68 31.3789C435.492 31.2383 435.371 31.1445 435.316 31.0977C435.27 31.043 435.172 30.9492 435.023 30.8164C434.883 30.6836 434.789 30.5781 434.742 30.5C434.703 30.4219 434.609 30.2773 434.461 30.0664C434.312 29.8477 434.238 29.5 434.238 29.0234C434.238 28.3906 434.52 27.8477 435.082 27.3945C435.652 26.9414 436.25 26.7148 436.875 26.7148C437.5 26.7148 438.07 26.7734 438.586 26.8906C439.984 27.1875 440.953 27.6602 441.492 28.3086L441.539 31.707H443.074V24.4648L441.539 24.418C441.539 25.3789 441.414 25.8594 441.164 25.8594C441.023 25.8594 440.77 25.7891 440.402 25.6484C440.035 25.5 439.539 25.3555 438.914 25.2148C438.297 25.0664 437.543 24.9922 436.652 24.9922C435.762 24.9922 434.863 25.2109 433.957 25.6484C433.059 26.0859 432.352 26.6758 431.836 27.418C431.328 28.1523 431.074 28.9453 431.074 29.7969C431.074 31.7812 432.273 33.5547 434.672 35.1172L436.406 36.2773C437.227 36.8086 437.867 37.2656 438.328 37.6484C438.648 37.9297 438.895 38.1914 439.066 38.4336C439.246 38.668 439.398 38.9453 439.523 39.2656C439.648 39.5859 439.711 39.9961 439.711 40.4961C439.711 40.9961 439.492 41.5273 439.055 42.0898C438.836 42.3633 438.543 42.582 438.176 42.7461C437.809 42.9102 437.383 42.9922 436.898 42.9922C436.414 42.9922 435.656 42.8672 434.625 42.6172C433.602 42.3672 432.609 41.8672 431.648 41.1172L431.168 37.1328L429.68 37.2266L430.547 45.1953L431.941 45.1016Z" fill="#5B279E"/>
</svg>
