<svg width="517" height="66" viewBox="0 0 517 66" fill="none" xmlns="http://www.w3.org/2000/svg">
<path fill-rule="evenodd" clip-rule="evenodd" d="M0 33C0 14.85 13.95 0 31 0C48.205 0 62 14.85 62 33C62 51.15 48.05 66 31 66C13.95 66 0 51.15 0 33ZM42.625 48.345C43.5576 49.005 44.6426 48.6722 45.2626 47.685C45.7224 46.6922 45.57 45.375 44.485 44.88C36.425 39.6 26.195 38.4422 14.415 41.25C13.485 41.58 12.71 42.5672 13.02 43.725C13.33 44.715 14.2626 45.5427 15.3424 45.2072C26.195 42.5672 35.34 43.56 42.625 48.345ZM45.7224 39.435C46.81 40.26 48.205 39.765 48.9826 38.61C49.755 37.455 49.2926 35.8078 48.36 35.31C38.75 29.0427 24.8 27.225 13.485 30.8522C12.245 31.1822 11.625 32.67 11.935 33.99C12.245 35.31 13.6426 35.97 14.88 35.64C24.645 32.34 37.355 33.99 45.7224 39.435ZM13.33 25.5777C22.785 22.44 39.37 23.1 49.2926 29.37C50.685 30.1923 52.5476 29.7028 53.32 28.545C54.095 27.06 53.63 25.08 52.2376 24.255C40.765 16.9922 22.63 16.3323 11.625 19.7972C10.23 20.295 9.3 21.9422 9.765 23.595C10.23 25.08 11.78 26.07 13.33 25.5777ZM82.4883 15.1953L82.4414 16.4492L82.0078 39.875C81.9922 40.6328 81.9375 41.1367 81.8438 41.3867C81.7656 41.5898 81.6289 41.7656 81.4336 41.9141C81.2461 42.0547 80.4805 42.125 79.1367 42.125H78.6562V44H89.0156V42.125C87.5547 42.125 86.4844 42.1055 85.8047 42.0664C85.125 42.0195 84.6914 41.8867 84.5039 41.668C84.3164 41.4492 84.2227 41.0586 84.2227 40.4961L84.4102 18.6055L94.0547 40.9297C95.0391 43.2031 95.668 44.3398 95.9414 44.3398C96.1133 44.3398 96.2422 44.2656 96.3281 44.1172C96.4141 43.9688 96.7617 43.1055 97.3711 41.5273C97.9805 39.9492 98.8125 37.9102 99.8672 35.4102L107.262 17.9844V40.0156C107.262 40.6953 107.211 41.1602 107.109 41.4102C107.039 41.5977 106.898 41.7656 106.688 41.9141C106.484 42.0547 105.699 42.125 104.332 42.125H103.371L103.418 44H115.078L115.031 42.125H114.07C113.242 42.125 112.688 42.1016 112.406 42.0547C112.172 42.0234 111.992 41.9961 111.867 41.9727C111.75 41.9414 111.637 41.875 111.527 41.7734C111.426 41.6719 111.336 41.5508 111.258 41.4102C111.188 41.2695 111.152 40.7734 111.152 39.9219V15.4414C111.152 14.7852 111.324 14.3672 111.668 14.1875C112.02 14 112.68 13.9062 113.648 13.9062H115.277V11.9844H107.59L96.8438 37.6133L85.8984 11.9844H78.6562L78.7031 13.9062H81.1523C81.6992 13.9062 82.0586 13.9883 82.2305 14.1523C82.4023 14.3164 82.4883 14.6641 82.4883 15.1953ZM121.102 33.8281L121.148 33.1484L133.195 31.707C133.336 31.707 133.496 31.6445 133.676 31.5195C133.863 31.3945 133.957 31.2188 133.957 30.9922C133.957 30.1641 133.52 29.2031 132.645 28.1094C130.91 25.9375 128.691 24.8516 125.988 24.8516C123.574 24.8516 121.562 25.7969 119.953 27.6875C118.312 29.6172 117.492 32.125 117.492 35.2109C117.492 37.9844 118.32 40.2734 119.977 42.0781C121.547 43.7734 123.648 44.6211 126.281 44.6211C128.219 44.6211 129.992 44.125 131.602 43.1328C132.281 42.7188 132.887 42.2812 133.418 41.8203C133.949 41.3516 134.348 40.9258 134.613 40.543C134.879 40.1602 135.012 39.8242 135.012 39.5352C135.012 39.2461 134.867 39.1016 134.578 39.1016C134.43 39.1016 133.922 39.3672 133.055 39.8984C132.703 40.1172 132.305 40.3398 131.859 40.5664C131.422 40.7852 130.879 40.9727 130.23 41.1289C129.582 41.2852 128.828 41.3633 127.969 41.3633C127.109 41.3633 126.25 41.1953 125.391 40.8594C122.531 39.7422 121.102 37.3984 121.102 33.8281ZM129.492 30.418L121.242 31.4727C121.5 29.9336 122.027 28.7188 122.824 27.8281C123.621 26.9297 124.441 26.4805 125.285 26.4805C126.129 26.4805 126.852 26.7383 127.453 27.2539C127.703 27.4727 128.055 27.8789 128.508 28.4727C128.961 29.0586 129.289 29.707 129.492 30.418ZM140.93 33.8281L140.977 33.1484L153.023 31.707C153.164 31.707 153.324 31.6445 153.504 31.5195C153.691 31.3945 153.785 31.2188 153.785 30.9922C153.785 30.1641 153.348 29.2031 152.473 28.1094C150.738 25.9375 148.52 24.8516 145.816 24.8516C143.402 24.8516 141.391 25.7969 139.781 27.6875C138.141 29.6172 137.32 32.125 137.32 35.2109C137.32 37.9844 138.148 40.2734 139.805 42.0781C141.375 43.7734 143.477 44.6211 146.109 44.6211C148.047 44.6211 149.82 44.125 151.43 43.1328C152.109 42.7188 152.715 42.2812 153.246 41.8203C153.777 41.3516 154.176 40.9258 154.441 40.543C154.707 40.1602 154.84 39.8242 154.84 39.5352C154.84 39.2461 154.695 39.1016 154.406 39.1016C154.258 39.1016 153.75 39.3672 152.883 39.8984C152.531 40.1172 152.133 40.3398 151.688 40.5664C151.25 40.7852 150.707 40.9727 150.059 41.1289C149.41 41.2852 148.656 41.3633 147.797 41.3633C146.938 41.3633 146.078 41.1953 145.219 40.8594C142.359 39.7422 140.93 37.3984 140.93 33.8281ZM149.32 30.418L141.07 31.4727C141.328 29.9336 141.855 28.7188 142.652 27.8281C143.449 26.9297 144.27 26.4805 145.113 26.4805C145.957 26.4805 146.68 26.7383 147.281 27.2539C147.531 27.4727 147.883 27.8789 148.336 28.4727C148.789 29.0586 149.117 29.707 149.32 30.418ZM156.352 27.4414C156.352 27.6992 156.543 27.8281 156.926 27.8281H159.234V39.3945C159.234 40.8633 159.59 42.0703 160.301 43.0156C160.66 43.4922 161.148 43.8633 161.766 44.1289C162.383 44.3945 163.098 44.5273 163.91 44.5273C164.73 44.5273 165.594 44.3594 166.5 44.0234C167.406 43.6875 168.156 43.2734 168.75 42.7812C169.352 42.2891 169.652 41.8594 169.652 41.4922C169.652 41.1172 169.539 40.9297 169.312 40.9297C169.281 40.9297 169.102 41.0078 168.773 41.1641C168.445 41.3125 168.008 41.4648 167.461 41.6211C166.922 41.7695 166.406 41.8438 165.914 41.8438C165.43 41.8438 165.008 41.7969 164.648 41.7031C163.281 41.3438 162.598 40.4453 162.598 39.0078V27.8281H168.785L169.078 25.5195H162.598V20.7734C162.598 20.5469 162.5 20.4336 162.305 20.4336C162.188 20.4336 161.562 21.1562 160.43 22.6016C159.898 23.2734 159.496 23.7656 159.223 24.0781C158.949 24.3828 158.402 24.9766 157.582 25.8594C156.762 26.7422 156.352 27.2695 156.352 27.4414ZM184.957 15.1953L184.91 16.4492L184.477 39.875C184.461 40.6328 184.406 41.1367 184.312 41.3867C184.234 41.5898 184.098 41.7656 183.902 41.9141C183.715 42.0547 182.949 42.125 181.605 42.125H181.125V44H191.484V42.125C190.023 42.125 188.953 42.1055 188.273 42.0664C187.594 42.0195 187.16 41.8867 186.973 41.668C186.785 41.4492 186.691 41.0586 186.691 40.4961L186.879 18.6055L196.523 40.9297C197.508 43.2031 198.137 44.3398 198.41 44.3398C198.582 44.3398 198.711 44.2656 198.797 44.1172C198.883 43.9688 199.23 43.1055 199.84 41.5273C200.449 39.9492 201.281 37.9102 202.336 35.4102L209.73 17.9844V40.0156C209.73 40.6953 209.68 41.1602 209.578 41.4102C209.508 41.5977 209.367 41.7656 209.156 41.9141C208.953 42.0547 208.168 42.125 206.801 42.125H205.84L205.887 44H217.547L217.5 42.125H216.539C215.711 42.125 215.156 42.1016 214.875 42.0547C214.641 42.0234 214.461 41.9961 214.336 41.9727C214.219 41.9414 214.105 41.875 213.996 41.7734C213.895 41.6719 213.805 41.5508 213.727 41.4102C213.656 41.2695 213.621 40.7734 213.621 39.9219V15.4414C213.621 14.7852 213.793 14.3672 214.137 14.1875C214.488 14 215.148 13.9062 216.117 13.9062H217.746V11.9844H210.059L199.312 37.6133L188.367 11.9844H181.125L181.172 13.9062H183.621C184.168 13.9062 184.527 13.9883 184.699 14.1523C184.871 14.3164 184.957 14.6641 184.957 15.1953ZM223.57 33.8281L223.617 33.1484L235.664 31.707C235.805 31.707 235.965 31.6445 236.145 31.5195C236.332 31.3945 236.426 31.2188 236.426 30.9922C236.426 30.1641 235.988 29.2031 235.113 28.1094C233.379 25.9375 231.16 24.8516 228.457 24.8516C226.043 24.8516 224.031 25.7969 222.422 27.6875C220.781 29.6172 219.961 32.125 219.961 35.2109C219.961 37.9844 220.789 40.2734 222.445 42.0781C224.016 43.7734 226.117 44.6211 228.75 44.6211C230.688 44.6211 232.461 44.125 234.07 43.1328C234.75 42.7188 235.355 42.2812 235.887 41.8203C236.418 41.3516 236.816 40.9258 237.082 40.543C237.348 40.1602 237.48 39.8242 237.48 39.5352C237.48 39.2461 237.336 39.1016 237.047 39.1016C236.898 39.1016 236.391 39.3672 235.523 39.8984C235.172 40.1172 234.773 40.3398 234.328 40.5664C233.891 40.7852 233.348 40.9727 232.699 41.1289C232.051 41.2852 231.297 41.3633 230.438 41.3633C229.578 41.3633 228.719 41.1953 227.859 40.8594C225 39.7422 223.57 37.3984 223.57 33.8281ZM231.961 30.418L223.711 31.4727C223.969 29.9336 224.496 28.7188 225.293 27.8281C226.09 26.9297 226.91 26.4805 227.754 26.4805C228.598 26.4805 229.32 26.7383 229.922 27.2539C230.172 27.4727 230.523 27.8789 230.977 28.4727C231.43 29.0586 231.758 29.707 231.961 30.418ZM255.562 24.5117C253.43 25.0898 251.176 25.5703 248.801 25.9531L248.848 27.3945C250.16 27.1367 250.996 27.0078 251.355 27.0078C251.715 27.0078 251.945 27.1133 252.047 27.3242C252.148 27.5273 252.199 27.9336 252.199 28.543V41.3633C252.199 41.7383 252.078 42.0391 251.836 42.2656C251.688 42.3984 250.883 42.4648 249.422 42.4648H248.988V44H259.406V42.4648H258.539C257.203 42.4648 256.352 42.3906 255.984 42.2422C255.703 42.1328 255.562 41.7734 255.562 41.1641V24.5117ZM253.102 16.8242C253.578 17.3789 253.984 17.6562 254.32 17.6562C254.656 17.6562 255.098 17.3828 255.645 16.8359C256.199 16.2891 256.477 15.8477 256.477 15.5117C256.477 15.168 256.203 14.7422 255.656 14.2344C255.117 13.7266 254.691 13.4727 254.379 13.4727C254.074 13.4727 253.668 13.7148 253.16 14.1992C252.652 14.6836 252.398 15.1016 252.398 15.4531C252.398 15.8047 252.633 16.2617 253.102 16.8242ZM274.582 28.5547C275.074 29.1016 275.32 30.043 275.32 31.3789V41.0234C275.32 41.5234 275.242 41.918 275.086 42.207C274.992 42.3789 274.527 42.4648 273.691 42.4648H272.59L272.637 44H281.566L281.613 42.4648C280.371 42.4648 279.57 42.3945 279.211 42.2539C278.859 42.1133 278.684 41.7031 278.684 41.0234V32.7734C278.684 31.4453 278.648 30.3867 278.578 29.5977C278.516 28.9727 278.426 28.4805 278.309 28.1211C278.199 27.7539 278.031 27.3516 277.805 26.9141C277.586 26.4688 277.316 26.1289 276.996 25.8945C276.684 25.6523 276.281 25.4492 275.789 25.2852C275.305 25.1211 274.551 25.0391 273.527 25.0391C272.504 25.0391 271.367 25.3672 270.117 26.0234C269.578 26.3125 269.094 26.5977 268.664 26.8789C268.242 27.1602 267.863 27.4258 267.527 27.6758C267.199 27.918 266.98 28.0625 266.871 28.1094C266.871 27.0781 266.922 25.9414 267.023 24.6992L261.117 25.9062V27.3945C262.242 27.1367 262.848 27.0078 262.934 27.0078C263.254 27.0078 263.453 27.1523 263.531 27.4414C263.617 27.7305 263.66 28.3867 263.66 29.4102V41.3516C263.66 41.4531 263.648 41.582 263.625 41.7383C263.602 41.8867 263.574 41.9844 263.543 42.0312C263.52 42.0781 263.465 42.1406 263.379 42.2188C263.301 42.2969 263.219 42.3438 263.133 42.3594C263.055 42.375 262.926 42.3984 262.746 42.4297C262.574 42.4531 262.344 42.4648 262.055 42.4648H261.023L261.07 44H270.422L270.527 42.4648H269.895C269.074 42.4648 268.52 42.4453 268.23 42.4062C268.004 42.3828 267.832 42.3633 267.715 42.3477C267.598 42.332 267.453 42.2578 267.281 42.125C267.109 41.9922 267.023 41.7266 267.023 41.3281V29.2695C269.086 28.2383 270.738 27.7227 271.98 27.7227C273.23 27.7227 274.098 28 274.582 28.5547ZM292.336 27.4414C292.336 27.6992 292.527 27.8281 292.91 27.8281H295.219V39.3945C295.219 40.8633 295.574 42.0703 296.285 43.0156C296.645 43.4922 297.133 43.8633 297.75 44.1289C298.367 44.3945 299.082 44.5273 299.895 44.5273C300.715 44.5273 301.578 44.3594 302.484 44.0234C303.391 43.6875 304.141 43.2734 304.734 42.7812C305.336 42.2891 305.637 41.8594 305.637 41.4922C305.637 41.1172 305.523 40.9297 305.297 40.9297C305.266 40.9297 305.086 41.0078 304.758 41.1641C304.43 41.3125 303.992 41.4648 303.445 41.6211C302.906 41.7695 302.391 41.8438 301.898 41.8438C301.414 41.8438 300.992 41.7969 300.633 41.7031C299.266 41.3438 298.582 40.4453 298.582 39.0078V27.8281H304.77L305.062 25.5195H298.582V20.7734C298.582 20.5469 298.484 20.4336 298.289 20.4336C298.172 20.4336 297.547 21.1562 296.414 22.6016C295.883 23.2734 295.48 23.7656 295.207 24.0781C294.934 24.3828 294.387 24.9766 293.566 25.8594C292.746 26.7422 292.336 27.2695 292.336 27.4414ZM313.43 30.0312C315.273 28.4922 316.953 27.7227 318.469 27.7227C319.125 27.7227 319.719 27.8828 320.25 28.2031C321.242 28.7969 321.738 29.8555 321.738 31.3789V41.1172C321.738 41.7109 321.594 42.0859 321.305 42.2422C321.016 42.3906 320.391 42.4648 319.43 42.4648H318.656L318.703 44H327.926V42.4648H327.152C326.426 42.4648 325.957 42.4375 325.746 42.3828C325.566 42.3438 325.41 42.2852 325.277 42.207C325.152 42.1211 325.09 41.7422 325.09 41.0703V32.7734C325.09 31.7266 325.07 30.8945 325.031 30.2773C325 29.7852 324.957 29.3828 324.902 29.0703C324.848 28.7578 324.766 28.3984 324.656 27.9922C324.547 27.5859 324.414 27.2578 324.258 27.0078C324.109 26.75 323.918 26.4844 323.684 26.2109C323.449 25.9375 323.184 25.7266 322.887 25.5781C322.59 25.4219 322.238 25.293 321.832 25.1914C321.426 25.0898 320.934 25.0391 320.355 25.0391C319.785 25.0391 319.09 25.1719 318.27 25.4375C317.949 25.5469 317.598 25.7031 317.215 25.9062C316.84 26.1094 316.445 26.332 316.031 26.5742C315.617 26.8164 314.75 27.4883 313.43 28.5898V9.14844C310.242 9.64062 308.211 9.92969 307.336 10.0156V11.6914C308.484 11.5039 309.168 11.4102 309.387 11.4102C309.605 11.4102 309.773 11.5117 309.891 11.7148C310.008 11.918 310.066 12.2969 310.066 12.8516V41.3633C310.066 41.7461 309.941 42.0508 309.691 42.2773C309.559 42.4023 308.949 42.4648 307.863 42.4648H307.336L307.383 44H316.688L316.746 42.4648H315.879C314.855 42.4648 314.191 42.4023 313.887 42.2773C313.582 42.1523 313.43 41.8477 313.43 41.3633V30.0312ZM333.023 33.8281L333.07 33.1484L345.117 31.707C345.258 31.707 345.418 31.6445 345.598 31.5195C345.785 31.3945 345.879 31.2188 345.879 30.9922C345.879 30.1641 345.441 29.2031 344.566 28.1094C342.832 25.9375 340.613 24.8516 337.91 24.8516C335.496 24.8516 333.484 25.7969 331.875 27.6875C330.234 29.6172 329.414 32.125 329.414 35.2109C329.414 37.9844 330.242 40.2734 331.898 42.0781C333.469 43.7734 335.57 44.6211 338.203 44.6211C340.141 44.6211 341.914 44.125 343.523 43.1328C344.203 42.7188 344.809 42.2812 345.34 41.8203C345.871 41.3516 346.27 40.9258 346.535 40.543C346.801 40.1602 346.934 39.8242 346.934 39.5352C346.934 39.2461 346.789 39.1016 346.5 39.1016C346.352 39.1016 345.844 39.3672 344.977 39.8984C344.625 40.1172 344.227 40.3398 343.781 40.5664C343.344 40.7852 342.801 40.9727 342.152 41.1289C341.504 41.2852 340.75 41.3633 339.891 41.3633C339.031 41.3633 338.172 41.1953 337.312 40.8594C334.453 39.7422 333.023 37.3984 333.023 33.8281ZM341.414 30.418L333.164 31.4727C333.422 29.9336 333.949 28.7188 334.746 27.8281C335.543 26.9297 336.363 26.4805 337.207 26.4805C338.051 26.4805 338.773 26.7383 339.375 27.2539C339.625 27.4727 339.977 27.8789 340.43 28.4727C340.883 29.0586 341.211 29.707 341.414 30.418ZM362.566 15.1953L362.52 16.4492L362.086 39.875C362.07 40.6328 362.016 41.1367 361.922 41.3867C361.844 41.5898 361.707 41.7656 361.512 41.9141C361.324 42.0547 360.559 42.125 359.215 42.125H358.734V44H369.094V42.125C367.633 42.125 366.562 42.1055 365.883 42.0664C365.203 42.0195 364.77 41.8867 364.582 41.668C364.395 41.4492 364.301 41.0586 364.301 40.4961L364.488 18.6055L374.133 40.9297C375.117 43.2031 375.746 44.3398 376.02 44.3398C376.191 44.3398 376.32 44.2656 376.406 44.1172C376.492 43.9688 376.84 43.1055 377.449 41.5273C378.059 39.9492 378.891 37.9102 379.945 35.4102L387.34 17.9844V40.0156C387.34 40.6953 387.289 41.1602 387.188 41.4102C387.117 41.5977 386.977 41.7656 386.766 41.9141C386.562 42.0547 385.777 42.125 384.41 42.125H383.449L383.496 44H395.156L395.109 42.125H394.148C393.32 42.125 392.766 42.1016 392.484 42.0547C392.25 42.0234 392.07 41.9961 391.945 41.9727C391.828 41.9414 391.715 41.875 391.605 41.7734C391.504 41.6719 391.414 41.5508 391.336 41.4102C391.266 41.2695 391.23 40.7734 391.23 39.9219V15.4414C391.23 14.7852 391.402 14.3672 391.746 14.1875C392.098 14 392.758 13.9062 393.727 13.9062H395.355V11.9844H387.668L376.922 37.6133L365.977 11.9844H358.734L358.781 13.9062H361.23C361.777 13.9062 362.137 13.9883 362.309 14.1523C362.48 14.3164 362.566 14.6641 362.566 15.1953ZM397.969 31.6953C397.734 32.6406 397.617 33.6133 397.617 34.6133C397.617 36.7148 398.125 38.6055 399.141 40.2852C400.922 43.2383 403.617 44.7148 407.227 44.7148C410.273 44.7148 412.711 43.7969 414.539 41.9609C416.32 40.1562 417.211 37.8906 417.211 35.1641C417.211 31.9844 416.297 29.4375 414.469 27.5234C412.719 25.6797 410.27 24.7578 407.121 24.7578C404.582 24.7578 402.516 25.4375 400.922 26.7969C400.195 27.4219 399.578 28.1602 399.07 29.0117C398.57 29.8555 398.203 30.75 397.969 31.6953ZM401.742 36.1602C401.555 35.2617 401.461 34.3047 401.461 33.2891C401.461 31.1172 401.984 29.4102 403.031 28.168C404.039 26.9805 405.262 26.3867 406.699 26.3867C408.488 26.3867 410 27.0938 411.234 28.5078C411.836 29.2031 412.309 30.1133 412.652 31.2383C413.004 32.3555 413.18 33.6992 413.18 35.2695C413.18 36.8398 412.93 38.25 412.43 39.5C412.164 40.1719 411.828 40.7539 411.422 41.2461C411.023 41.7383 410.52 42.1289 409.91 42.418C409.301 42.707 408.613 42.8516 407.848 42.8516C407.082 42.8516 406.355 42.6719 405.668 42.3125C404.988 41.9453 404.395 41.4531 403.887 40.8359C403.387 40.2109 402.949 39.5 402.574 38.7031C402.207 37.8984 401.93 37.0508 401.742 36.1602ZM432.785 28.5547C433.277 29.1016 433.523 30.043 433.523 31.3789V41.0234C433.523 41.5234 433.445 41.918 433.289 42.207C433.195 42.3789 432.73 42.4648 431.895 42.4648H430.793L430.84 44H439.77L439.816 42.4648C438.574 42.4648 437.773 42.3945 437.414 42.2539C437.062 42.1133 436.887 41.7031 436.887 41.0234V32.7734C436.887 31.4453 436.852 30.3867 436.781 29.5977C436.719 28.9727 436.629 28.4805 436.512 28.1211C436.402 27.7539 436.234 27.3516 436.008 26.9141C435.789 26.4688 435.52 26.1289 435.199 25.8945C434.887 25.6523 434.484 25.4492 433.992 25.2852C433.508 25.1211 432.754 25.0391 431.73 25.0391C430.707 25.0391 429.57 25.3672 428.32 26.0234C427.781 26.3125 427.297 26.5977 426.867 26.8789C426.445 27.1602 426.066 27.4258 425.73 27.6758C425.402 27.918 425.184 28.0625 425.074 28.1094C425.074 27.0781 425.125 25.9414 425.227 24.6992L419.32 25.9062V27.3945C420.445 27.1367 421.051 27.0078 421.137 27.0078C421.457 27.0078 421.656 27.1523 421.734 27.4414C421.82 27.7305 421.863 28.3867 421.863 29.4102V41.3516C421.863 41.4531 421.852 41.582 421.828 41.7383C421.805 41.8867 421.777 41.9844 421.746 42.0312C421.723 42.0781 421.668 42.1406 421.582 42.2188C421.504 42.2969 421.422 42.3438 421.336 42.3594C421.292 42.3681 421.233 42.3792 421.158 42.3928C421.098 42.4036 421.029 42.4159 420.949 42.4297C420.777 42.4531 420.547 42.4648 420.258 42.4648H419.227L419.273 44H428.625L428.73 42.4648H428.098C427.277 42.4648 426.723 42.4453 426.434 42.4062C426.207 42.3828 426.035 42.3633 425.918 42.3477C425.801 42.332 425.656 42.2578 425.484 42.125C425.312 41.9922 425.227 41.7266 425.227 41.3281V29.2695C427.289 28.2383 428.941 27.7227 430.184 27.7227C431.434 27.7227 432.301 28 432.785 28.5547ZM440.461 27.4414C440.461 27.6992 440.652 27.8281 441.035 27.8281H443.344V39.3945C443.344 40.8633 443.699 42.0703 444.41 43.0156C444.77 43.4922 445.258 43.8633 445.875 44.1289C446.492 44.3945 447.207 44.5273 448.02 44.5273C448.84 44.5273 449.703 44.3594 450.609 44.0234C451.516 43.6875 452.266 43.2734 452.859 42.7812C453.461 42.2891 453.762 41.8594 453.762 41.4922C453.762 41.1172 453.648 40.9297 453.422 40.9297C453.391 40.9297 453.211 41.0078 452.883 41.1641C452.555 41.3125 452.117 41.4648 451.57 41.6211C451.031 41.7695 450.516 41.8438 450.023 41.8438C449.539 41.8438 449.117 41.7969 448.758 41.7031C447.391 41.3438 446.707 40.4453 446.707 39.0078V27.8281H452.895L453.188 25.5195H446.707V20.7734C446.707 20.5469 446.609 20.4336 446.414 20.4336C446.297 20.4336 445.672 21.1562 444.539 22.6016C444.008 23.2734 443.605 23.7656 443.332 24.0781C443.059 24.3828 442.512 24.9766 441.691 25.8594C440.871 26.7422 440.461 27.2695 440.461 27.4414ZM456.27 30.3711C456.27 31.5195 456.641 32.0938 457.383 32.0938C457.648 32.0938 457.969 31.9727 458.344 31.7305C458.727 31.4883 458.918 31.2266 458.918 30.9453C458.918 30.6641 458.824 30.1875 458.637 29.5156C458.551 29.2031 458.484 28.9414 458.438 28.7305C458.594 28.4023 458.945 28.082 459.492 27.7695C459.75 27.6211 460.129 27.4961 460.629 27.3945C461.129 27.293 461.805 27.2422 462.656 27.2422C463.516 27.2422 464.203 27.4609 464.719 27.8984C465.266 28.3594 465.539 29.2773 465.539 30.6523V33.5352C463.773 33.5352 462.145 33.875 460.652 34.5547C459.168 35.2266 458.004 36.125 457.16 37.25C456.316 38.375 455.895 39.5742 455.895 40.8477C455.895 42.1133 456.379 43.0586 457.348 43.6836C457.785 43.9648 458.254 44.1758 458.754 44.3164C459.254 44.457 459.891 44.5273 460.664 44.5273C461.445 44.5273 462.355 44.2344 463.395 43.6484C464.441 43.0547 465.285 42.3242 465.926 41.457C466.621 42.3555 467.172 43.0352 467.578 43.4961C467.906 43.8789 468.426 44.3203 469.137 44.8203C469.223 44.7969 470.125 44.2656 471.844 43.2266C472.25 42.9766 472.453 42.7578 472.453 42.5703C472.453 42.3828 472.309 42.25 472.02 42.1719C470.988 41.8906 470.219 41.4688 469.711 40.9062C469.172 40.2969 468.902 39.2656 468.902 37.8125V28.8359C468.902 28.1719 468.789 27.5938 468.562 27.1016C467.906 25.6953 466.609 24.9922 464.672 24.9922C461.266 24.9922 458.84 25.9297 457.395 27.8047C456.645 28.7734 456.27 29.6289 456.27 30.3711ZM459.938 41.2578C459.477 40.7969 459.246 40.25 459.246 39.6172C459.246 38.4141 459.793 37.332 460.887 36.3711C462.051 35.3477 463.602 34.8359 465.539 34.8359V39.3008C465.539 39.8164 465.41 40.2734 465.152 40.6719C464.996 40.9219 464.797 41.1367 464.555 41.3164C464.312 41.4961 463.98 41.6445 463.559 41.7617C463.145 41.8789 462.555 41.9375 461.789 41.9375C461.023 41.9375 460.406 41.7109 459.938 41.2578ZM473.414 26.8672L474.996 26.7148C475.34 26.7148 475.578 26.7969 475.711 26.9609C475.844 27.1172 475.91 27.4375 475.91 27.9219V37.3789C475.91 38.5273 476.004 39.5391 476.191 40.4141C476.301 40.9297 476.445 41.3945 476.625 41.8086C476.805 42.2148 477.039 42.6055 477.328 42.9805C477.617 43.3477 477.953 43.6562 478.336 43.9062C478.727 44.1562 479.195 44.3516 479.742 44.4922C480.289 44.6406 480.883 44.7148 481.523 44.7148C482.164 44.7148 482.812 44.6016 483.469 44.375C485.117 43.8203 486.531 42.8945 487.711 41.5977C487.891 42.7305 488.004 43.8672 488.051 45.0078C488.402 44.9141 489.188 44.6914 490.406 44.3398C491.633 43.9961 492.816 43.707 493.957 43.4727V41.9375C492.746 42.2891 492.02 42.4648 491.777 42.4648C491.535 42.4648 491.328 42.3555 491.156 42.1367C491.008 41.9492 490.934 40.793 490.934 38.668V24.6992C488.332 25.1289 486.141 25.4023 484.359 25.5195L484.5 27.0078C484.547 26.9609 484.977 26.8984 485.789 26.8203C486.133 26.7891 486.441 26.7734 486.715 26.7734C486.996 26.7734 487.207 26.8633 487.348 27.043C487.496 27.2148 487.57 27.6016 487.57 28.2031V39.9219C486.664 41.1328 485.223 41.7383 483.246 41.7383C481.902 41.7383 480.914 41.4219 480.281 40.7891C479.602 40.1094 479.262 38.7461 479.262 36.6992V24.6992C477.832 24.957 475.883 25.1992 473.414 25.4258V26.8672ZM501.82 9.19531C500.859 9.39844 498.781 9.81641 495.586 10.4492L495.68 11.9844C496.805 11.6953 497.508 11.5508 497.789 11.5508C498.07 11.5508 498.25 11.707 498.328 12.0195C498.414 12.3242 498.457 12.9219 498.457 13.8125V41.75C498.457 41.8125 498.441 41.8945 498.41 41.9961C498.387 42.0977 498.363 42.1641 498.34 42.1953C498.316 42.2266 498.262 42.2656 498.176 42.3125C498.09 42.3594 498.004 42.3906 497.918 42.4062C497.84 42.4141 497.707 42.4258 497.52 42.4414C497.34 42.457 497.102 42.4648 496.805 42.4648H495.727V44H505.57L505.523 42.4648H504.223C503.113 42.4648 502.422 42.4062 502.148 42.2891C501.867 42.1641 501.727 41.8242 501.727 41.2695V36.0781L503.402 34.7891L510.891 44H516.562L516.609 42.4648H515.309C515.051 42.4648 514.848 42.457 514.699 42.4414C514.551 42.4258 514.422 42.4141 514.312 42.4062C514.211 42.3984 514.113 42.3555 514.02 42.2773C513.926 42.1914 513.855 42.1289 513.809 42.0898C513.762 42.0508 513.664 41.9414 513.516 41.7617C513.367 41.5742 513.246 41.4258 513.152 41.3164L505.992 32.9609L512.812 27.5352C513.375 27.082 513.828 26.793 514.172 26.668C514.523 26.543 514.949 26.4805 515.449 26.4805H516.176L516.223 25.1797H508.488V26.4805H509.93C510.602 26.4805 510.938 26.5938 510.938 26.8203C510.938 26.9297 510.828 27.0703 510.609 27.2422L501.82 34.4023V9.19531Z" fill="#079EA8"/>
</svg>
