<svg width="439" height="37" viewBox="0 0 439 37" fill="none" xmlns="http://www.w3.org/2000/svg">
<path d="M4.44141 7.44922L4.48828 6.19531C4.48828 5.66406 4.40234 5.31641 4.23047 5.15234C4.05859 4.98828 3.69922 4.90625 3.15234 4.90625H0.703125L0.65625 2.98438H7.89844L18.8438 28.6133L29.5898 2.98438H37.2773V4.90625H35.6484C34.6797 4.90625 34.0195 5 33.668 5.1875C33.3242 5.36719 33.1523 5.78516 33.1523 6.44141V30.9219C33.1523 31.7734 33.1875 32.2695 33.2578 32.4102C33.3359 32.5508 33.4258 32.6719 33.5273 32.7734C33.6367 32.875 33.75 32.9414 33.8672 32.9727C33.9922 32.9961 34.1719 33.0234 34.4062 33.0547C34.6875 33.1016 35.2422 33.125 36.0703 33.125H37.0312L37.0781 35H25.418L25.3711 33.125H26.332C27.6992 33.125 28.4844 33.0547 28.6875 32.9141C28.8984 32.7656 29.0391 32.5977 29.1094 32.4102C29.2109 32.1602 29.2617 31.6953 29.2617 31.0156V8.98438L21.8672 26.4102C20.8125 28.9102 19.9805 30.9492 19.3711 32.5273C18.7617 34.1055 18.4141 34.9688 18.3281 35.1172C18.2422 35.2656 18.1133 35.3398 17.9414 35.3398C17.668 35.3398 17.0391 34.2031 16.0547 31.9297L6.41016 9.60547L6.22266 31.4961C6.22266 32.0586 6.31641 32.4492 6.50391 32.668C6.69141 32.8867 7.125 33.0195 7.80469 33.0664C8.48438 33.1055 9.55469 33.125 11.0156 33.125V35H0.65625V33.125H1.13672C2.48047 33.125 3.24609 33.0547 3.43359 32.9141C3.62891 32.7656 3.76562 32.5898 3.84375 32.3867C3.9375 32.1367 3.99219 31.6328 4.00781 30.875L4.44141 7.44922ZM43.1484 24.1484L43.1016 24.8281C43.1016 28.3984 44.5312 30.7422 47.3906 31.8594C48.25 32.1953 49.1094 32.3633 49.9688 32.3633C50.8281 32.3633 51.582 32.2852 52.2305 32.1289C52.8789 31.9727 53.4219 31.7852 53.8594 31.5664C54.3047 31.3398 54.7031 31.1172 55.0547 30.8984C55.9219 30.3672 56.4297 30.1016 56.5781 30.1016C56.8672 30.1016 57.0117 30.2461 57.0117 30.5352C57.0117 30.8242 56.8789 31.1602 56.6133 31.543C56.3477 31.9258 55.9492 32.3516 55.418 32.8203C54.8867 33.2812 54.2812 33.7188 53.6016 34.1328C51.9922 35.125 50.2188 35.6211 48.2812 35.6211C45.6484 35.6211 43.5469 34.7734 41.9766 33.0781C40.3203 31.2734 39.4922 28.9844 39.4922 26.2109C39.4922 23.125 40.3125 20.6172 41.9531 18.6875C43.5625 16.7969 45.5742 15.8516 47.9883 15.8516C50.6914 15.8516 52.9102 16.9375 54.6445 19.1094C55.5195 20.2031 55.957 21.1641 55.957 21.9922C55.957 22.2188 55.8633 22.3945 55.6758 22.5195C55.4961 22.6445 55.3359 22.707 55.1953 22.707L43.1484 24.1484ZM43.2422 22.4727L51.4922 21.418C51.2891 20.707 50.9609 20.0586 50.5078 19.4727C50.0547 18.8789 49.7031 18.4727 49.4531 18.2539C48.8516 17.7383 48.1289 17.4805 47.2852 17.4805C46.4414 17.4805 45.6211 17.9297 44.8242 18.8281C44.0273 19.7188 43.5 20.9336 43.2422 22.4727ZM62.9766 24.1484L62.9297 24.8281C62.9297 28.3984 64.3594 30.7422 67.2188 31.8594C68.0781 32.1953 68.9375 32.3633 69.7969 32.3633C70.6562 32.3633 71.4102 32.2852 72.0586 32.1289C72.707 31.9727 73.25 31.7852 73.6875 31.5664C74.1328 31.3398 74.5312 31.1172 74.8828 30.8984C75.75 30.3672 76.2578 30.1016 76.4062 30.1016C76.6953 30.1016 76.8398 30.2461 76.8398 30.5352C76.8398 30.8242 76.707 31.1602 76.4414 31.543C76.1758 31.9258 75.7773 32.3516 75.2461 32.8203C74.7148 33.2812 74.1094 33.7188 73.4297 34.1328C71.8203 35.125 70.0469 35.6211 68.1094 35.6211C65.4766 35.6211 63.375 34.7734 61.8047 33.0781C60.1484 31.2734 59.3203 28.9844 59.3203 26.2109C59.3203 23.125 60.1406 20.6172 61.7812 18.6875C63.3906 16.7969 65.4023 15.8516 67.8164 15.8516C70.5195 15.8516 72.7383 16.9375 74.4727 19.1094C75.3477 20.2031 75.7852 21.1641 75.7852 21.9922C75.7852 22.2188 75.6914 22.3945 75.5039 22.5195C75.3242 22.6445 75.1641 22.707 75.0234 22.707L62.9766 24.1484ZM63.0703 22.4727L71.3203 21.418C71.1172 20.707 70.7891 20.0586 70.3359 19.4727C69.8828 18.8789 69.5312 18.4727 69.2812 18.2539C68.6797 17.7383 67.957 17.4805 67.1133 17.4805C66.2695 17.4805 65.4492 17.9297 64.6523 18.8281C63.8555 19.7188 63.3281 20.9336 63.0703 22.4727ZM78.9258 18.8281C78.543 18.8281 78.3516 18.6992 78.3516 18.4414C78.3516 18.2695 78.7617 17.7422 79.582 16.8594C80.4023 15.9766 80.9492 15.3828 81.2227 15.0781C81.4961 14.7656 81.8984 14.2734 82.4297 13.6016C83.5625 12.1562 84.1875 11.4336 84.3047 11.4336C84.5 11.4336 84.5977 11.5469 84.5977 11.7734V16.5195H91.0781L90.7852 18.8281H84.5977V30.0078C84.5977 31.4453 85.2812 32.3438 86.6484 32.7031C87.0078 32.7969 87.4297 32.8438 87.9141 32.8438C88.4062 32.8438 88.9219 32.7695 89.4609 32.6211C90.0078 32.4648 90.4453 32.3125 90.7734 32.1641C91.1016 32.0078 91.2812 31.9297 91.3125 31.9297C91.5391 31.9297 91.6523 32.1172 91.6523 32.4922C91.6523 32.8594 91.3516 33.2891 90.75 33.7812C90.1562 34.2734 89.4062 34.6875 88.5 35.0234C87.5938 35.3594 86.7305 35.5273 85.9102 35.5273C85.0977 35.5273 84.3828 35.3945 83.7656 35.1289C83.1484 34.8633 82.6602 34.4922 82.3008 34.0156C81.5898 33.0703 81.2344 31.8633 81.2344 30.3945V18.8281H78.9258ZM106.91 7.44922L106.957 6.19531C106.957 5.66406 106.871 5.31641 106.699 5.15234C106.527 4.98828 106.168 4.90625 105.621 4.90625H103.172L103.125 2.98438H110.367L121.312 28.6133L132.059 2.98438H139.746V4.90625H138.117C137.148 4.90625 136.488 5 136.137 5.1875C135.793 5.36719 135.621 5.78516 135.621 6.44141V30.9219C135.621 31.7734 135.656 32.2695 135.727 32.4102C135.805 32.5508 135.895 32.6719 135.996 32.7734C136.105 32.875 136.219 32.9414 136.336 32.9727C136.461 32.9961 136.641 33.0234 136.875 33.0547C137.156 33.1016 137.711 33.125 138.539 33.125H139.5L139.547 35H127.887L127.84 33.125H128.801C130.168 33.125 130.953 33.0547 131.156 32.9141C131.367 32.7656 131.508 32.5977 131.578 32.4102C131.68 32.1602 131.73 31.6953 131.73 31.0156V8.98438L124.336 26.4102C123.281 28.9102 122.449 30.9492 121.84 32.5273C121.23 34.1055 120.883 34.9688 120.797 35.1172C120.711 35.2656 120.582 35.3398 120.41 35.3398C120.137 35.3398 119.508 34.2031 118.523 31.9297L108.879 9.60547L108.691 31.4961C108.691 32.0586 108.785 32.4492 108.973 32.668C109.16 32.8867 109.594 33.0195 110.273 33.0664C110.953 33.1055 112.023 33.125 113.484 33.125V35H103.125V33.125H103.605C104.949 33.125 105.715 33.0547 105.902 32.9141C106.098 32.7656 106.234 32.5898 106.312 32.3867C106.406 32.1367 106.461 31.6328 106.477 30.875L106.91 7.44922ZM145.617 24.1484L145.57 24.8281C145.57 28.3984 147 30.7422 149.859 31.8594C150.719 32.1953 151.578 32.3633 152.438 32.3633C153.297 32.3633 154.051 32.2852 154.699 32.1289C155.348 31.9727 155.891 31.7852 156.328 31.5664C156.773 31.3398 157.172 31.1172 157.523 30.8984C158.391 30.3672 158.898 30.1016 159.047 30.1016C159.336 30.1016 159.48 30.2461 159.48 30.5352C159.48 30.8242 159.348 31.1602 159.082 31.543C158.816 31.9258 158.418 32.3516 157.887 32.8203C157.355 33.2812 156.75 33.7188 156.07 34.1328C154.461 35.125 152.688 35.6211 150.75 35.6211C148.117 35.6211 146.016 34.7734 144.445 33.0781C142.789 31.2734 141.961 28.9844 141.961 26.2109C141.961 23.125 142.781 20.6172 144.422 18.6875C146.031 16.7969 148.043 15.8516 150.457 15.8516C153.16 15.8516 155.379 16.9375 157.113 19.1094C157.988 20.2031 158.426 21.1641 158.426 21.9922C158.426 22.2188 158.332 22.3945 158.145 22.5195C157.965 22.6445 157.805 22.707 157.664 22.707L145.617 24.1484ZM145.711 22.4727L153.961 21.418C153.758 20.707 153.43 20.0586 152.977 19.4727C152.523 18.8789 152.172 18.4727 151.922 18.2539C151.32 17.7383 150.598 17.4805 149.754 17.4805C148.91 17.4805 148.09 17.9297 147.293 18.8281C146.496 19.7188 145.969 20.9336 145.711 22.4727ZM170.801 16.9531C173.176 16.5703 175.43 16.0898 177.562 15.5117V32.1641C177.562 32.7734 177.703 33.1328 177.984 33.2422C178.352 33.3906 179.203 33.4648 180.539 33.4648H181.406V35H170.988V33.4648H171.422C172.883 33.4648 173.688 33.3984 173.836 33.2656C174.078 33.0391 174.199 32.7383 174.199 32.3633V19.543C174.199 18.9336 174.148 18.5273 174.047 18.3242C173.945 18.1133 173.715 18.0078 173.355 18.0078C172.996 18.0078 172.16 18.1367 170.848 18.3945L170.801 16.9531ZM176.32 8.65625C175.984 8.65625 175.578 8.37891 175.102 7.82422C174.633 7.26172 174.398 6.80469 174.398 6.45312C174.398 6.10156 174.652 5.68359 175.16 5.19922C175.668 4.71484 176.074 4.47266 176.379 4.47266C176.691 4.47266 177.117 4.72656 177.656 5.23438C178.203 5.74219 178.477 6.16797 178.477 6.51172C178.477 6.84766 178.199 7.28906 177.645 7.83594C177.098 8.38281 176.656 8.65625 176.32 8.65625ZM197.32 22.3789C197.32 21.043 197.074 20.1016 196.582 19.5547C196.098 19 195.23 18.7227 193.98 18.7227C192.738 18.7227 191.086 19.2383 189.023 20.2695V32.3281C189.023 32.7266 189.109 32.9922 189.281 33.125C189.453 33.2578 189.598 33.332 189.715 33.3477C189.832 33.3633 190.004 33.3828 190.23 33.4062C190.52 33.4453 191.074 33.4648 191.895 33.4648H192.527L192.422 35H183.07L183.023 33.4648C183.422 33.4648 183.766 33.4648 184.055 33.4648C184.344 33.4648 184.574 33.4531 184.746 33.4297C184.926 33.3984 185.055 33.375 185.133 33.3594C185.219 33.3438 185.301 33.2969 185.379 33.2188C185.465 33.1406 185.52 33.0781 185.543 33.0312C185.574 32.9844 185.602 32.8867 185.625 32.7383C185.648 32.582 185.66 32.4531 185.66 32.3516V20.4102C185.66 19.3867 185.617 18.7305 185.531 18.4414C185.453 18.1523 185.254 18.0078 184.934 18.0078C184.848 18.0078 184.242 18.1367 183.117 18.3945V16.9062L189.023 15.6992C188.922 16.9414 188.871 18.0781 188.871 19.1094C188.98 19.0625 189.199 18.918 189.527 18.6758C189.863 18.4258 190.242 18.1602 190.664 17.8789C191.094 17.5977 191.578 17.3125 192.117 17.0234C193.367 16.3672 194.504 16.0391 195.527 16.0391C196.551 16.0391 197.305 16.1211 197.789 16.2852C198.281 16.4492 198.684 16.6523 198.996 16.8945C199.316 17.1289 199.586 17.4688 199.805 17.9141C200.031 18.3516 200.199 18.7539 200.309 19.1211C200.426 19.4805 200.516 19.9727 200.578 20.5977C200.648 21.3867 200.684 22.4453 200.684 23.7734V32.0234C200.684 32.7031 200.859 33.1133 201.211 33.2539C201.57 33.3945 202.371 33.4648 203.613 33.4648L203.566 35H194.637L194.59 33.4648H195.691C196.527 33.4648 196.992 33.3789 197.086 33.207C197.242 32.918 197.32 32.5234 197.32 32.0234V22.3789ZM214.91 18.8281C214.527 18.8281 214.336 18.6992 214.336 18.4414C214.336 18.2695 214.746 17.7422 215.566 16.8594C216.387 15.9766 216.934 15.3828 217.207 15.0781C217.48 14.7656 217.883 14.2734 218.414 13.6016C219.547 12.1562 220.172 11.4336 220.289 11.4336C220.484 11.4336 220.582 11.5469 220.582 11.7734V16.5195H227.062L226.77 18.8281H220.582V30.0078C220.582 31.4453 221.266 32.3438 222.633 32.7031C222.992 32.7969 223.414 32.8438 223.898 32.8438C224.391 32.8438 224.906 32.7695 225.445 32.6211C225.992 32.4648 226.43 32.3125 226.758 32.1641C227.086 32.0078 227.266 31.9297 227.297 31.9297C227.523 31.9297 227.637 32.1172 227.637 32.4922C227.637 32.8594 227.336 33.2891 226.734 33.7812C226.141 34.2734 225.391 34.6875 224.484 35.0234C223.578 35.3594 222.715 35.5273 221.895 35.5273C221.082 35.5273 220.367 35.3945 219.75 35.1289C219.133 34.8633 218.645 34.4922 218.285 34.0156C217.574 33.0703 217.219 31.8633 217.219 30.3945V18.8281H214.91ZM240.469 18.7227C238.953 18.7227 237.273 19.4922 235.43 21.0312V32.3633C235.43 32.8477 235.582 33.1523 235.887 33.2773C236.191 33.4023 236.855 33.4648 237.879 33.4648H238.746L238.688 35H229.383L229.336 33.4648H229.863C230.949 33.4648 231.559 33.4023 231.691 33.2773C231.941 33.0508 232.066 32.7461 232.066 32.3633V3.85156C232.066 3.29687 232.008 2.91797 231.891 2.71484C231.773 2.51172 231.605 2.41016 231.387 2.41016C231.168 2.41016 230.484 2.50391 229.336 2.69141V1.01562C230.211 0.929687 232.242 0.640625 235.43 0.148438V19.5898C236.75 18.4883 237.617 17.8164 238.031 17.5742C238.445 17.332 238.84 17.1094 239.215 16.9062C239.598 16.7031 239.949 16.5469 240.27 16.4375C241.09 16.1719 241.785 16.0391 242.355 16.0391C242.934 16.0391 243.426 16.0898 243.832 16.1914C244.238 16.293 244.59 16.4219 244.887 16.5781C245.184 16.7266 245.449 16.9375 245.684 17.2109C245.918 17.4844 246.109 17.75 246.258 18.0078C246.414 18.2578 246.547 18.5859 246.656 18.9922C246.766 19.3984 246.848 19.7578 246.902 20.0703C246.957 20.3828 247 20.7852 247.031 21.2773C247.07 21.8945 247.09 22.7266 247.09 23.7734V32.0703C247.09 32.7422 247.152 33.1211 247.277 33.207C247.41 33.2852 247.566 33.3438 247.746 33.3828C247.957 33.4375 248.426 33.4648 249.152 33.4648H249.926V35H240.703L240.656 33.4648H241.43C242.391 33.4648 243.016 33.3906 243.305 33.2422C243.594 33.0859 243.738 32.7109 243.738 32.1172V22.3789C243.738 20.8555 243.242 19.7969 242.25 19.2031C241.719 18.8828 241.125 18.7227 240.469 18.7227ZM255.07 24.1484L255.023 24.8281C255.023 28.3984 256.453 30.7422 259.312 31.8594C260.172 32.1953 261.031 32.3633 261.891 32.3633C262.75 32.3633 263.504 32.2852 264.152 32.1289C264.801 31.9727 265.344 31.7852 265.781 31.5664C266.227 31.3398 266.625 31.1172 266.977 30.8984C267.844 30.3672 268.352 30.1016 268.5 30.1016C268.789 30.1016 268.934 30.2461 268.934 30.5352C268.934 30.8242 268.801 31.1602 268.535 31.543C268.27 31.9258 267.871 32.3516 267.34 32.8203C266.809 33.2812 266.203 33.7188 265.523 34.1328C263.914 35.125 262.141 35.6211 260.203 35.6211C257.57 35.6211 255.469 34.7734 253.898 33.0781C252.242 31.2734 251.414 28.9844 251.414 26.2109C251.414 23.125 252.234 20.6172 253.875 18.6875C255.484 16.7969 257.496 15.8516 259.91 15.8516C262.613 15.8516 264.832 16.9375 266.566 19.1094C267.441 20.2031 267.879 21.1641 267.879 21.9922C267.879 22.2188 267.785 22.3945 267.598 22.5195C267.418 22.6445 267.258 22.707 267.117 22.707L255.07 24.1484ZM255.164 22.4727L263.414 21.418C263.211 20.707 262.883 20.0586 262.43 19.4727C261.977 18.8789 261.625 18.4727 261.375 18.2539C260.773 17.7383 260.051 17.4805 259.207 17.4805C258.363 17.4805 257.543 17.9297 256.746 18.8281C255.949 19.7188 255.422 20.9336 255.164 22.4727ZM284.52 7.44922L284.566 6.19531C284.566 5.66406 284.48 5.31641 284.309 5.15234C284.137 4.98828 283.777 4.90625 283.23 4.90625H280.781L280.734 2.98438H287.977L298.922 28.6133L309.668 2.98438H317.355V4.90625H315.727C314.758 4.90625 314.098 5 313.746 5.1875C313.402 5.36719 313.23 5.78516 313.23 6.44141V30.9219C313.23 31.7734 313.266 32.2695 313.336 32.4102C313.414 32.5508 313.504 32.6719 313.605 32.7734C313.715 32.875 313.828 32.9414 313.945 32.9727C314.07 32.9961 314.25 33.0234 314.484 33.0547C314.766 33.1016 315.32 33.125 316.148 33.125H317.109L317.156 35H305.496L305.449 33.125H306.41C307.777 33.125 308.562 33.0547 308.766 32.9141C308.977 32.7656 309.117 32.5977 309.188 32.4102C309.289 32.1602 309.34 31.6953 309.34 31.0156V8.98438L301.945 26.4102C300.891 28.9102 300.059 30.9492 299.449 32.5273C298.84 34.1055 298.492 34.9688 298.406 35.1172C298.32 35.2656 298.191 35.3398 298.02 35.3398C297.746 35.3398 297.117 34.2031 296.133 31.9297L286.488 9.60547L286.301 31.4961C286.301 32.0586 286.395 32.4492 286.582 32.668C286.77 32.8867 287.203 33.0195 287.883 33.0664C288.562 33.1055 289.633 33.125 291.094 33.125V35H280.734V33.125H281.215C282.559 33.125 283.324 33.0547 283.512 32.9141C283.707 32.7656 283.844 32.5898 283.922 32.3867C284.016 32.1367 284.07 31.6328 284.086 30.875L284.52 7.44922ZM319.617 25.6133C319.617 24.6133 319.734 23.6406 319.969 22.6953C320.203 21.75 320.57 20.8555 321.07 20.0117C321.578 19.1602 322.195 18.4219 322.922 17.7969C324.516 16.4375 326.582 15.7578 329.121 15.7578C332.27 15.7578 334.719 16.6797 336.469 18.5234C338.297 20.4375 339.211 22.9844 339.211 26.1641C339.211 28.8906 338.32 31.1562 336.539 32.9609C334.711 34.7969 332.273 35.7148 329.227 35.7148C325.617 35.7148 322.922 34.2383 321.141 31.2852C320.125 29.6055 319.617 27.7148 319.617 25.6133ZM323.461 24.2891C323.461 25.3047 323.555 26.2617 323.742 27.1602C323.93 28.0508 324.207 28.8984 324.574 29.7031C324.949 30.5 325.387 31.2109 325.887 31.8359C326.395 32.4531 326.988 32.9453 327.668 33.3125C328.355 33.6719 329.082 33.8516 329.848 33.8516C330.613 33.8516 331.301 33.707 331.91 33.418C332.52 33.1289 333.023 32.7383 333.422 32.2461C333.828 31.7539 334.164 31.1719 334.43 30.5C334.93 29.25 335.18 27.8398 335.18 26.2695C335.18 24.6992 335.004 23.3555 334.652 22.2383C334.309 21.1133 333.836 20.2031 333.234 19.5078C332 18.0938 330.488 17.3867 328.699 17.3867C327.262 17.3867 326.039 17.9805 325.031 19.168C323.984 20.4102 323.461 22.1172 323.461 24.2891ZM355.523 22.3789C355.523 21.043 355.277 20.1016 354.785 19.5547C354.301 19 353.434 18.7227 352.184 18.7227C350.941 18.7227 349.289 19.2383 347.227 20.2695V32.3281C347.227 32.7266 347.312 32.9922 347.484 33.125C347.656 33.2578 347.801 33.332 347.918 33.3477C348.035 33.3633 348.207 33.3828 348.434 33.4062C348.723 33.4453 349.277 33.4648 350.098 33.4648H350.73L350.625 35H341.273L341.227 33.4648C341.625 33.4648 341.969 33.4648 342.258 33.4648C342.547 33.4648 342.777 33.4531 342.949 33.4297C343.129 33.3984 343.258 33.375 343.336 33.3594C343.422 33.3438 343.504 33.2969 343.582 33.2188C343.668 33.1406 343.723 33.0781 343.746 33.0312C343.777 32.9844 343.805 32.8867 343.828 32.7383C343.852 32.582 343.863 32.4531 343.863 32.3516V20.4102C343.863 19.3867 343.82 18.7305 343.734 18.4414C343.656 18.1523 343.457 18.0078 343.137 18.0078C343.051 18.0078 342.445 18.1367 341.32 18.3945V16.9062L347.227 15.6992C347.125 16.9414 347.074 18.0781 347.074 19.1094C347.184 19.0625 347.402 18.918 347.73 18.6758C348.066 18.4258 348.445 18.1602 348.867 17.8789C349.297 17.5977 349.781 17.3125 350.32 17.0234C351.57 16.3672 352.707 16.0391 353.73 16.0391C354.754 16.0391 355.508 16.1211 355.992 16.2852C356.484 16.4492 356.887 16.6523 357.199 16.8945C357.52 17.1289 357.789 17.4688 358.008 17.9141C358.234 18.3516 358.402 18.7539 358.512 19.1211C358.629 19.4805 358.719 19.9727 358.781 20.5977C358.852 21.3867 358.887 22.4453 358.887 23.7734V32.0234C358.887 32.7031 359.062 33.1133 359.414 33.2539C359.773 33.3945 360.574 33.4648 361.816 33.4648L361.77 35H352.84L352.793 33.4648H353.895C354.73 33.4648 355.195 33.3789 355.289 33.207C355.445 32.918 355.523 32.5234 355.523 32.0234V22.3789ZM363.035 18.8281C362.652 18.8281 362.461 18.6992 362.461 18.4414C362.461 18.2695 362.871 17.7422 363.691 16.8594C364.512 15.9766 365.059 15.3828 365.332 15.0781C365.605 14.7656 366.008 14.2734 366.539 13.6016C367.672 12.1562 368.297 11.4336 368.414 11.4336C368.609 11.4336 368.707 11.5469 368.707 11.7734V16.5195H375.188L374.895 18.8281H368.707V30.0078C368.707 31.4453 369.391 32.3438 370.758 32.7031C371.117 32.7969 371.539 32.8438 372.023 32.8438C372.516 32.8438 373.031 32.7695 373.57 32.6211C374.117 32.4648 374.555 32.3125 374.883 32.1641C375.211 32.0078 375.391 31.9297 375.422 31.9297C375.648 31.9297 375.762 32.1172 375.762 32.4922C375.762 32.8594 375.461 33.2891 374.859 33.7812C374.266 34.2734 373.516 34.6875 372.609 35.0234C371.703 35.3594 370.84 35.5273 370.02 35.5273C369.207 35.5273 368.492 35.3945 367.875 35.1289C367.258 34.8633 366.77 34.4922 366.41 34.0156C365.699 33.0703 365.344 31.8633 365.344 30.3945V18.8281H363.035ZM379.383 23.0938C378.641 23.0938 378.27 22.5195 378.27 21.3711C378.27 20.6289 378.645 19.7734 379.395 18.8047C380.84 16.9297 383.266 15.9922 386.672 15.9922C388.609 15.9922 389.906 16.6953 390.562 18.1016C390.789 18.5938 390.902 19.1719 390.902 19.8359V28.8125C390.902 30.2656 391.172 31.2969 391.711 31.9062C392.219 32.4688 392.988 32.8906 394.02 33.1719C394.309 33.25 394.453 33.3828 394.453 33.5703C394.453 33.7578 394.25 33.9766 393.844 34.2266C392.125 35.2656 391.223 35.7969 391.137 35.8203C390.426 35.3203 389.906 34.8789 389.578 34.4961C389.172 34.0352 388.621 33.3555 387.926 32.457C387.285 33.3242 386.441 34.0547 385.395 34.6484C384.355 35.2344 383.445 35.5273 382.664 35.5273C381.891 35.5273 381.254 35.457 380.754 35.3164C380.254 35.1758 379.785 34.9648 379.348 34.6836C378.379 34.0586 377.895 33.1133 377.895 31.8477C377.895 30.5742 378.316 29.375 379.16 28.25C380.004 27.125 381.168 26.2266 382.652 25.5547C384.145 24.875 385.773 24.5352 387.539 24.5352V21.6523C387.539 20.2773 387.266 19.3594 386.719 18.8984C386.203 18.4609 385.516 18.2422 384.656 18.2422C383.805 18.2422 383.129 18.293 382.629 18.3945C382.129 18.4961 381.75 18.6211 381.492 18.7695C380.945 19.082 380.594 19.4023 380.438 19.7305C380.484 19.9414 380.551 20.2031 380.637 20.5156C380.824 21.1875 380.918 21.6641 380.918 21.9453C380.918 22.2266 380.727 22.4883 380.344 22.7305C379.969 22.9727 379.648 23.0938 379.383 23.0938ZM381.246 30.6172C381.246 31.25 381.477 31.7969 381.938 32.2578C382.406 32.7109 383.023 32.9375 383.789 32.9375C384.555 32.9375 385.145 32.8789 385.559 32.7617C385.98 32.6445 386.312 32.4961 386.555 32.3164C386.797 32.1367 386.996 31.9219 387.152 31.6719C387.41 31.2734 387.539 30.8164 387.539 30.3008V25.8359C385.602 25.8359 384.051 26.3477 382.887 27.3711C381.793 28.332 381.246 29.4141 381.246 30.6172ZM396.996 17.7148L395.414 17.8672V16.4258C397.883 16.1992 399.832 15.957 401.262 15.6992V27.6992C401.262 29.7461 401.602 31.1094 402.281 31.7891C402.914 32.4219 403.902 32.7383 405.246 32.7383C407.223 32.7383 408.664 32.1328 409.57 30.9219V19.2031C409.57 18.6016 409.496 18.2148 409.348 18.043C409.207 17.8633 408.996 17.7734 408.715 17.7734C408.441 17.7734 408.133 17.7891 407.789 17.8203C406.977 17.8984 406.547 17.9609 406.5 18.0078L406.359 16.5195C408.141 16.4023 410.332 16.1289 412.934 15.6992V29.668C412.934 31.793 413.008 32.9492 413.156 33.1367C413.328 33.3555 413.535 33.4648 413.777 33.4648C414.02 33.4648 414.746 33.2891 415.957 32.9375V34.4727C414.816 34.707 413.633 34.9961 412.406 35.3398C411.188 35.6914 410.402 35.9141 410.051 36.0078C410.004 34.8672 409.891 33.7305 409.711 32.5977C408.531 33.8945 407.117 34.8203 405.469 35.375C404.812 35.6016 404.164 35.7148 403.523 35.7148C402.883 35.7148 402.289 35.6406 401.742 35.4922C401.195 35.3516 400.727 35.1562 400.336 34.9062C399.953 34.6562 399.617 34.3477 399.328 33.9805C399.039 33.6055 398.805 33.2148 398.625 32.8086C398.445 32.3945 398.301 31.9297 398.191 31.4141C398.004 30.5391 397.91 29.5273 397.91 28.3789V18.9219C397.91 18.4375 397.844 18.1172 397.711 17.9609C397.578 17.7969 397.34 17.7148 396.996 17.7148ZM417.586 1.44922C420.781 0.816406 422.859 0.398438 423.82 0.195312V25.4023L432.609 18.2422C432.828 18.0703 432.938 17.9297 432.938 17.8203C432.938 17.5938 432.602 17.4805 431.93 17.4805H430.488V16.1797H438.223L438.176 17.4805H437.449C436.949 17.4805 436.523 17.543 436.172 17.668C435.828 17.793 435.375 18.082 434.812 18.5352L427.992 23.9609L435.152 32.3164C435.246 32.4258 435.367 32.5742 435.516 32.7617C435.664 32.9414 435.762 33.0508 435.809 33.0898C435.855 33.1289 435.926 33.1914 436.02 33.2773C436.113 33.3555 436.211 33.3984 436.312 33.4062C436.422 33.4141 436.551 33.4258 436.699 33.4414C436.848 33.457 437.051 33.4648 437.309 33.4648H438.609L438.562 35H432.891L425.402 25.7891L423.727 27.0781V32.2695C423.727 32.8242 423.867 33.1641 424.148 33.2891C424.422 33.4062 425.113 33.4648 426.223 33.4648H427.523L427.57 35H417.727V33.4648C418.148 33.4648 418.508 33.4648 418.805 33.4648C419.102 33.4648 419.34 33.457 419.52 33.4414C419.707 33.4258 419.84 33.4141 419.918 33.4062C420.004 33.3906 420.09 33.3594 420.176 33.3125C420.262 33.2656 420.316 33.2266 420.34 33.1953C420.363 33.1641 420.387 33.0977 420.41 32.9961C420.441 32.8945 420.457 32.8125 420.457 32.75V4.8125C420.457 3.92188 420.414 3.32422 420.328 3.01953C420.25 2.70703 420.07 2.55078 419.789 2.55078C419.508 2.55078 418.805 2.69531 417.68 2.98438L417.586 1.44922Z" fill="#079EA8"/>
</svg>
