<svg width="587" height="66" viewBox="0 0 587 66" fill="none" xmlns="http://www.w3.org/2000/svg">
<path fill-rule="evenodd" clip-rule="evenodd" d="M0 33C0 14.85 13.95 0 31 0C48.205 0 62 14.85 62 33C62 51.15 48.05 66 31 66C13.95 66 0 51.15 0 33ZM42.625 48.345C43.5576 49.005 44.6426 48.6722 45.2626 47.685C45.7224 46.6922 45.57 45.375 44.485 44.88C36.425 39.6 26.195 38.4422 14.415 41.25C13.485 41.58 12.71 42.5672 13.02 43.725C13.33 44.715 14.2626 45.5427 15.3424 45.2072C26.195 42.5672 35.34 43.56 42.625 48.345ZM45.7224 39.435C46.81 40.26 48.205 39.765 48.9826 38.61C49.755 37.455 49.2926 35.8078 48.36 35.31C38.75 29.0427 24.8 27.225 13.485 30.8522C12.245 31.1822 11.625 32.67 11.935 33.99C12.245 35.31 13.6426 35.97 14.88 35.64C24.645 32.34 37.355 33.99 45.7224 39.435ZM13.33 25.5777C22.785 22.44 39.37 23.1 49.2926 29.37C50.685 30.1923 52.5476 29.7028 53.32 28.545C54.095 27.06 53.63 25.08 52.2376 24.255C40.765 16.9922 22.63 16.3323 11.625 19.7972C10.23 20.295 9.3 21.9422 9.765 23.595C10.23 25.08 11.78 26.07 13.33 25.5777ZM78.75 42.125H78.1758L78.2227 44H87.5273V42.125H85.5586C84.7383 42.125 84.2031 42.082 83.9531 41.9961C83.7109 41.9102 83.5898 41.7148 83.5898 41.4102C83.5898 41.1055 83.75 40.5625 84.0703 39.7812L87.8672 31.332H99L102.551 40.0625C102.582 40.1484 102.668 40.375 102.809 40.7422C102.957 41.1016 103.031 41.3711 103.031 41.5508C103.031 41.8008 102.879 41.9609 102.574 42.0312C102.27 42.0938 101.719 42.125 100.922 42.125H99.4805L99.4336 44H110.379L110.426 42.125H109.711C109.125 42.125 108.664 42.0508 108.328 41.9023C108 41.7539 107.68 41.3867 107.367 40.8008C107.055 40.2148 105.418 36.3398 102.457 29.1758C99.4961 22.0039 97.0469 15.8906 95.1094 10.8359H94.1016L89.2148 22.7305C89.082 23.0352 88.9609 23.3164 88.8516 23.5742C88.7422 23.832 88.5391 24.2852 88.2422 24.9336C87.9453 25.5742 87.5938 26.3438 87.1875 27.2422C86.7812 28.1406 86.1211 29.6094 85.207 31.6484C84.293 33.6797 83.5352 35.3633 82.9336 36.6992C82.3398 38.0273 81.8516 39.1172 81.4688 39.9688C81.0938 40.8125 80.7617 41.3828 80.4727 41.6797C80.1836 41.9766 79.6094 42.125 78.75 42.125ZM98.1914 29.2109H88.7812L93.6328 17.8438L98.1914 29.2109ZM126.082 28.5547C126.574 29.1016 126.82 30.043 126.82 31.3789V41.0234C126.82 41.5234 126.742 41.918 126.586 42.207C126.492 42.3789 126.027 42.4648 125.191 42.4648H124.09L124.137 44H133.066L133.113 42.4648C131.871 42.4648 131.07 42.3945 130.711 42.2539C130.359 42.1133 130.184 41.7031 130.184 41.0234V32.7734C130.184 31.4453 130.148 30.3867 130.078 29.5977C130.016 28.9727 129.926 28.4805 129.809 28.1211C129.699 27.7539 129.531 27.3516 129.305 26.9141C129.086 26.4688 128.816 26.1289 128.496 25.8945C128.184 25.6523 127.781 25.4492 127.289 25.2852C126.805 25.1211 126.051 25.0391 125.027 25.0391C124.004 25.0391 122.867 25.3672 121.617 26.0234C121.078 26.3125 120.594 26.5977 120.164 26.8789C119.742 27.1602 119.363 27.4258 119.027 27.6758C118.699 27.918 118.48 28.0625 118.371 28.1094C118.371 27.0781 118.422 25.9414 118.523 24.6992L112.617 25.9062V27.3945C113.742 27.1367 114.348 27.0078 114.434 27.0078C114.754 27.0078 114.953 27.1523 115.031 27.4414C115.117 27.7305 115.16 28.3867 115.16 29.4102V41.3516C115.16 41.4531 115.148 41.582 115.125 41.7383C115.102 41.8867 115.074 41.9844 115.043 42.0312C115.02 42.0781 114.965 42.1406 114.879 42.2188C114.801 42.2969 114.719 42.3438 114.633 42.3594C114.555 42.375 114.426 42.3984 114.246 42.4297C114.074 42.4531 113.844 42.4648 113.555 42.4648H112.523L112.57 44H121.922L122.027 42.4648H121.395C120.574 42.4648 120.02 42.4453 119.73 42.4062C119.504 42.3828 119.332 42.3633 119.215 42.3477C119.098 42.332 118.953 42.2578 118.781 42.125C118.609 41.9922 118.523 41.7266 118.523 41.3281V29.2695C120.586 28.2383 122.238 27.7227 123.48 27.7227C124.73 27.7227 125.598 28 126.082 28.5547ZM141.984 24.5117C139.852 25.0898 137.598 25.5703 135.223 25.9531L135.27 27.3945C136.582 27.1367 137.418 27.0078 137.777 27.0078C138.137 27.0078 138.367 27.1133 138.469 27.3242C138.57 27.5273 138.621 27.9336 138.621 28.543V41.3633C138.621 41.7383 138.5 42.0391 138.258 42.2656C138.109 42.3984 137.305 42.4648 135.844 42.4648H135.41V44H145.828V42.4648H144.961C143.625 42.4648 142.773 42.3906 142.406 42.2422C142.125 42.1328 141.984 41.7734 141.984 41.1641V24.5117ZM139.523 16.8242C140 17.3789 140.406 17.6562 140.742 17.6562C141.078 17.6562 141.52 17.3828 142.066 16.8359C142.621 16.2891 142.898 15.8477 142.898 15.5117C142.898 15.168 142.625 14.7422 142.078 14.2344C141.539 13.7266 141.113 13.4727 140.801 13.4727C140.496 13.4727 140.09 13.7148 139.582 14.1992C139.074 14.6836 138.82 15.1016 138.82 15.4531C138.82 15.8047 139.055 16.2617 139.523 16.8242ZM147.445 27.4883C149.125 27.168 149.988 27.0078 150.035 27.0078C150.395 27.0078 150.609 27.1562 150.68 27.4531C150.758 27.75 150.797 28.4219 150.797 29.4688V41.4102C150.797 41.8711 150.676 42.1641 150.434 42.2891C150.199 42.4062 149.684 42.4648 148.887 42.4648H147.539L147.586 44H156.949V42.4648H156.703C155.789 42.4648 155.203 42.4453 154.945 42.4062C154.727 42.3672 154.539 42.3203 154.383 42.2656C154.234 42.2109 154.16 41.9258 154.16 41.4102V29.2695C155.746 28.2383 157.148 27.7227 158.367 27.7227C159.594 27.7227 160.445 28.0273 160.922 28.6367C161.406 29.2383 161.648 30.1523 161.648 31.3789V41.6914C161.648 42.0352 161.496 42.25 161.191 42.3359C160.887 42.4219 160.238 42.4648 159.246 42.4648H158.672L158.719 44H167.836V42.4648H167.414C166.648 42.4648 166.117 42.4531 165.82 42.4297C165.609 42.4062 165.422 42.3633 165.258 42.3008C165.094 42.2383 165.012 42.0195 165.012 41.6445V32.7734C165.012 31.4609 164.945 30.3086 164.812 29.3164C165.297 28.9414 165.898 28.5977 166.617 28.2852C166.984 28.1289 167.43 27.9961 167.953 27.8867C168.484 27.7773 169.016 27.7227 169.547 27.7227C170.086 27.7227 170.523 27.7734 170.859 27.875C171.953 28.1875 172.5 29.3555 172.5 31.3789V41.3164C172.5 41.8711 172.352 42.2031 172.055 42.3125C171.766 42.4141 170.969 42.4648 169.664 42.4648V44H178.98V42.4648H178.5C177.266 42.4648 176.523 42.4102 176.273 42.3008C175.992 42.1836 175.852 41.8398 175.852 41.2695V31.3789C175.852 30.4336 175.797 29.6328 175.688 28.9766C175.617 28.5156 175.52 28.1133 175.395 27.7695C175.277 27.4258 175.102 27.0742 174.867 26.7148C174.641 26.3555 174.367 26.0625 174.047 25.8359C173.734 25.6016 173.34 25.4102 172.863 25.2617C172.387 25.1133 171.852 25.0391 171.258 25.0391C170.664 25.0391 169.891 25.1836 168.938 25.4727C167.992 25.7617 166.539 26.6406 164.578 28.1094C164.484 27.7422 164.305 27.3359 164.039 26.8906C163.844 26.5469 163.617 26.2539 163.359 26.0117C163.109 25.7617 162.758 25.5391 162.305 25.3438C161.859 25.1406 161.207 25.0391 160.348 25.0391C159.496 25.0391 158.477 25.3672 157.289 26.0234C156.766 26.3047 156.297 26.5859 155.883 26.8672C155.477 27.1406 155.098 27.4102 154.746 27.6758C154.395 27.9414 154.168 28.1016 154.066 28.1562C154.066 26.9062 154.098 25.7383 154.16 24.6523L152.941 24.9219C150.418 25.4766 148.586 25.8359 147.445 26V27.4883ZM184.102 33.8281L184.148 33.1484L196.195 31.707C196.336 31.707 196.496 31.6445 196.676 31.5195C196.863 31.3945 196.957 31.2188 196.957 30.9922C196.957 30.1641 196.52 29.2031 195.645 28.1094C193.91 25.9375 191.691 24.8516 188.988 24.8516C186.574 24.8516 184.562 25.7969 182.953 27.6875C181.312 29.6172 180.492 32.125 180.492 35.2109C180.492 37.9844 181.32 40.2734 182.977 42.0781C184.547 43.7734 186.648 44.6211 189.281 44.6211C191.219 44.6211 192.992 44.125 194.602 43.1328C195.281 42.7188 195.887 42.2812 196.418 41.8203C196.949 41.3516 197.348 40.9258 197.613 40.543C197.879 40.1602 198.012 39.8242 198.012 39.5352C198.012 39.2461 197.867 39.1016 197.578 39.1016C197.43 39.1016 196.922 39.3672 196.055 39.8984C195.703 40.1172 195.305 40.3398 194.859 40.5664C194.422 40.7852 193.879 40.9727 193.23 41.1289C192.582 41.2852 191.828 41.3633 190.969 41.3633C190.109 41.3633 189.25 41.1953 188.391 40.8594C185.531 39.7422 184.102 37.3984 184.102 33.8281ZM192.492 30.418L184.242 31.4727C184.5 29.9336 185.027 28.7188 185.824 27.8281C186.621 26.9297 187.441 26.4805 188.285 26.4805C189.129 26.4805 189.852 26.7383 190.453 27.2539C190.703 27.4727 191.055 27.8789 191.508 28.4727C191.961 29.0586 192.289 29.707 192.492 30.418ZM209.332 42.125V44H222.094V42.125H219.691C218.199 42.125 217.25 42.0469 216.844 41.8906C216.57 41.7891 216.434 41.4023 216.434 40.7305V30.3711C216.441 30.3711 216.574 30.4062 216.832 30.4766C219.035 31.0781 221.156 31.3789 223.195 31.3789C225.867 31.3789 228.055 30.7578 229.758 29.5156C232.141 27.7734 233.332 25.4805 233.332 22.6367C233.332 20.8164 232.961 19.1836 232.219 17.7383C231.477 16.2852 230.582 15.1367 229.535 14.293C228.488 13.4414 227.207 12.8008 225.691 12.3711C224.785 12.1133 222.691 11.9844 219.41 11.9844H209.52L209.473 13.9062H210.715C211.48 13.9062 211.992 14.0039 212.25 14.1992C212.445 14.3555 212.543 14.832 212.543 15.6289V40.7305C212.543 41.1836 212.516 41.4844 212.461 41.6328C212.422 41.7656 212.336 41.8828 212.203 41.9844C212.07 42.0781 211.609 42.125 210.82 42.125H209.332ZM221.203 29.8438C218.836 29.8438 217.246 29.5391 216.434 28.9297V16.1094C216.434 15.125 216.555 14.4844 216.797 14.1875C216.953 14 217.312 13.9062 217.875 13.9062C220.336 13.9062 222.477 14.3789 224.297 15.3242C227.312 16.8867 228.82 19.293 228.82 22.543C228.82 24.9258 228.141 26.7383 226.781 27.9805C225.43 29.2227 223.57 29.8438 221.203 29.8438ZM243.328 9.14844C241.352 9.51562 239 9.88672 236.273 10.2617L236.367 11.8906C237.93 11.5703 238.871 11.4102 239.191 11.4102C239.512 11.4102 239.719 11.5547 239.812 11.8438C239.914 12.1328 239.965 12.7891 239.965 13.8125V41.1641C239.965 41.7266 239.816 42.0859 239.52 42.2422C239.23 42.3906 238.66 42.4648 237.809 42.4648H236.754V44H247.219V42.4648H246.398C245.086 42.4648 244.246 42.3945 243.879 42.2539C243.512 42.1055 243.328 41.7422 243.328 41.1641V9.14844ZM249.691 30.3711C249.691 31.5195 250.062 32.0938 250.805 32.0938C251.07 32.0938 251.391 31.9727 251.766 31.7305C252.148 31.4883 252.34 31.2266 252.34 30.9453C252.34 30.6641 252.246 30.1875 252.059 29.5156C251.973 29.2031 251.906 28.9414 251.859 28.7305C252.016 28.4023 252.367 28.082 252.914 27.7695C253.172 27.6211 253.551 27.4961 254.051 27.3945C254.551 27.293 255.227 27.2422 256.078 27.2422C256.938 27.2422 257.625 27.4609 258.141 27.8984C258.688 28.3594 258.961 29.2773 258.961 30.6523V33.5352C257.195 33.5352 255.566 33.875 254.074 34.5547C252.59 35.2266 251.426 36.125 250.582 37.25C249.738 38.375 249.316 39.5742 249.316 40.8477C249.316 42.1133 249.801 43.0586 250.77 43.6836C251.207 43.9648 251.676 44.1758 252.176 44.3164C252.676 44.457 253.312 44.5273 254.086 44.5273C254.867 44.5273 255.777 44.2344 256.816 43.6484C257.863 43.0547 258.707 42.3242 259.348 41.457C260.043 42.3555 260.594 43.0352 261 43.4961C261.328 43.8789 261.848 44.3203 262.559 44.8203C262.645 44.7969 263.547 44.2656 265.266 43.2266C265.672 42.9766 265.875 42.7578 265.875 42.5703C265.875 42.3828 265.73 42.25 265.441 42.1719C264.41 41.8906 263.641 41.4688 263.133 40.9062C262.594 40.2969 262.324 39.2656 262.324 37.8125V28.8359C262.324 28.1719 262.211 27.5938 261.984 27.1016C261.328 25.6953 260.031 24.9922 258.094 24.9922C254.688 24.9922 252.262 25.9297 250.816 27.8047C250.066 28.7734 249.691 29.6289 249.691 30.3711ZM253.359 41.2578C252.898 40.7969 252.668 40.25 252.668 39.6172C252.668 38.4141 253.215 37.332 254.309 36.3711C255.473 35.3477 257.023 34.8359 258.961 34.8359V39.3008C258.961 39.8164 258.832 40.2734 258.574 40.6719C258.418 40.9219 258.219 41.1367 257.977 41.3164C257.734 41.4961 257.402 41.6445 256.98 41.7617C256.566 41.8789 255.977 41.9375 255.211 41.9375C254.445 41.9375 253.828 41.7109 253.359 41.2578ZM268.816 52.3555L267.422 52.2617C266.883 52.2617 266.445 52.4258 266.109 52.7539C265.773 53.0898 265.605 53.582 265.605 54.2305C265.605 54.8789 265.777 55.4062 266.121 55.8125C266.473 56.2266 266.938 56.4336 267.516 56.4336C268.094 56.4336 268.605 56.3359 269.051 56.1406C270.699 55.4375 272.988 51.8555 275.918 45.3945L283.219 29.2695C283.406 28.8555 283.586 28.4414 283.758 28.0273C283.805 27.9258 283.871 27.7852 283.957 27.6055C284.051 27.4258 284.117 27.3125 284.156 27.2656C284.203 27.2188 284.273 27.1445 284.367 27.043C284.461 26.9414 284.543 26.8828 284.613 26.8672C284.691 26.8516 284.801 26.8242 284.941 26.7852C285.082 26.7383 285.371 26.7148 285.809 26.7148H286.957V25.1797H279.141V26.7148H279.809C280.621 26.7148 281.176 26.7578 281.473 26.8438C281.77 26.9219 281.918 27.125 281.918 27.4531C281.918 27.7734 281.391 29.0977 280.336 31.4258L277.312 38.2344L273.234 29.0703C273.203 28.9922 273.141 28.8516 273.047 28.6484C272.961 28.4375 272.895 28.2773 272.848 28.168C272.809 28.0586 272.766 27.9297 272.719 27.7812C272.68 27.625 272.66 27.4492 272.66 27.2539C272.66 27.0586 272.785 26.9219 273.035 26.8438C273.285 26.7578 273.719 26.7148 274.336 26.7148H275.156L275.25 25.1797H266.086L266.18 26.7148H266.906C267.086 26.7148 267.273 26.7305 267.469 26.7617C267.672 26.793 267.816 26.8164 267.902 26.832C267.988 26.8398 268.098 26.8945 268.23 26.9961C268.363 27.0898 268.449 27.1602 268.488 27.207C268.527 27.2461 268.602 27.3594 268.711 27.5469C268.828 27.7266 268.906 27.8711 268.945 27.9805C268.984 28.082 269.07 28.2812 269.203 28.5781C269.344 28.875 269.457 29.1211 269.543 29.3164L275.543 42.2188L274.102 45.0078C272.695 47.7266 271.59 49.6289 270.785 50.7148C269.98 51.8086 269.324 52.3555 268.816 52.3555ZM295.172 9.14844C293.195 9.51562 290.844 9.88672 288.117 10.2617L288.211 11.8906C289.773 11.5703 290.715 11.4102 291.035 11.4102C291.355 11.4102 291.562 11.5547 291.656 11.8438C291.758 12.1328 291.809 12.7891 291.809 13.8125V41.1641C291.809 41.7266 291.66 42.0859 291.363 42.2422C291.074 42.3906 290.504 42.4648 289.652 42.4648H288.598V44H299.062V42.4648H298.242C296.93 42.4648 296.09 42.3945 295.723 42.2539C295.355 42.1055 295.172 41.7422 295.172 41.1641V9.14844ZM307.922 24.5117C305.789 25.0898 303.535 25.5703 301.16 25.9531L301.207 27.3945C302.52 27.1367 303.355 27.0078 303.715 27.0078C304.074 27.0078 304.305 27.1133 304.406 27.3242C304.508 27.5273 304.559 27.9336 304.559 28.543V41.3633C304.559 41.7383 304.438 42.0391 304.195 42.2656C304.047 42.3984 303.242 42.4648 301.781 42.4648H301.348V44H311.766V42.4648H310.898C309.562 42.4648 308.711 42.3906 308.344 42.2422C308.062 42.1328 307.922 41.7734 307.922 41.1641V24.5117ZM305.461 16.8242C305.938 17.3789 306.344 17.6562 306.68 17.6562C307.016 17.6562 307.457 17.3828 308.004 16.8359C308.559 16.2891 308.836 15.8477 308.836 15.5117C308.836 15.168 308.562 14.7422 308.016 14.2344C307.477 13.7266 307.051 13.4727 306.738 13.4727C306.434 13.4727 306.027 13.7148 305.52 14.1992C305.012 14.6836 304.758 15.1016 304.758 15.4531C304.758 15.8047 304.992 16.2617 305.461 16.8242ZM315.879 45.1016L315.832 44.6211C315.832 44.207 315.973 44 316.254 44C316.316 44 316.844 44.1016 317.836 44.3047C318.836 44.5156 319.879 44.6211 320.965 44.6211C323.004 44.6211 324.566 44.0703 325.652 42.9688C326.152 42.4609 326.535 41.8867 326.801 41.2461C327.066 40.5977 327.199 39.8828 327.199 39.1016C327.199 38.3203 327 37.6094 326.602 36.9688C326.391 36.6328 326.102 36.25 325.734 35.8203C325.375 35.3828 324.457 34.668 322.98 33.6758L320.824 32.2344C320.441 31.9844 320.164 31.7891 319.992 31.6484C319.938 31.6094 319.812 31.5195 319.617 31.3789C319.43 31.2383 319.309 31.1445 319.254 31.0977C319.207 31.043 319.109 30.9492 318.961 30.8164C318.82 30.6836 318.727 30.5781 318.68 30.5C318.641 30.4219 318.547 30.2773 318.398 30.0664C318.25 29.8477 318.176 29.5 318.176 29.0234C318.176 28.3906 318.457 27.8477 319.02 27.3945C319.59 26.9414 320.188 26.7148 320.812 26.7148C321.438 26.7148 322.008 26.7734 322.523 26.8906C323.922 27.1875 324.891 27.6602 325.43 28.3086L325.477 31.707H327.012V24.4648L325.477 24.418C325.477 25.3789 325.352 25.8594 325.102 25.8594C324.961 25.8594 324.707 25.7891 324.34 25.6484C323.973 25.5 323.477 25.3555 322.852 25.2148C322.234 25.0664 321.48 24.9922 320.59 24.9922C319.699 24.9922 318.801 25.2109 317.895 25.6484C316.996 26.0859 316.289 26.6758 315.773 27.418C315.266 28.1523 315.012 28.9453 315.012 29.7969C315.012 31.7812 316.211 33.5547 318.609 35.1172L320.344 36.2773C321.164 36.8086 321.805 37.2656 322.266 37.6484C322.586 37.9297 322.832 38.1914 323.004 38.4336C323.184 38.668 323.336 38.9453 323.461 39.2656C323.586 39.5859 323.648 39.9961 323.648 40.4961C323.648 40.9961 323.43 41.5273 322.992 42.0898C322.773 42.3633 322.48 42.582 322.113 42.7461C321.746 42.9102 321.32 42.9922 320.836 42.9922C320.352 42.9922 319.594 42.8672 318.562 42.6172C317.539 42.3672 316.547 41.8672 315.586 41.1172L315.105 37.1328L313.617 37.2266L314.484 45.1953L315.879 45.1016ZM330.258 27.4414C330.258 27.6992 330.449 27.8281 330.832 27.8281H333.141V39.3945C333.141 40.8633 333.496 42.0703 334.207 43.0156C334.566 43.4922 335.055 43.8633 335.672 44.1289C336.289 44.3945 337.004 44.5273 337.816 44.5273C338.637 44.5273 339.5 44.3594 340.406 44.0234C341.312 43.6875 342.062 43.2734 342.656 42.7812C343.258 42.2891 343.559 41.8594 343.559 41.4922C343.559 41.1172 343.445 40.9297 343.219 40.9297C343.188 40.9297 343.008 41.0078 342.68 41.1641C342.352 41.3125 341.914 41.4648 341.367 41.6211C340.828 41.7695 340.312 41.8438 339.82 41.8438C339.336 41.8438 338.914 41.7969 338.555 41.7031C337.188 41.3438 336.504 40.4453 336.504 39.0078V27.8281H342.691L342.984 25.5195H336.504V20.7734C336.504 20.5469 336.406 20.4336 336.211 20.4336C336.094 20.4336 335.469 21.1562 334.336 22.6016C333.805 23.2734 333.402 23.7656 333.129 24.0781C332.855 24.3828 332.309 24.9766 331.488 25.8594C330.668 26.7422 330.258 27.2695 330.258 27.4414ZM392.895 41.0234C392.895 40.6719 392.734 40.4961 392.414 40.4961C392.266 40.4961 392.055 40.5391 391.781 40.625C390.211 41.1328 388.645 41.1328 387.082 40.625C386.809 40.5312 386.449 40.3594 386.004 40.1094C385.559 39.8516 385.25 39.6719 385.078 39.5703C384.914 39.4609 384.566 39.2266 384.035 38.8672C383.512 38.5 383.188 38.2734 383.062 38.1875L383.414 37.6367C383.977 36.7852 384.605 35.5312 385.301 33.875C385.637 33.0703 385.922 32.1602 386.156 31.1445C386.398 30.1289 386.52 28.8906 386.52 27.4297C386.52 25.9609 386.414 24.9062 386.203 24.2656C386.125 24.0234 386.051 23.8203 385.98 23.6562C385.918 23.4844 385.887 23.3555 385.887 23.2695C385.887 23.0117 386.074 22.8555 386.449 22.8008C386.832 22.7383 387.484 22.707 388.406 22.707C389.328 22.6992 389.977 22.6914 390.352 22.6836L390.305 20.8203H377.484L377.59 22.6836C380.27 22.6836 381.953 22.7812 382.641 22.9766C383.656 23.2656 384.164 24.9766 384.164 28.1094C384.164 31.2656 383.203 34.2266 381.281 36.9922L379.98 35.9844C379.934 35.9453 379.621 35.7109 379.043 35.2812C378.473 34.8438 378.016 34.4883 377.672 34.2148C377.336 33.9414 376.828 33.5234 376.148 32.9609C375.469 32.3984 374.715 31.7461 373.887 31.0039C373.059 30.2617 372.199 29.4766 371.309 28.6484C370.418 27.8125 369.754 27.1914 369.316 26.7852C368.879 26.3789 368.035 25.582 366.785 24.3945C365.535 23.207 364.426 21.9688 363.457 20.6797C362.574 19.5 362.133 18.2969 362.133 17.0703C362.133 16.0703 362.535 15.2305 363.34 14.5508C364.152 13.8633 365.086 13.5195 366.141 13.5195C367.195 13.5195 368.125 13.8789 368.93 14.5977C369.742 15.3086 370.148 16.168 370.148 17.1758C370.148 18.1758 369.773 18.8672 369.023 19.25C368.711 19.4141 368.289 19.5859 367.758 19.7656C367.234 19.9453 366.973 20.1211 366.973 20.293C366.973 20.6055 367.273 20.875 367.875 21.1016C368.484 21.3281 369.082 21.4414 369.668 21.4414C370.949 21.4414 371.961 20.9531 372.703 19.9766C373.031 19.5391 373.285 19.0625 373.465 18.5469C373.652 18.0312 373.746 17.4141 373.746 16.6953C373.746 15.9766 373.41 15.207 372.738 14.3867C372.074 13.5586 371.191 12.9023 370.09 12.418C368.988 11.9336 367.824 11.6914 366.598 11.6914C364.043 11.6914 362.016 12.4141 360.516 13.8594C359.836 14.5156 359.309 15.2656 358.934 16.1094C358.566 16.9531 358.383 17.8906 358.383 18.9219C358.383 19.9531 358.887 21.3086 359.895 22.9883C360.457 23.9336 361.059 24.6641 361.699 25.1797C360.449 25.5469 359.367 26.0781 358.453 26.7734C356.391 28.3438 355.359 30.4844 355.359 33.1953C355.359 35.4141 355.906 37.3477 357 38.9961C359.078 42.1211 362.406 44.0312 366.984 44.7266C370 45.1875 372.781 45.0352 375.328 44.2695C377.641 43.582 379.289 42.6445 380.273 41.457L380.742 41.7969C381.516 42.3359 382.695 43.0391 384.281 43.9062C385.281 44.4453 386.25 44.7148 387.188 44.7148C388.789 44.7148 390.141 44.3477 391.242 43.6133C392.344 42.8711 392.895 42.0078 392.895 41.0234ZM360.762 28.2617C361.387 27.3164 362.113 26.7383 362.941 26.5273C364.973 28.668 367.047 30.7188 369.164 32.6797C371.289 34.6406 373.008 36.125 374.32 37.1328L378.445 40.1562C378.438 40.1562 378.383 40.1875 378.281 40.25C376.875 41.2109 374.883 41.6914 372.305 41.6914C370.461 41.6914 368.57 41.2891 366.633 40.4844C365.711 40.0938 364.836 39.6055 364.008 39.0195C363.188 38.4258 362.465 37.7695 361.84 37.0508C361.223 36.332 360.73 35.5117 360.363 34.5898C360.004 33.668 359.824 32.6172 359.824 31.4375C359.824 30.2578 360.137 29.1992 360.762 28.2617ZM404.766 42.125H404.191L404.238 44H413.543V42.125H411.574C410.754 42.125 410.219 42.082 409.969 41.9961C409.727 41.9102 409.605 41.7148 409.605 41.4102C409.605 41.1055 409.766 40.5625 410.086 39.7812L413.883 31.332H425.016L428.566 40.0625C428.598 40.1484 428.684 40.375 428.824 40.7422C428.973 41.1016 429.047 41.3711 429.047 41.5508C429.047 41.8008 428.895 41.9609 428.59 42.0312C428.285 42.0938 427.734 42.125 426.938 42.125H425.496L425.449 44H436.395L436.441 42.125H435.727C435.141 42.125 434.68 42.0508 434.344 41.9023C434.016 41.7539 433.695 41.3867 433.383 40.8008C433.07 40.2148 431.434 36.3398 428.473 29.1758C425.512 22.0039 423.062 15.8906 421.125 10.8359H420.117L415.23 22.7305C415.098 23.0352 414.977 23.3164 414.867 23.5742C414.758 23.832 414.555 24.2852 414.258 24.9336C413.961 25.5742 413.609 26.3438 413.203 27.2422C412.797 28.1406 412.137 29.6094 411.223 31.6484C410.309 33.6797 409.551 35.3633 408.949 36.6992C408.355 38.0273 407.867 39.1172 407.484 39.9688C407.109 40.8125 406.777 41.3828 406.488 41.6797C406.199 41.9766 405.625 42.125 404.766 42.125ZM424.207 29.2109H414.797L419.648 17.8438L424.207 29.2109ZM438.539 27.4883C440.219 27.168 441.082 27.0078 441.129 27.0078C441.488 27.0078 441.703 27.1562 441.773 27.4531C441.852 27.75 441.891 28.4219 441.891 29.4688V41.4102C441.891 41.8711 441.77 42.1641 441.527 42.2891C441.293 42.4062 440.777 42.4648 439.98 42.4648H438.633L438.68 44H448.043V42.4648H447.797C446.883 42.4648 446.297 42.4453 446.039 42.4062C445.82 42.3672 445.633 42.3203 445.477 42.2656C445.328 42.2109 445.254 41.9258 445.254 41.4102V29.2695C446.84 28.2383 448.242 27.7227 449.461 27.7227C450.688 27.7227 451.539 28.0273 452.016 28.6367C452.5 29.2383 452.742 30.1523 452.742 31.3789V41.6914C452.742 42.0352 452.59 42.25 452.285 42.3359C451.98 42.4219 451.332 42.4648 450.34 42.4648H449.766L449.812 44H458.93V42.4648H458.508C457.742 42.4648 457.211 42.4531 456.914 42.4297C456.703 42.4062 456.516 42.3633 456.352 42.3008C456.188 42.2383 456.105 42.0195 456.105 41.6445V32.7734C456.105 31.4609 456.039 30.3086 455.906 29.3164C456.391 28.9414 456.992 28.5977 457.711 28.2852C458.078 28.1289 458.523 27.9961 459.047 27.8867C459.578 27.7773 460.109 27.7227 460.641 27.7227C461.18 27.7227 461.617 27.7734 461.953 27.875C463.047 28.1875 463.594 29.3555 463.594 31.3789V41.3164C463.594 41.8711 463.445 42.2031 463.148 42.3125C462.859 42.4141 462.062 42.4648 460.758 42.4648V44H470.074V42.4648H469.594C468.359 42.4648 467.617 42.4102 467.367 42.3008C467.086 42.1836 466.945 41.8398 466.945 41.2695V31.3789C466.945 30.4336 466.891 29.6328 466.781 28.9766C466.711 28.5156 466.613 28.1133 466.488 27.7695C466.371 27.4258 466.195 27.0742 465.961 26.7148C465.734 26.3555 465.461 26.0625 465.141 25.8359C464.828 25.6016 464.434 25.4102 463.957 25.2617C463.48 25.1133 462.945 25.0391 462.352 25.0391C461.758 25.0391 460.984 25.1836 460.031 25.4727C459.086 25.7617 457.633 26.6406 455.672 28.1094C455.578 27.7422 455.398 27.3359 455.133 26.8906C454.938 26.5469 454.711 26.2539 454.453 26.0117C454.203 25.7617 453.852 25.5391 453.398 25.3438C452.953 25.1406 452.301 25.0391 451.441 25.0391C450.59 25.0391 449.57 25.3672 448.383 26.0234C447.859 26.3047 447.391 26.5859 446.977 26.8672C446.57 27.1406 446.191 27.4102 445.84 27.6758C445.488 27.9414 445.262 28.1016 445.16 28.1562C445.16 26.9062 445.191 25.7383 445.254 24.6523L444.035 24.9219C441.512 25.4766 439.68 25.8359 438.539 26V27.4883ZM473.812 36.5586L473.672 42.9922C473.672 43.7266 473.848 44.0938 474.199 44.0938C474.441 44.0938 474.809 43.9102 475.301 43.543C475.793 43.1758 476.145 42.9922 476.355 42.9922C476.574 42.9922 477.535 43.3047 479.238 43.9297C480.137 44.2656 481.336 44.4336 482.836 44.4336C485.328 44.4336 487.41 43.6875 489.082 42.1953C491.512 40.0156 492.727 37.2266 492.727 33.8281C492.727 31.4141 492.016 29.3438 490.594 27.6172C489.898 26.7734 488.977 26.1016 487.828 25.6016C486.688 25.1016 485.48 24.8516 484.207 24.8516C482.934 24.8516 481.785 25.0703 480.762 25.5078C480.34 25.6875 479.91 25.9102 479.473 26.1758C479.043 26.4336 478.703 26.6602 478.453 26.8555C478.211 27.043 477.949 27.25 477.668 27.4766C477.395 27.7031 477.23 27.8359 477.176 27.875V9.30078C473.645 10.0039 471.34 10.4492 470.262 10.6367L470.402 12.125C471.98 11.7734 472.895 11.5977 473.145 11.5977C473.59 11.5977 473.812 12.0781 473.812 13.0391V36.5586ZM477.176 29.2109C478.574 28.0312 480.414 27.4414 482.695 27.4414C483.266 27.4414 483.879 27.5391 484.535 27.7344C484.98 27.8672 485.402 28.043 485.801 28.2617C486.207 28.4727 486.629 28.7852 487.066 29.1992C487.504 29.6133 487.879 30.0938 488.191 30.6406C488.504 31.1875 488.762 31.8867 488.965 32.7383C489.168 33.582 489.27 34.6758 489.27 36.0195C489.27 37.3555 488.965 38.5625 488.355 39.6406C488.082 40.1172 487.75 40.543 487.359 40.918C486.969 41.293 486.566 41.5898 486.152 41.8086C485.746 42.0273 485.305 42.207 484.828 42.3477C484.359 42.4883 483.926 42.582 483.527 42.6289C483.129 42.6758 482.672 42.6992 482.156 42.6992C481.648 42.6992 481.102 42.6289 480.516 42.4883C478.289 41.957 477.176 40.8945 477.176 39.3008V29.2109ZM501.984 24.5117C499.852 25.0898 497.598 25.5703 495.223 25.9531L495.27 27.3945C496.582 27.1367 497.418 27.0078 497.777 27.0078C498.137 27.0078 498.367 27.1133 498.469 27.3242C498.57 27.5273 498.621 27.9336 498.621 28.543V41.3633C498.621 41.7383 498.5 42.0391 498.258 42.2656C498.109 42.3984 497.305 42.4648 495.844 42.4648H495.41V44H505.828V42.4648H504.961C503.625 42.4648 502.773 42.3906 502.406 42.2422C502.125 42.1328 501.984 41.7734 501.984 41.1641V24.5117ZM499.523 16.8242C500 17.3789 500.406 17.6562 500.742 17.6562C501.078 17.6562 501.52 17.3828 502.066 16.8359C502.621 16.2891 502.898 15.8477 502.898 15.5117C502.898 15.168 502.625 14.7422 502.078 14.2344C501.539 13.7266 501.113 13.4727 500.801 13.4727C500.496 13.4727 500.09 13.7148 499.582 14.1992C499.074 14.6836 498.82 15.1016 498.82 15.4531C498.82 15.8047 499.055 16.2617 499.523 16.8242ZM511.383 33.8281L511.43 33.1484L523.477 31.707C523.617 31.707 523.777 31.6445 523.957 31.5195C524.145 31.3945 524.238 31.2188 524.238 30.9922C524.238 30.1641 523.801 29.2031 522.926 28.1094C521.191 25.9375 518.973 24.8516 516.27 24.8516C513.855 24.8516 511.844 25.7969 510.234 27.6875C508.594 29.6172 507.773 32.125 507.773 35.2109C507.773 37.9844 508.602 40.2734 510.258 42.0781C511.828 43.7734 513.93 44.6211 516.562 44.6211C518.5 44.6211 520.273 44.125 521.883 43.1328C522.562 42.7188 523.168 42.2812 523.699 41.8203C524.23 41.3516 524.629 40.9258 524.895 40.543C525.16 40.1602 525.293 39.8242 525.293 39.5352C525.293 39.2461 525.148 39.1016 524.859 39.1016C524.711 39.1016 524.203 39.3672 523.336 39.8984C522.984 40.1172 522.586 40.3398 522.141 40.5664C521.703 40.7852 521.16 40.9727 520.512 41.1289C519.863 41.2852 519.109 41.3633 518.25 41.3633C517.391 41.3633 516.531 41.1953 515.672 40.8594C512.812 39.7422 511.383 37.3984 511.383 33.8281ZM519.773 30.418L511.523 31.4727C511.781 29.9336 512.309 28.7188 513.105 27.8281C513.902 26.9297 514.723 26.4805 515.566 26.4805C516.41 26.4805 517.133 26.7383 517.734 27.2539C517.984 27.4727 518.336 27.8789 518.789 28.4727C519.242 29.0586 519.57 29.707 519.773 30.418ZM540.832 28.5547C541.324 29.1016 541.57 30.043 541.57 31.3789V41.0234C541.57 41.5234 541.492 41.918 541.336 42.207C541.242 42.3789 540.777 42.4648 539.941 42.4648H538.84L538.887 44H547.816L547.863 42.4648C546.621 42.4648 545.82 42.3945 545.461 42.2539C545.109 42.1133 544.934 41.7031 544.934 41.0234V32.7734C544.934 31.4453 544.898 30.3867 544.828 29.5977C544.766 28.9727 544.676 28.4805 544.559 28.1211C544.449 27.7539 544.281 27.3516 544.055 26.9141C543.836 26.4688 543.566 26.1289 543.246 25.8945C542.934 25.6523 542.531 25.4492 542.039 25.2852C541.555 25.1211 540.801 25.0391 539.777 25.0391C538.754 25.0391 537.617 25.3672 536.367 26.0234C535.828 26.3125 535.344 26.5977 534.914 26.8789C534.492 27.1602 534.113 27.4258 533.777 27.6758C533.449 27.918 533.23 28.0625 533.121 28.1094C533.121 27.0781 533.172 25.9414 533.273 24.6992L527.367 25.9062V27.3945C528.492 27.1367 529.098 27.0078 529.184 27.0078C529.504 27.0078 529.703 27.1523 529.781 27.4414C529.867 27.7305 529.91 28.3867 529.91 29.4102V41.3516C529.91 41.4531 529.898 41.582 529.875 41.7383C529.852 41.8867 529.824 41.9844 529.793 42.0312C529.77 42.0781 529.715 42.1406 529.629 42.2188C529.551 42.2969 529.469 42.3438 529.383 42.3594C529.305 42.375 529.176 42.3984 528.996 42.4297C528.824 42.4531 528.594 42.4648 528.305 42.4648H527.273L527.32 44H536.672L536.777 42.4648H536.145C535.324 42.4648 534.77 42.4453 534.48 42.4062C534.254 42.3828 534.082 42.3633 533.965 42.3477C533.848 42.332 533.703 42.2578 533.531 42.125C533.359 41.9922 533.273 41.7266 533.273 41.3281V29.2695C535.336 28.2383 536.988 27.7227 538.23 27.7227C539.48 27.7227 540.348 28 540.832 28.5547ZM550.172 32.1875C549.938 33.1953 549.82 34.3125 549.82 35.5391C549.82 36.7578 550 37.9375 550.359 39.0781C551.516 42.7734 554.344 44.6211 558.844 44.6211C560.742 44.6211 562.574 44.1484 564.34 43.2031C565.059 42.8125 565.648 42.418 566.109 42.0195C566.578 41.6133 566.812 41.2734 566.812 41C566.812 40.7266 566.688 40.5898 566.438 40.5898C566.305 40.5898 566.082 40.6523 565.77 40.7773C565.457 40.8945 565.105 41.0234 564.715 41.1641C564.332 41.3047 563.738 41.4375 562.934 41.5625C562.137 41.6797 561.148 41.7383 559.969 41.7383C558.797 41.7383 557.645 41.4023 556.512 40.7305C555.879 40.3555 555.324 39.8906 554.848 39.3359C554.371 38.7734 553.98 38.043 553.676 37.1445C553.379 36.2461 553.23 35.1875 553.23 33.9688C553.23 32.75 553.414 31.5469 553.781 30.3594C554 29.6641 554.273 29.0508 554.602 28.5195C554.93 27.9883 555.367 27.5469 555.914 27.1953C556.469 26.8438 557.102 26.668 557.812 26.668C558.523 26.668 559.297 26.9844 560.133 27.6172C560.477 27.8828 560.812 28.1484 561.141 28.4141C561.477 28.6797 561.812 28.9062 562.148 29.0938C562.484 29.2734 562.805 29.3633 563.109 29.3633C563.414 29.3633 563.938 29.25 564.68 29.0234C565.031 28.9141 565.34 28.7617 565.605 28.5664C565.871 28.3711 566.004 28.168 566.004 27.957C566.004 27.7383 565.828 27.4609 565.477 27.125C563.828 25.5469 561.555 24.7578 558.656 24.7578C556.406 24.7578 554.531 25.4922 553.031 26.9609C552.344 27.6406 551.754 28.4297 551.262 29.3281C550.77 30.2266 550.406 31.1797 550.172 32.1875ZM572.555 33.8281L572.602 33.1484L584.648 31.707C584.789 31.707 584.949 31.6445 585.129 31.5195C585.316 31.3945 585.41 31.2188 585.41 30.9922C585.41 30.1641 584.973 29.2031 584.098 28.1094C582.363 25.9375 580.145 24.8516 577.441 24.8516C575.027 24.8516 573.016 25.7969 571.406 27.6875C569.766 29.6172 568.945 32.125 568.945 35.2109C568.945 37.9844 569.773 40.2734 571.43 42.0781C573 43.7734 575.102 44.6211 577.734 44.6211C579.672 44.6211 581.445 44.125 583.055 43.1328C583.734 42.7188 584.34 42.2812 584.871 41.8203C585.402 41.3516 585.801 40.9258 586.066 40.543C586.332 40.1602 586.465 39.8242 586.465 39.5352C586.465 39.2461 586.32 39.1016 586.031 39.1016C585.883 39.1016 585.375 39.3672 584.508 39.8984C584.156 40.1172 583.758 40.3398 583.312 40.5664C582.875 40.7852 582.332 40.9727 581.684 41.1289C581.035 41.2852 580.281 41.3633 579.422 41.3633C578.562 41.3633 577.703 41.1953 576.844 40.8594C573.984 39.7422 572.555 37.3984 572.555 33.8281ZM580.945 30.418L572.695 31.4727C572.953 29.9336 573.48 28.7188 574.277 27.8281C575.074 26.9297 575.895 26.4805 576.738 26.4805C577.582 26.4805 578.305 26.7383 578.906 27.2539C579.156 27.4727 579.508 27.8789 579.961 28.4727C580.414 29.0586 580.742 29.707 580.945 30.418Z" fill="#00A271"/>
</svg>
