<svg width="399" height="37" viewBox="0 0 399 37" fill="none" xmlns="http://www.w3.org/2000/svg">
<path d="M0.175781 2.98438H24.7969C24.8516 5.96875 24.9297 8.48047 25.0312 10.5195L23.168 10.6133C23.0508 7.45703 22.8125 5.6875 22.4531 5.30469C22.3438 5.1875 22.1602 5.11719 21.9023 5.09375C21.6523 5.0625 20.9062 5.04688 19.6641 5.04688H11.4961C10.1758 5.04688 9.42578 5.11719 9.24609 5.25781C9.06641 5.39844 8.9375 5.57031 8.85938 5.77344C8.76562 6.00781 8.71875 6.51953 8.71875 7.30859V13.9766C8.71875 14.9141 8.76562 15.4375 8.85938 15.5469C8.96094 15.6484 9.07812 15.7266 9.21094 15.7812C9.38281 15.8594 9.74609 15.8984 10.3008 15.8984H17.543C18.4102 15.8984 18.8984 15.8203 19.0078 15.6641C19.125 15.5078 19.2109 15.3359 19.2656 15.1484C19.3359 14.8984 19.3711 14.3789 19.3711 13.5898V11.7148H21.1523V23.1875H19.3711V20C19.3711 19.7969 19.3594 19.6016 19.3359 19.4141C19.3203 19.2188 19.3086 19.0625 19.3008 18.9453C19.293 18.8281 19.2656 18.7148 19.2188 18.6055C19.1719 18.4883 19.1328 18.4023 19.1016 18.3477C19.0781 18.293 19.0195 18.2383 18.9258 18.1836C18.8398 18.1289 18.7695 18.0938 18.7148 18.0781C18.668 18.0625 18.5742 18.0469 18.4336 18.0312C18.293 18.0156 18.1797 18.0078 18.0938 18.0078H10.4414C9.64453 18.0078 9.16797 18.0859 9.01172 18.2422C8.81641 18.4531 8.71875 18.8711 8.71875 19.4961V30.8281C8.71875 31.7109 8.80859 32.3164 8.98828 32.6445C9.17578 32.9648 9.56641 33.125 10.1602 33.125H13.3711V35H1.03125V33.125H2.42578C3.53516 33.125 4.17188 33.0625 4.33594 32.9375C4.50781 32.8125 4.625 32.6719 4.6875 32.5156C4.78125 32.3125 4.82812 31.9102 4.82812 31.3086V6.96875C4.82812 5.95313 4.71875 5.40625 4.5 5.32812C4.28906 5.25 4.10938 5.17187 3.96094 5.09375C3.82031 5.01563 3.53906 4.97266 3.11719 4.96484C2.69531 4.94922 2.29688 4.9375 1.92188 4.92969C1.55469 4.91406 0.988281 4.90625 0.222656 4.90625L0.175781 2.98438ZM27.2578 23.0938C26.5156 23.0938 26.1445 22.5195 26.1445 21.3711C26.1445 20.6289 26.5195 19.7734 27.2695 18.8047C28.7148 16.9297 31.1406 15.9922 34.5469 15.9922C36.4844 15.9922 37.7812 16.6953 38.4375 18.1016C38.6641 18.5938 38.7773 19.1719 38.7773 19.8359V28.8125C38.7773 30.2656 39.0469 31.2969 39.5859 31.9062C40.0938 32.4688 40.8633 32.8906 41.8945 33.1719C42.1836 33.25 42.3281 33.3828 42.3281 33.5703C42.3281 33.7578 42.125 33.9766 41.7188 34.2266C40 35.2656 39.0977 35.7969 39.0117 35.8203C38.3008 35.3203 37.7812 34.8789 37.4531 34.4961C37.0469 34.0352 36.4961 33.3555 35.8008 32.457C35.1602 33.3242 34.3164 34.0547 33.2695 34.6484C32.2305 35.2344 31.3203 35.5273 30.5391 35.5273C29.7656 35.5273 29.1289 35.457 28.6289 35.3164C28.1289 35.1758 27.6602 34.9648 27.2227 34.6836C26.2539 34.0586 25.7695 33.1133 25.7695 31.8477C25.7695 30.5742 26.1914 29.375 27.0352 28.25C27.8789 27.125 29.043 26.2266 30.5273 25.5547C32.0195 24.875 33.6484 24.5352 35.4141 24.5352V21.6523C35.4141 20.2773 35.1406 19.3594 34.5938 18.8984C34.0781 18.4609 33.3906 18.2422 32.5312 18.2422C31.6797 18.2422 31.0039 18.293 30.5039 18.3945C30.0039 18.4961 29.625 18.6211 29.3672 18.7695C28.8203 19.082 28.4688 19.4023 28.3125 19.7305C28.3594 19.9414 28.4258 20.2031 28.5117 20.5156C28.6992 21.1875 28.793 21.6641 28.793 21.9453C28.793 22.2266 28.6016 22.4883 28.2188 22.7305C27.8438 22.9727 27.5234 23.0938 27.2578 23.0938ZM29.1211 30.6172C29.1211 31.25 29.3516 31.7969 29.8125 32.2578C30.2812 32.7109 30.8984 32.9375 31.6641 32.9375C32.4297 32.9375 33.0195 32.8789 33.4336 32.7617C33.8555 32.6445 34.1875 32.4961 34.4297 32.3164C34.6719 32.1367 34.8711 31.9219 35.0273 31.6719C35.2852 31.2734 35.4141 30.8164 35.4141 30.3008V25.8359C33.4766 25.8359 31.9258 26.3477 30.7617 27.3711C29.668 28.332 29.1211 29.4141 29.1211 30.6172ZM42.5391 17.7148V16.1797H51.1758L51.1289 17.7148H50.4492C49.8555 17.7148 49.4336 17.7578 49.1836 17.8438C48.9414 17.9219 48.8203 18.0898 48.8203 18.3477C48.8203 18.5977 48.9961 19.1719 49.3477 20.0703L53.625 30.2422C54.4609 28.2266 55.3242 26.2617 56.2148 24.3477C57.1133 22.4336 57.6719 21.2383 57.8906 20.7617C58.4062 19.6367 58.6641 18.8867 58.6641 18.5117C58.6641 18.1367 58.5195 17.9102 58.2305 17.832C57.9414 17.7539 57.3828 17.7148 56.5547 17.7148H56.4023V16.1797H63.0352V17.7148H62.7422C62.1953 17.7148 61.7891 17.8164 61.5234 18.0195C61.2578 18.2227 61.0234 18.5156 60.8203 18.8984C60.4062 19.6484 59.7031 21.1445 58.7109 23.3867L53.0977 35.8672L52.418 35.8203L45.6562 20.3164C45.0938 19.0664 44.7188 18.3594 44.5312 18.1953C44.3438 18.0312 44.1445 17.9141 43.9336 17.8438C43.6758 17.7578 43.2109 17.7148 42.5391 17.7148ZM63.8203 25.6133C63.8203 24.6133 63.9375 23.6406 64.1719 22.6953C64.4062 21.75 64.7734 20.8555 65.2734 20.0117C65.7812 19.1602 66.3984 18.4219 67.125 17.7969C68.7188 16.4375 70.7852 15.7578 73.3242 15.7578C76.4727 15.7578 78.9219 16.6797 80.6719 18.5234C82.5 20.4375 83.4141 22.9844 83.4141 26.1641C83.4141 28.8906 82.5234 31.1562 80.7422 32.9609C78.9141 34.7969 76.4766 35.7148 73.4297 35.7148C69.8203 35.7148 67.125 34.2383 65.3438 31.2852C64.3281 29.6055 63.8203 27.7148 63.8203 25.6133ZM67.6641 24.2891C67.6641 25.3047 67.7578 26.2617 67.9453 27.1602C68.1328 28.0508 68.4102 28.8984 68.7773 29.7031C69.1523 30.5 69.5898 31.2109 70.0898 31.8359C70.5977 32.4531 71.1914 32.9453 71.8711 33.3125C72.5586 33.6719 73.2852 33.8516 74.0508 33.8516C74.8164 33.8516 75.5039 33.707 76.1133 33.418C76.7227 33.1289 77.2266 32.7383 77.625 32.2461C78.0312 31.7539 78.3672 31.1719 78.6328 30.5C79.1328 29.25 79.3828 27.8398 79.3828 26.2695C79.3828 24.6992 79.207 23.3555 78.8555 22.2383C78.5117 21.1133 78.0391 20.2031 77.4375 19.5078C76.2031 18.0938 74.6914 17.3867 72.9023 17.3867C71.4648 17.3867 70.2422 17.9805 69.2344 19.168C68.1875 20.4102 67.6641 22.1172 67.6641 24.2891ZM89.168 19.7891C89.168 18.6328 88.9844 18.0547 88.6172 18.0547C88.4141 18.0547 87.3984 18.2305 85.5703 18.582L85.4297 17.0938C85.7031 17.0391 86.0039 16.9844 86.332 16.9297C86.6602 16.8672 86.8984 16.8242 87.0469 16.8008C87.1953 16.7695 87.4844 16.707 87.9141 16.6133C88.3516 16.5117 88.9102 16.3789 89.5898 16.2148C90.2773 16.043 91.2266 15.8086 92.4375 15.5117V20.9375C92.4375 20.9062 92.6172 20.5859 92.9766 19.9766C93.3359 19.3672 93.6797 18.8516 94.0078 18.4297C94.3438 18 94.6875 17.6094 95.0391 17.2578C95.8516 16.4453 96.6953 16.0391 97.5703 16.0391C98.5078 16.0391 99.2695 16.2969 99.8555 16.8125C99.957 16.8984 100.074 17.0391 100.207 17.2344L98.3906 21.9922L97.6172 21.6992V21.0781C97.6172 20.3438 97.2344 19.9766 96.4688 19.9766C95.9453 19.9766 95.3789 20.1289 94.7695 20.4336C94.168 20.7305 93.6445 21.1484 93.1992 21.6875C92.7539 22.2266 92.5312 22.793 92.5312 23.3867V31.4961C92.5312 32.4023 92.6875 32.9531 93 33.1484C93.3125 33.3594 94.1641 33.4648 95.5547 33.4648H97.6172V35H86.1445V33.4648H87.0586C88.0742 33.4648 88.6445 33.4023 88.7695 33.2773C88.8945 33.1523 88.9883 33.0039 89.0508 32.832C89.1289 32.6211 89.168 32.1758 89.168 31.4961V19.7891ZM102.316 16.9531C104.691 16.5703 106.945 16.0898 109.078 15.5117V32.1641C109.078 32.7734 109.219 33.1328 109.5 33.2422C109.867 33.3906 110.719 33.4648 112.055 33.4648H112.922V35H102.504V33.4648H102.938C104.398 33.4648 105.203 33.3984 105.352 33.2656C105.594 33.0391 105.715 32.7383 105.715 32.3633V19.543C105.715 18.9336 105.664 18.5273 105.562 18.3242C105.461 18.1133 105.23 18.0078 104.871 18.0078C104.512 18.0078 103.676 18.1367 102.363 18.3945L102.316 16.9531ZM107.836 8.65625C107.5 8.65625 107.094 8.37891 106.617 7.82422C106.148 7.26172 105.914 6.80469 105.914 6.45312C105.914 6.10156 106.168 5.68359 106.676 5.19922C107.184 4.71484 107.59 4.47266 107.895 4.47266C108.207 4.47266 108.633 4.72656 109.172 5.23438C109.719 5.74219 109.992 6.16797 109.992 6.51172C109.992 6.84766 109.715 7.28906 109.16 7.83594C108.613 8.38281 108.172 8.65625 107.836 8.65625ZM114.645 18.8281C114.262 18.8281 114.07 18.6992 114.07 18.4414C114.07 18.2695 114.48 17.7422 115.301 16.8594C116.121 15.9766 116.668 15.3828 116.941 15.0781C117.215 14.7656 117.617 14.2734 118.148 13.6016C119.281 12.1562 119.906 11.4336 120.023 11.4336C120.219 11.4336 120.316 11.5469 120.316 11.7734V16.5195H126.797L126.504 18.8281H120.316V30.0078C120.316 31.4453 121 32.3438 122.367 32.7031C122.727 32.7969 123.148 32.8438 123.633 32.8438C124.125 32.8438 124.641 32.7695 125.18 32.6211C125.727 32.4648 126.164 32.3125 126.492 32.1641C126.82 32.0078 127 31.9297 127.031 31.9297C127.258 31.9297 127.371 32.1172 127.371 32.4922C127.371 32.8594 127.07 33.2891 126.469 33.7812C125.875 34.2734 125.125 34.6875 124.219 35.0234C123.312 35.3594 122.449 35.5273 121.629 35.5273C120.816 35.5273 120.102 35.3945 119.484 35.1289C118.867 34.8633 118.379 34.4922 118.02 34.0156C117.309 33.0703 116.953 31.8633 116.953 30.3945V18.8281H114.645ZM133.008 24.1484L132.961 24.8281C132.961 28.3984 134.391 30.7422 137.25 31.8594C138.109 32.1953 138.969 32.3633 139.828 32.3633C140.688 32.3633 141.441 32.2852 142.09 32.1289C142.738 31.9727 143.281 31.7852 143.719 31.5664C144.164 31.3398 144.562 31.1172 144.914 30.8984C145.781 30.3672 146.289 30.1016 146.438 30.1016C146.727 30.1016 146.871 30.2461 146.871 30.5352C146.871 30.8242 146.738 31.1602 146.473 31.543C146.207 31.9258 145.809 32.3516 145.277 32.8203C144.746 33.2812 144.141 33.7188 143.461 34.1328C141.852 35.125 140.078 35.6211 138.141 35.6211C135.508 35.6211 133.406 34.7734 131.836 33.0781C130.18 31.2734 129.352 28.9844 129.352 26.2109C129.352 23.125 130.172 20.6172 131.812 18.6875C133.422 16.7969 135.434 15.8516 137.848 15.8516C140.551 15.8516 142.77 16.9375 144.504 19.1094C145.379 20.2031 145.816 21.1641 145.816 21.9922C145.816 22.2188 145.723 22.3945 145.535 22.5195C145.355 22.6445 145.195 22.707 145.055 22.707L133.008 24.1484ZM133.102 22.4727L141.352 21.418C141.148 20.707 140.82 20.0586 140.367 19.4727C139.914 18.8789 139.562 18.4727 139.312 18.2539C138.711 17.7383 137.988 17.4805 137.145 17.4805C136.301 17.4805 135.48 17.9297 134.684 18.8281C133.887 19.7188 133.359 20.9336 133.102 22.4727ZM158.191 4.90625L158.238 2.98438H170.285V4.90625H169.465C168.355 4.90625 167.707 4.9375 167.52 5C167.34 5.05469 167.184 5.12109 167.051 5.19922C166.918 5.27734 166.828 5.36719 166.781 5.46875C166.742 5.5625 166.695 5.69141 166.641 5.85547C166.57 6.09766 166.535 6.51563 166.535 7.10938V30.9219C166.535 31.9531 166.621 32.543 166.793 32.6914C166.973 32.832 167.172 32.9336 167.391 32.9961C167.688 33.082 168.266 33.125 169.125 33.125H171L171.047 35H158.766L158.719 33.125H159.961C161.211 33.125 161.93 33.0547 162.117 32.9141C162.312 32.7656 162.445 32.5977 162.516 32.4102C162.609 32.1602 162.656 31.6953 162.656 31.0156V6.62891C162.656 5.79297 162.578 5.32422 162.422 5.22266C162.273 5.12109 162.094 5.04688 161.883 5C161.633 4.9375 161.074 4.90625 160.207 4.90625H158.191ZM187.477 22.3789C187.477 21.043 187.23 20.1016 186.738 19.5547C186.254 19 185.387 18.7227 184.137 18.7227C182.895 18.7227 181.242 19.2383 179.18 20.2695V32.3281C179.18 32.7266 179.266 32.9922 179.438 33.125C179.609 33.2578 179.754 33.332 179.871 33.3477C179.988 33.3633 180.16 33.3828 180.387 33.4062C180.676 33.4453 181.23 33.4648 182.051 33.4648H182.684L182.578 35H173.227L173.18 33.4648C173.578 33.4648 173.922 33.4648 174.211 33.4648C174.5 33.4648 174.73 33.4531 174.902 33.4297C175.082 33.3984 175.211 33.375 175.289 33.3594C175.375 33.3438 175.457 33.2969 175.535 33.2188C175.621 33.1406 175.676 33.0781 175.699 33.0312C175.73 32.9844 175.758 32.8867 175.781 32.7383C175.805 32.582 175.816 32.4531 175.816 32.3516V20.4102C175.816 19.3867 175.773 18.7305 175.688 18.4414C175.609 18.1523 175.41 18.0078 175.09 18.0078C175.004 18.0078 174.398 18.1367 173.273 18.3945V16.9062L179.18 15.6992C179.078 16.9414 179.027 18.0781 179.027 19.1094C179.137 19.0625 179.355 18.918 179.684 18.6758C180.02 18.4258 180.398 18.1602 180.82 17.8789C181.25 17.5977 181.734 17.3125 182.273 17.0234C183.523 16.3672 184.66 16.0391 185.684 16.0391C186.707 16.0391 187.461 16.1211 187.945 16.2852C188.438 16.4492 188.84 16.6523 189.152 16.8945C189.473 17.1289 189.742 17.4688 189.961 17.9141C190.188 18.3516 190.355 18.7539 190.465 19.1211C190.582 19.4805 190.672 19.9727 190.734 20.5977C190.805 21.3867 190.84 22.4453 190.84 23.7734V32.0234C190.84 32.7031 191.016 33.1133 191.367 33.2539C191.727 33.3945 192.527 33.4648 193.77 33.4648L193.723 35H184.793L184.746 33.4648H185.848C186.684 33.4648 187.148 33.3789 187.242 33.207C187.398 32.918 187.477 32.5234 187.477 32.0234V22.3789ZM197.613 35.6211L197.66 36.1016L196.266 36.1953L195.398 28.2266L196.887 28.1328L197.367 32.1172C198.328 32.8672 199.32 33.3672 200.344 33.6172C201.375 33.8672 202.133 33.9922 202.617 33.9922C203.102 33.9922 203.527 33.9102 203.895 33.7461C204.262 33.582 204.555 33.3633 204.773 33.0898C205.211 32.5273 205.43 31.9961 205.43 31.4961C205.43 30.9961 205.367 30.5859 205.242 30.2656C205.117 29.9453 204.965 29.668 204.785 29.4336C204.613 29.1914 204.367 28.9297 204.047 28.6484C203.586 28.2656 202.945 27.8086 202.125 27.2773L200.391 26.1172C197.992 24.5547 196.793 22.7812 196.793 20.7969C196.793 19.9453 197.047 19.1523 197.555 18.418C198.07 17.6758 198.777 17.0859 199.676 16.6484C200.582 16.2109 201.48 15.9922 202.371 15.9922C203.262 15.9922 204.016 16.0664 204.633 16.2148C205.258 16.3555 205.754 16.5 206.121 16.6484C206.488 16.7891 206.742 16.8594 206.883 16.8594C207.133 16.8594 207.258 16.3789 207.258 15.418L208.793 15.4648V22.707H207.258L207.211 19.3086C206.672 18.6602 205.703 18.1875 204.305 17.8906C203.789 17.7734 203.219 17.7148 202.594 17.7148C201.969 17.7148 201.371 17.9414 200.801 18.3945C200.238 18.8477 199.957 19.3906 199.957 20.0234C199.957 20.5 200.031 20.8477 200.18 21.0664C200.328 21.2773 200.422 21.4219 200.461 21.5C200.508 21.5781 200.602 21.6836 200.742 21.8164C200.891 21.9492 200.988 22.043 201.035 22.0977C201.09 22.1445 201.211 22.2383 201.398 22.3789C201.594 22.5195 201.719 22.6094 201.773 22.6484C201.945 22.7891 202.223 22.9844 202.605 23.2344L204.762 24.6758C206.238 25.668 207.156 26.3828 207.516 26.8203C207.883 27.25 208.172 27.6328 208.383 27.9688C208.781 28.6094 208.98 29.3203 208.98 30.1016C208.98 30.8828 208.848 31.5977 208.582 32.2461C208.316 32.8867 207.934 33.4609 207.434 33.9688C206.348 35.0703 204.785 35.6211 202.746 35.6211C201.66 35.6211 200.617 35.5156 199.617 35.3047C198.625 35.1016 198.098 35 198.035 35C197.754 35 197.613 35.207 197.613 35.6211ZM212.613 18.8281C212.23 18.8281 212.039 18.6992 212.039 18.4414C212.039 18.2695 212.449 17.7422 213.27 16.8594C214.09 15.9766 214.637 15.3828 214.91 15.0781C215.184 14.7656 215.586 14.2734 216.117 13.6016C217.25 12.1562 217.875 11.4336 217.992 11.4336C218.188 11.4336 218.285 11.5469 218.285 11.7734V16.5195H224.766L224.473 18.8281H218.285V30.0078C218.285 31.4453 218.969 32.3438 220.336 32.7031C220.695 32.7969 221.117 32.8438 221.602 32.8438C222.094 32.8438 222.609 32.7695 223.148 32.6211C223.695 32.4648 224.133 32.3125 224.461 32.1641C224.789 32.0078 224.969 31.9297 225 31.9297C225.227 31.9297 225.34 32.1172 225.34 32.4922C225.34 32.8594 225.039 33.2891 224.438 33.7812C223.844 34.2734 223.094 34.6875 222.188 35.0234C221.281 35.3594 220.418 35.5273 219.598 35.5273C218.785 35.5273 218.07 35.3945 217.453 35.1289C216.836 34.8633 216.348 34.4922 215.988 34.0156C215.277 33.0703 214.922 31.8633 214.922 30.3945V18.8281H212.613ZM230.73 19.7891C230.73 18.6328 230.547 18.0547 230.18 18.0547C229.977 18.0547 228.961 18.2305 227.133 18.582L226.992 17.0938C227.266 17.0391 227.566 16.9844 227.895 16.9297C228.223 16.8672 228.461 16.8242 228.609 16.8008C228.758 16.7695 229.047 16.707 229.477 16.6133C229.914 16.5117 230.473 16.3789 231.152 16.2148C231.84 16.043 232.789 15.8086 234 15.5117V20.9375C234 20.9062 234.18 20.5859 234.539 19.9766C234.898 19.3672 235.242 18.8516 235.57 18.4297C235.906 18 236.25 17.6094 236.602 17.2578C237.414 16.4453 238.258 16.0391 239.133 16.0391C240.07 16.0391 240.832 16.2969 241.418 16.8125C241.52 16.8984 241.637 17.0391 241.77 17.2344L239.953 21.9922L239.18 21.6992V21.0781C239.18 20.3438 238.797 19.9766 238.031 19.9766C237.508 19.9766 236.941 20.1289 236.332 20.4336C235.73 20.7305 235.207 21.1484 234.762 21.6875C234.316 22.2266 234.094 22.793 234.094 23.3867V31.4961C234.094 32.4023 234.25 32.9531 234.562 33.1484C234.875 33.3594 235.727 33.4648 237.117 33.4648H239.18V35H227.707V33.4648H228.621C229.637 33.4648 230.207 33.4023 230.332 33.2773C230.457 33.1523 230.551 33.0039 230.613 32.832C230.691 32.6211 230.73 32.1758 230.73 31.4961V19.7891ZM244.98 17.7148L243.398 17.8672V16.4258C245.867 16.1992 247.816 15.957 249.246 15.6992V27.6992C249.246 29.7461 249.586 31.1094 250.266 31.7891C250.898 32.4219 251.887 32.7383 253.23 32.7383C255.207 32.7383 256.648 32.1328 257.555 30.9219V19.2031C257.555 18.6016 257.48 18.2148 257.332 18.043C257.191 17.8633 256.98 17.7734 256.699 17.7734C256.426 17.7734 256.117 17.7891 255.773 17.8203C254.961 17.8984 254.531 17.9609 254.484 18.0078L254.344 16.5195C256.125 16.4023 258.316 16.1289 260.918 15.6992V29.668C260.918 31.793 260.992 32.9492 261.141 33.1367C261.312 33.3555 261.52 33.4648 261.762 33.4648C262.004 33.4648 262.73 33.2891 263.941 32.9375V34.4727C262.801 34.707 261.617 34.9961 260.391 35.3398C259.172 35.6914 258.387 35.9141 258.035 36.0078C257.988 34.8672 257.875 33.7305 257.695 32.5977C256.516 33.8945 255.102 34.8203 253.453 35.375C252.797 35.6016 252.148 35.7148 251.508 35.7148C250.867 35.7148 250.273 35.6406 249.727 35.4922C249.18 35.3516 248.711 35.1562 248.32 34.9062C247.938 34.6562 247.602 34.3477 247.312 33.9805C247.023 33.6055 246.789 33.2148 246.609 32.8086C246.43 32.3945 246.285 31.9297 246.176 31.4141C245.988 30.5391 245.895 29.5273 245.895 28.3789V18.9219C245.895 18.4375 245.828 18.1172 245.695 17.9609C245.562 17.7969 245.324 17.7148 244.98 17.7148ZM268.16 18.0078C268.113 18.0078 267.25 18.168 265.57 18.4883V17C266.711 16.8359 268.543 16.4766 271.066 15.9219L272.285 15.6523C272.223 16.7383 272.191 17.9062 272.191 19.1562C272.293 19.1016 272.52 18.9414 272.871 18.6758C273.223 18.4102 273.602 18.1406 274.008 17.8672C274.422 17.5859 274.891 17.3047 275.414 17.0234C276.602 16.3672 277.621 16.0391 278.473 16.0391C279.332 16.0391 279.984 16.1406 280.43 16.3438C280.883 16.5391 281.234 16.7617 281.484 17.0117C281.742 17.2539 281.969 17.5469 282.164 17.8906C282.43 18.3359 282.609 18.7422 282.703 19.1094C284.664 17.6406 286.117 16.7617 287.062 16.4727C288.016 16.1836 288.789 16.0391 289.383 16.0391C289.977 16.0391 290.512 16.1133 290.988 16.2617C291.465 16.4102 291.859 16.6016 292.172 16.8359C292.492 17.0625 292.766 17.3555 292.992 17.7148C293.227 18.0742 293.402 18.4258 293.52 18.7695C293.645 19.1133 293.742 19.5156 293.812 19.9766C293.922 20.6328 293.977 21.4336 293.977 22.3789V32.2695C293.977 32.8398 294.117 33.1836 294.398 33.3008C294.648 33.4102 295.391 33.4648 296.625 33.4648H297.105V35H287.789V33.4648C289.094 33.4648 289.891 33.4141 290.18 33.3125C290.477 33.2031 290.625 32.8711 290.625 32.3164V22.3789C290.625 20.3555 290.078 19.1875 288.984 18.875C288.648 18.7734 288.211 18.7227 287.672 18.7227C287.141 18.7227 286.609 18.7773 286.078 18.8867C285.555 18.9961 285.109 19.1289 284.742 19.2852C284.023 19.5977 283.422 19.9414 282.938 20.3164C283.07 21.3086 283.137 22.4609 283.137 23.7734V32.6445C283.137 33.0195 283.219 33.2383 283.383 33.3008C283.547 33.3633 283.734 33.4062 283.945 33.4297C284.242 33.4531 284.773 33.4648 285.539 33.4648H285.961V35H276.844L276.797 33.4648H277.371C278.363 33.4648 279.012 33.4219 279.316 33.3359C279.621 33.25 279.773 33.0352 279.773 32.6914V22.3789C279.773 21.1523 279.531 20.2383 279.047 19.6367C278.57 19.0273 277.719 18.7227 276.492 18.7227C275.273 18.7227 273.871 19.2383 272.285 20.2695V32.4102C272.285 32.9258 272.359 33.2109 272.508 33.2656C272.664 33.3203 272.852 33.3672 273.07 33.4062C273.328 33.4453 273.914 33.4648 274.828 33.4648H275.074V35H265.711L265.664 33.4648H267.012C267.809 33.4648 268.324 33.4062 268.559 33.2891C268.801 33.1641 268.922 32.8711 268.922 32.4102V20.4688C268.922 19.4219 268.883 18.75 268.805 18.4531C268.734 18.1562 268.52 18.0078 268.16 18.0078ZM302.273 24.1484L302.227 24.8281C302.227 28.3984 303.656 30.7422 306.516 31.8594C307.375 32.1953 308.234 32.3633 309.094 32.3633C309.953 32.3633 310.707 32.2852 311.355 32.1289C312.004 31.9727 312.547 31.7852 312.984 31.5664C313.43 31.3398 313.828 31.1172 314.18 30.8984C315.047 30.3672 315.555 30.1016 315.703 30.1016C315.992 30.1016 316.137 30.2461 316.137 30.5352C316.137 30.8242 316.004 31.1602 315.738 31.543C315.473 31.9258 315.074 32.3516 314.543 32.8203C314.012 33.2812 313.406 33.7188 312.727 34.1328C311.117 35.125 309.344 35.6211 307.406 35.6211C304.773 35.6211 302.672 34.7734 301.102 33.0781C299.445 31.2734 298.617 28.9844 298.617 26.2109C298.617 23.125 299.438 20.6172 301.078 18.6875C302.688 16.7969 304.699 15.8516 307.113 15.8516C309.816 15.8516 312.035 16.9375 313.77 19.1094C314.645 20.2031 315.082 21.1641 315.082 21.9922C315.082 22.2188 314.988 22.3945 314.801 22.5195C314.621 22.6445 314.461 22.707 314.32 22.707L302.273 24.1484ZM302.367 22.4727L310.617 21.418C310.414 20.707 310.086 20.0586 309.633 19.4727C309.18 18.8789 308.828 18.4727 308.578 18.2539C307.977 17.7383 307.254 17.4805 306.41 17.4805C305.566 17.4805 304.746 17.9297 303.949 18.8281C303.152 19.7188 302.625 20.9336 302.367 22.4727ZM332.414 22.3789C332.414 21.043 332.168 20.1016 331.676 19.5547C331.191 19 330.324 18.7227 329.074 18.7227C327.832 18.7227 326.18 19.2383 324.117 20.2695V32.3281C324.117 32.7266 324.203 32.9922 324.375 33.125C324.547 33.2578 324.691 33.332 324.809 33.3477C324.926 33.3633 325.098 33.3828 325.324 33.4062C325.613 33.4453 326.168 33.4648 326.988 33.4648H327.621L327.516 35H318.164L318.117 33.4648C318.516 33.4648 318.859 33.4648 319.148 33.4648C319.438 33.4648 319.668 33.4531 319.84 33.4297C320.02 33.3984 320.148 33.375 320.227 33.3594C320.312 33.3438 320.395 33.2969 320.473 33.2188C320.559 33.1406 320.613 33.0781 320.637 33.0312C320.668 32.9844 320.695 32.8867 320.719 32.7383C320.742 32.582 320.754 32.4531 320.754 32.3516V20.4102C320.754 19.3867 320.711 18.7305 320.625 18.4414C320.547 18.1523 320.348 18.0078 320.027 18.0078C319.941 18.0078 319.336 18.1367 318.211 18.3945V16.9062L324.117 15.6992C324.016 16.9414 323.965 18.0781 323.965 19.1094C324.074 19.0625 324.293 18.918 324.621 18.6758C324.957 18.4258 325.336 18.1602 325.758 17.8789C326.188 17.5977 326.672 17.3125 327.211 17.0234C328.461 16.3672 329.598 16.0391 330.621 16.0391C331.645 16.0391 332.398 16.1211 332.883 16.2852C333.375 16.4492 333.777 16.6523 334.09 16.8945C334.41 17.1289 334.68 17.4688 334.898 17.9141C335.125 18.3516 335.293 18.7539 335.402 19.1211C335.52 19.4805 335.609 19.9727 335.672 20.5977C335.742 21.3867 335.777 22.4453 335.777 23.7734V32.0234C335.777 32.7031 335.953 33.1133 336.305 33.2539C336.664 33.3945 337.465 33.4648 338.707 33.4648L338.66 35H329.73L329.684 33.4648H330.785C331.621 33.4648 332.086 33.3789 332.18 33.207C332.336 32.918 332.414 32.5234 332.414 32.0234V22.3789ZM339.926 18.8281C339.543 18.8281 339.352 18.6992 339.352 18.4414C339.352 18.2695 339.762 17.7422 340.582 16.8594C341.402 15.9766 341.949 15.3828 342.223 15.0781C342.496 14.7656 342.898 14.2734 343.43 13.6016C344.562 12.1562 345.188 11.4336 345.305 11.4336C345.5 11.4336 345.598 11.5469 345.598 11.7734V16.5195H352.078L351.785 18.8281H345.598V30.0078C345.598 31.4453 346.281 32.3438 347.648 32.7031C348.008 32.7969 348.43 32.8438 348.914 32.8438C349.406 32.8438 349.922 32.7695 350.461 32.6211C351.008 32.4648 351.445 32.3125 351.773 32.1641C352.102 32.0078 352.281 31.9297 352.312 31.9297C352.539 31.9297 352.652 32.1172 352.652 32.4922C352.652 32.8594 352.352 33.2891 351.75 33.7812C351.156 34.2734 350.406 34.6875 349.5 35.0234C348.594 35.3594 347.73 35.5273 346.91 35.5273C346.098 35.5273 345.383 35.3945 344.766 35.1289C344.148 34.8633 343.66 34.4922 343.301 34.0156C342.59 33.0703 342.234 31.8633 342.234 30.3945V18.8281H339.926ZM356.273 23.0938C355.531 23.0938 355.16 22.5195 355.16 21.3711C355.16 20.6289 355.535 19.7734 356.285 18.8047C357.73 16.9297 360.156 15.9922 363.562 15.9922C365.5 15.9922 366.797 16.6953 367.453 18.1016C367.68 18.5938 367.793 19.1719 367.793 19.8359V28.8125C367.793 30.2656 368.062 31.2969 368.602 31.9062C369.109 32.4688 369.879 32.8906 370.91 33.1719C371.199 33.25 371.344 33.3828 371.344 33.5703C371.344 33.7578 371.141 33.9766 370.734 34.2266C369.016 35.2656 368.113 35.7969 368.027 35.8203C367.316 35.3203 366.797 34.8789 366.469 34.4961C366.062 34.0352 365.512 33.3555 364.816 32.457C364.176 33.3242 363.332 34.0547 362.285 34.6484C361.246 35.2344 360.336 35.5273 359.555 35.5273C358.781 35.5273 358.145 35.457 357.645 35.3164C357.145 35.1758 356.676 34.9648 356.238 34.6836C355.27 34.0586 354.785 33.1133 354.785 31.8477C354.785 30.5742 355.207 29.375 356.051 28.25C356.895 27.125 358.059 26.2266 359.543 25.5547C361.035 24.875 362.664 24.5352 364.43 24.5352V21.6523C364.43 20.2773 364.156 19.3594 363.609 18.8984C363.094 18.4609 362.406 18.2422 361.547 18.2422C360.695 18.2422 360.02 18.293 359.52 18.3945C359.02 18.4961 358.641 18.6211 358.383 18.7695C357.836 19.082 357.484 19.4023 357.328 19.7305C357.375 19.9414 357.441 20.2031 357.527 20.5156C357.715 21.1875 357.809 21.6641 357.809 21.9453C357.809 22.2266 357.617 22.4883 357.234 22.7305C356.859 22.9727 356.539 23.0938 356.273 23.0938ZM358.137 30.6172C358.137 31.25 358.367 31.7969 358.828 32.2578C359.297 32.7109 359.914 32.9375 360.68 32.9375C361.445 32.9375 362.035 32.8789 362.449 32.7617C362.871 32.6445 363.203 32.4961 363.445 32.3164C363.688 32.1367 363.887 31.9219 364.043 31.6719C364.301 31.2734 364.43 30.8164 364.43 30.3008V25.8359C362.492 25.8359 360.941 26.3477 359.777 27.3711C358.684 28.332 358.137 29.4141 358.137 30.6172ZM372.539 1.26172C375.266 0.886719 377.617 0.515625 379.594 0.148438V32.1641C379.594 32.7422 379.777 33.1055 380.145 33.2539C380.512 33.3945 381.352 33.4648 382.664 33.4648H383.484V35H373.02V33.4648H374.074C374.926 33.4648 375.496 33.3906 375.785 33.2422C376.082 33.0859 376.23 32.7266 376.23 32.1641V4.8125C376.23 3.78906 376.18 3.13281 376.078 2.84375C375.984 2.55469 375.777 2.41016 375.457 2.41016C375.137 2.41016 374.195 2.57031 372.633 2.89062L372.539 1.26172ZM387.316 35.6211L387.363 36.1016L385.969 36.1953L385.102 28.2266L386.59 28.1328L387.07 32.1172C388.031 32.8672 389.023 33.3672 390.047 33.6172C391.078 33.8672 391.836 33.9922 392.32 33.9922C392.805 33.9922 393.23 33.9102 393.598 33.7461C393.965 33.582 394.258 33.3633 394.477 33.0898C394.914 32.5273 395.133 31.9961 395.133 31.4961C395.133 30.9961 395.07 30.5859 394.945 30.2656C394.82 29.9453 394.668 29.668 394.488 29.4336C394.316 29.1914 394.07 28.9297 393.75 28.6484C393.289 28.2656 392.648 27.8086 391.828 27.2773L390.094 26.1172C387.695 24.5547 386.496 22.7812 386.496 20.7969C386.496 19.9453 386.75 19.1523 387.258 18.418C387.773 17.6758 388.48 17.0859 389.379 16.6484C390.285 16.2109 391.184 15.9922 392.074 15.9922C392.965 15.9922 393.719 16.0664 394.336 16.2148C394.961 16.3555 395.457 16.5 395.824 16.6484C396.191 16.7891 396.445 16.8594 396.586 16.8594C396.836 16.8594 396.961 16.3789 396.961 15.418L398.496 15.4648V22.707H396.961L396.914 19.3086C396.375 18.6602 395.406 18.1875 394.008 17.8906C393.492 17.7734 392.922 17.7148 392.297 17.7148C391.672 17.7148 391.074 17.9414 390.504 18.3945C389.941 18.8477 389.66 19.3906 389.66 20.0234C389.66 20.5 389.734 20.8477 389.883 21.0664C390.031 21.2773 390.125 21.4219 390.164 21.5C390.211 21.5781 390.305 21.6836 390.445 21.8164C390.594 21.9492 390.691 22.043 390.738 22.0977C390.793 22.1445 390.914 22.2383 391.102 22.3789C391.297 22.5195 391.422 22.6094 391.477 22.6484C391.648 22.7891 391.926 22.9844 392.309 23.2344L394.465 24.6758C395.941 25.668 396.859 26.3828 397.219 26.8203C397.586 27.25 397.875 27.6328 398.086 27.9688C398.484 28.6094 398.684 29.3203 398.684 30.1016C398.684 30.8828 398.551 31.5977 398.285 32.2461C398.02 32.8867 397.637 33.4609 397.137 33.9688C396.051 35.0703 394.488 35.6211 392.449 35.6211C391.363 35.6211 390.32 35.5156 389.32 35.3047C388.328 35.1016 387.801 35 387.738 35C387.457 35 387.316 35.207 387.316 35.6211Z" fill="#00AC78"/>
</svg>
