<svg width="367" height="48" viewBox="0 0 367 48" fill="none" xmlns="http://www.w3.org/2000/svg">
<path d="M13.457 20.2695C11.4961 20.2695 10.0391 20.1719 9.08594 19.9766V31.7305C9.08594 32.3945 9.23438 32.7852 9.53125 32.9023C9.90625 33.0508 10.8633 33.125 12.4023 33.125H14.8516L14.7578 35H1.98438V33.125H3.08594C4.10938 33.125 4.6875 33.0859 4.82031 33.0078C4.95312 32.9219 5.04688 32.8125 5.10156 32.6797C5.17188 32.5391 5.20703 32.2227 5.20703 31.7305V6.62891C5.20703 5.73828 4.84375 5.21094 4.11719 5.04688C3.71094 4.95312 3.11328 4.90625 2.32422 4.90625H0.976562L1.02344 2.98438H12.0625C14.6094 2.98438 16.5938 3.14844 18.0156 3.47656C19.4453 3.79688 20.7148 4.41016 21.8242 5.31641C22.9414 6.21484 23.793 7.25391 24.3789 8.43359C24.9727 9.60547 25.2695 10.6484 25.2695 11.5625C25.2695 12.4766 25.1953 13.2266 25.0469 13.8125C24.9062 14.3984 24.6641 14.9883 24.3203 15.582C23.9844 16.168 23.5586 16.707 23.043 17.1992C21.9023 18.2852 20.3555 19.082 18.4023 19.5898L27.6133 31.8359C28.0508 32.3828 28.4141 32.7344 28.7031 32.8906C28.9922 33.0469 29.3203 33.125 29.6875 33.125H31.75L31.8438 35H24.8828L14.6055 20.2109L13.457 20.2695ZM9.08594 18.3945C9.46875 18.7148 10.4961 18.875 12.168 18.875C15.0742 18.875 17.1914 18.375 18.5195 17.375C19.8477 16.375 20.5117 14.8242 20.5117 12.7227C20.5117 10.4102 19.6602 8.53906 17.957 7.10938C16.207 5.64062 13.7305 4.90625 10.5273 4.90625C9.96484 4.90625 9.60547 5 9.44922 5.1875C9.20703 5.48438 9.08594 6.125 9.08594 7.10938V18.3945ZM37.0234 24.1484L36.9766 24.8281C36.9766 28.3984 38.4062 30.7422 41.2656 31.8594C42.125 32.1953 42.9844 32.3633 43.8438 32.3633C44.7031 32.3633 45.457 32.2852 46.1055 32.1289C46.7539 31.9727 47.2969 31.7852 47.7344 31.5664C48.1797 31.3398 48.5781 31.1172 48.9297 30.8984C49.7969 30.3672 50.3047 30.1016 50.4531 30.1016C50.7422 30.1016 50.8867 30.2461 50.8867 30.5352C50.8867 30.8242 50.7539 31.1602 50.4883 31.543C50.2227 31.9258 49.8242 32.3516 49.293 32.8203C48.7617 33.2812 48.1562 33.7188 47.4766 34.1328C45.8672 35.125 44.0938 35.6211 42.1562 35.6211C39.5234 35.6211 37.4219 34.7734 35.8516 33.0781C34.1953 31.2734 33.3672 28.9844 33.3672 26.2109C33.3672 23.125 34.1875 20.6172 35.8281 18.6875C37.4375 16.7969 39.4492 15.8516 41.8633 15.8516C44.5664 15.8516 46.7852 16.9375 48.5195 19.1094C49.3945 20.2031 49.832 21.1641 49.832 21.9922C49.832 22.2188 49.7383 22.3945 49.5508 22.5195C49.3711 22.6445 49.2109 22.707 49.0703 22.707L37.0234 24.1484ZM37.1172 22.4727L45.3672 21.418C45.1641 20.707 44.8359 20.0586 44.3828 19.4727C43.9297 18.8789 43.5781 18.4727 43.3281 18.2539C42.7266 17.7383 42.0039 17.4805 41.1602 17.4805C40.3164 17.4805 39.4961 17.9297 38.6992 18.8281C37.9023 19.7188 37.375 20.9336 37.1172 22.4727ZM52.3984 1.26172C55.125 0.886719 57.4766 0.515625 59.4531 0.148438V32.1641C59.4531 32.7422 59.6367 33.1055 60.0039 33.2539C60.3711 33.3945 61.2109 33.4648 62.5234 33.4648H63.3438V35H52.8789V33.4648H53.9336C54.7852 33.4648 55.3555 33.3906 55.6445 33.2422C55.9414 33.0859 56.0898 32.7266 56.0898 32.1641V4.8125C56.0898 3.78906 56.0391 3.13281 55.9375 2.84375C55.8438 2.55469 55.6367 2.41016 55.3164 2.41016C54.9961 2.41016 54.0547 2.57031 52.4922 2.89062L52.3984 1.26172ZM66.9297 23.0938C66.1875 23.0938 65.8164 22.5195 65.8164 21.3711C65.8164 20.6289 66.1914 19.7734 66.9414 18.8047C68.3867 16.9297 70.8125 15.9922 74.2188 15.9922C76.1562 15.9922 77.4531 16.6953 78.1094 18.1016C78.3359 18.5938 78.4492 19.1719 78.4492 19.8359V28.8125C78.4492 30.2656 78.7188 31.2969 79.2578 31.9062C79.7656 32.4688 80.5352 32.8906 81.5664 33.1719C81.8555 33.25 82 33.3828 82 33.5703C82 33.7578 81.7969 33.9766 81.3906 34.2266C79.6719 35.2656 78.7695 35.7969 78.6836 35.8203C77.9727 35.3203 77.4531 34.8789 77.125 34.4961C76.7188 34.0352 76.168 33.3555 75.4727 32.457C74.832 33.3242 73.9883 34.0547 72.9414 34.6484C71.9023 35.2344 70.9922 35.5273 70.2109 35.5273C69.4375 35.5273 68.8008 35.457 68.3008 35.3164C67.8008 35.1758 67.332 34.9648 66.8945 34.6836C65.9258 34.0586 65.4414 33.1133 65.4414 31.8477C65.4414 30.5742 65.8633 29.375 66.707 28.25C67.5508 27.125 68.7148 26.2266 70.1992 25.5547C71.6914 24.875 73.3203 24.5352 75.0859 24.5352V21.6523C75.0859 20.2773 74.8125 19.3594 74.2656 18.8984C73.75 18.4609 73.0625 18.2422 72.2031 18.2422C71.3516 18.2422 70.6758 18.293 70.1758 18.3945C69.6758 18.4961 69.2969 18.6211 69.0391 18.7695C68.4922 19.082 68.1406 19.4023 67.9844 19.7305C68.0312 19.9414 68.0977 20.2031 68.1836 20.5156C68.3711 21.1875 68.4648 21.6641 68.4648 21.9453C68.4648 22.2266 68.2734 22.4883 67.8906 22.7305C67.5156 22.9727 67.1953 23.0938 66.9297 23.0938ZM68.793 30.6172C68.793 31.25 69.0234 31.7969 69.4844 32.2578C69.9531 32.7109 70.5703 32.9375 71.3359 32.9375C72.1016 32.9375 72.6914 32.8789 73.1055 32.7617C73.5273 32.6445 73.8594 32.4961 74.1016 32.3164C74.3438 32.1367 74.543 31.9219 74.6992 31.6719C74.957 31.2734 75.0859 30.8164 75.0859 30.3008V25.8359C73.1484 25.8359 71.5977 26.3477 70.4336 27.3711C69.3398 28.332 68.793 29.4141 68.793 30.6172ZM96.8242 33.4648C98.457 33.4648 99.2734 33.2734 99.2734 32.8906C99.2734 32.7109 99.125 32.4648 98.8281 32.1523C98.5391 31.8398 98.3672 31.6523 98.3125 31.5898L94.3281 26.9375L89.5234 32.0234C89.1094 32.4844 88.9023 32.8125 88.9023 33.0078C88.9023 33.3125 89.6562 33.4648 91.1641 33.4648H92.3125V35H83.1953L83.2422 33.4648H83.6172C84.5625 33.4648 85.1875 33.3672 85.4922 33.1719C86.0547 32.8281 86.6172 32.3828 87.1797 31.8359L93.2266 25.7891L87.0273 19.2031C86.3711 18.5078 85.9648 18.1328 85.8086 18.0781C85.6602 18.0234 85.4805 17.957 85.2695 17.8789C84.9727 17.7695 84.4883 17.7148 83.8164 17.7148V16.1797H94.2344V17.7148H93.2734C92.4766 17.7148 91.8984 17.75 91.5391 17.8203C91.1875 17.8828 91.0117 18.0195 91.0117 18.2305C91.0117 18.4336 91.1875 18.7578 91.5391 19.2031L95.2891 23.5273L99.1328 19.4961C99.7344 18.8477 100.035 18.4141 100.035 18.1953C100.035 17.875 99.3164 17.7148 97.8789 17.7148V16.1797H106.328V17.7148H105.367C104.305 17.7148 103.668 17.7891 103.457 17.9375C103.246 18.0781 103.047 18.2188 102.859 18.3594C102.68 18.5 102.543 18.6211 102.449 18.7227C102.355 18.8164 102.16 19.0117 101.863 19.3086L96.4375 24.6758L103.105 31.7305C103.926 32.6289 104.43 33.1211 104.617 33.207C104.812 33.2852 105.004 33.3477 105.191 33.3945C105.379 33.4414 105.547 33.4648 105.695 33.4648H106.516V35H96.8242V33.4648ZM108.707 16.9531C111.082 16.5703 113.336 16.0898 115.469 15.5117V32.1641C115.469 32.7734 115.609 33.1328 115.891 33.2422C116.258 33.3906 117.109 33.4648 118.445 33.4648H119.312V35H108.895V33.4648H109.328C110.789 33.4648 111.594 33.3984 111.742 33.2656C111.984 33.0391 112.105 32.7383 112.105 32.3633V19.543C112.105 18.9336 112.055 18.5273 111.953 18.3242C111.852 18.1133 111.621 18.0078 111.262 18.0078C110.902 18.0078 110.066 18.1367 108.754 18.3945L108.707 16.9531ZM114.227 8.65625C113.891 8.65625 113.484 8.37891 113.008 7.82422C112.539 7.26172 112.305 6.80469 112.305 6.45312C112.305 6.10156 112.559 5.68359 113.066 5.19922C113.574 4.71484 113.98 4.47266 114.285 4.47266C114.598 4.47266 115.023 4.72656 115.562 5.23438C116.109 5.74219 116.383 6.16797 116.383 6.51172C116.383 6.84766 116.105 7.28906 115.551 7.83594C115.004 8.38281 114.562 8.65625 114.227 8.65625ZM135.227 22.3789C135.227 21.043 134.98 20.1016 134.488 19.5547C134.004 19 133.137 18.7227 131.887 18.7227C130.645 18.7227 128.992 19.2383 126.93 20.2695V32.3281C126.93 32.7266 127.016 32.9922 127.188 33.125C127.359 33.2578 127.504 33.332 127.621 33.3477C127.738 33.3633 127.91 33.3828 128.137 33.4062C128.426 33.4453 128.98 33.4648 129.801 33.4648H130.434L130.328 35H120.977L120.93 33.4648C121.328 33.4648 121.672 33.4648 121.961 33.4648C122.25 33.4648 122.48 33.4531 122.652 33.4297C122.832 33.3984 122.961 33.375 123.039 33.3594C123.125 33.3438 123.207 33.2969 123.285 33.2188C123.371 33.1406 123.426 33.0781 123.449 33.0312C123.48 32.9844 123.508 32.8867 123.531 32.7383C123.555 32.582 123.566 32.4531 123.566 32.3516V20.4102C123.566 19.3867 123.523 18.7305 123.438 18.4414C123.359 18.1523 123.16 18.0078 122.84 18.0078C122.754 18.0078 122.148 18.1367 121.023 18.3945V16.9062L126.93 15.6992C126.828 16.9414 126.777 18.0781 126.777 19.1094C126.887 19.0625 127.105 18.918 127.434 18.6758C127.77 18.4258 128.148 18.1602 128.57 17.8789C129 17.5977 129.484 17.3125 130.023 17.0234C131.273 16.3672 132.41 16.0391 133.434 16.0391C134.457 16.0391 135.211 16.1211 135.695 16.2852C136.188 16.4492 136.59 16.6523 136.902 16.8945C137.223 17.1289 137.492 17.4688 137.711 17.9141C137.938 18.3516 138.105 18.7539 138.215 19.1211C138.332 19.4805 138.422 19.9727 138.484 20.5977C138.555 21.3867 138.59 22.4453 138.59 23.7734V32.0234C138.59 32.7031 138.766 33.1133 139.117 33.2539C139.477 33.3945 140.277 33.4648 141.52 33.4648L141.473 35H132.543L132.496 33.4648H133.598C134.434 33.4648 134.898 33.3789 134.992 33.207C135.148 32.918 135.227 32.5234 135.227 32.0234V22.3789ZM150.684 32.9844L153.941 32.9375C159.77 32.9375 162.684 34.7305 162.684 38.3164C162.684 40.1992 161.906 41.9414 160.352 43.543C157.711 46.2617 154.184 47.6211 149.77 47.6211C146.926 47.6211 144.727 46.8594 143.172 45.3359C142.352 44.5312 141.941 43.5352 141.941 42.3477C141.941 40.6055 142.816 39.0898 144.566 37.8008C145.207 37.3242 145.922 36.9297 146.711 36.6172C147.477 36.3125 148.113 36.0938 148.621 35.9609C146.355 35.6797 144.891 34.9922 144.227 33.8984C144.047 33.6172 143.957 33.3125 143.957 32.9844C143.957 32.6484 144.039 32.3242 144.203 32.0117C144.367 31.6992 144.578 31.4336 144.836 31.2148C145.102 30.9961 145.395 30.793 145.715 30.6055C146.035 30.4102 146.352 30.25 146.664 30.125C147.312 29.8828 147.898 29.6992 148.422 29.5742C147.531 29.3555 146.625 28.7578 145.703 27.7812C144.508 26.5391 143.91 24.9609 143.91 23.0469C143.91 21.0703 144.68 19.3711 146.219 17.9492C147.758 16.5195 149.516 15.8047 151.492 15.8047C152.859 15.8047 153.844 15.9688 154.445 16.2969C155.047 16.625 155.508 16.8828 155.828 17.0703C156.609 17.5391 157.344 17.7734 158.031 17.7734C158.719 17.7734 159.203 17.75 159.484 17.7031C159.773 17.6484 159.996 17.5859 160.152 17.5156C160.316 17.4453 160.461 17.3477 160.586 17.2227C160.719 17.0898 160.809 16.9766 160.855 16.8828C160.91 16.7891 160.977 16.6602 161.055 16.4961C161.133 16.332 161.195 16.2109 161.242 16.1328H162.25V17.3398C162.25 18.4414 162.203 19.0742 162.109 19.2383C162.023 19.3945 161.938 19.5234 161.852 19.625C161.773 19.7188 161.656 19.7812 161.5 19.8125C161.18 19.8906 160.789 19.9297 160.328 19.9297H159.555C158.695 19.9297 158.266 19.9727 158.266 20.0586C158.266 20.1367 158.32 20.2656 158.43 20.4453C158.547 20.6172 158.676 20.8086 158.816 21.0195C159.184 21.5742 159.367 22.3281 159.367 23.2812C159.367 24.2266 159.172 25.1016 158.781 25.9062C158.398 26.7109 157.871 27.4219 157.199 28.0391C155.723 29.3828 153.82 30.0547 151.492 30.0547C150.227 30.0547 149.223 30.2109 148.48 30.5234C147.738 30.8359 147.367 31.2578 147.367 31.7891C147.367 32.2734 147.586 32.5859 148.023 32.7266C148.148 32.7656 148.254 32.8008 148.34 32.832C148.434 32.8633 148.562 32.8906 148.727 32.9141C148.891 32.9297 149.023 32.9453 149.125 32.9609C149.305 32.9766 149.555 32.9844 149.875 32.9844H150.684ZM145.645 42.0781C145.645 42.9375 146.105 43.707 147.027 44.3867C147.957 45.0742 149.352 45.418 151.211 45.418C153.789 45.418 155.906 44.7266 157.562 43.3438C158.734 42.3516 159.32 41.1055 159.32 39.6055C159.32 37.2383 157.32 36.0547 153.32 36.0547C151.047 36.0547 149.18 36.6797 147.719 37.9297C146.336 39.1094 145.645 40.4922 145.645 42.0781ZM151.387 17.5742C150.41 17.5742 149.582 18.0273 148.902 18.9336C148.23 19.832 147.895 20.9219 147.895 22.2031C147.895 23.4766 148.012 24.4961 148.246 25.2617C148.48 26.0195 148.789 26.6328 149.172 27.1016C149.961 28.0781 150.863 28.5664 151.879 28.5664C152.777 28.5664 153.562 28.1562 154.234 27.3359C154.938 26.4531 155.289 25.3633 155.289 24.0664C155.289 22.7617 155.176 21.7227 154.949 20.9492C154.723 20.1758 154.422 19.5469 154.047 19.0625C153.258 18.0703 152.371 17.5742 151.387 17.5742ZM173.91 4.90625L173.957 2.98438H186.238V4.90625H184.082C183.191 4.90625 182.676 4.96875 182.535 5.09375C182.395 5.21094 182.285 5.33594 182.207 5.46875C182.082 5.67969 182.02 6.08203 182.02 6.67578V30.9219C182.02 31.9297 182.219 32.5156 182.617 32.6797C182.828 32.7578 183.156 32.7969 183.602 32.7969C191.688 32.75 195.945 32.5117 196.375 32.082C196.617 31.8398 196.797 31.4375 196.914 30.875C197.031 30.3125 197.125 29.8438 197.195 29.4688C197.273 29.0938 197.344 28.7148 197.406 28.332C197.477 27.9414 197.562 27.4609 197.664 26.8906L199.34 26.9844L197.758 35H174.578L174.531 33.125H175.879C176.973 33.125 177.59 33.0586 177.73 32.9258C177.879 32.7852 177.969 32.6836 178 32.6211C178.031 32.5586 178.059 32.4492 178.082 32.293C178.113 32.082 178.129 31.7539 178.129 31.3086V6.48828C178.129 5.80078 177.957 5.36719 177.613 5.1875C177.27 5 176.594 4.90625 175.586 4.90625H173.91ZM201.836 25.6133C201.836 24.6133 201.953 23.6406 202.188 22.6953C202.422 21.75 202.789 20.8555 203.289 20.0117C203.797 19.1602 204.414 18.4219 205.141 17.7969C206.734 16.4375 208.801 15.7578 211.34 15.7578C214.488 15.7578 216.938 16.6797 218.688 18.5234C220.516 20.4375 221.43 22.9844 221.43 26.1641C221.43 28.8906 220.539 31.1562 218.758 32.9609C216.93 34.7969 214.492 35.7148 211.445 35.7148C207.836 35.7148 205.141 34.2383 203.359 31.2852C202.344 29.6055 201.836 27.7148 201.836 25.6133ZM205.68 24.2891C205.68 25.3047 205.773 26.2617 205.961 27.1602C206.148 28.0508 206.426 28.8984 206.793 29.7031C207.168 30.5 207.605 31.2109 208.105 31.8359C208.613 32.4531 209.207 32.9453 209.887 33.3125C210.574 33.6719 211.301 33.8516 212.066 33.8516C212.832 33.8516 213.52 33.707 214.129 33.418C214.738 33.1289 215.242 32.7383 215.641 32.2461C216.047 31.7539 216.383 31.1719 216.648 30.5C217.148 29.25 217.398 27.8398 217.398 26.2695C217.398 24.6992 217.223 23.3555 216.871 22.2383C216.527 21.1133 216.055 20.2031 215.453 19.5078C214.219 18.0938 212.707 17.3867 210.918 17.3867C209.48 17.3867 208.258 17.9805 207.25 19.168C206.203 20.4102 205.68 22.1172 205.68 24.2891ZM225.238 23.4336V20.5508L237.098 17.0469V19.9766L225.238 23.4336ZM252.742 16.1797C255.062 16.1797 257.078 15.957 258.789 15.5117V32.1641C258.789 32.7656 258.879 33.1328 259.059 33.2656C259.238 33.3984 259.691 33.4648 260.418 33.4648H261.719V35H252.402V33.4648H253.363C254.184 33.4648 254.73 33.4023 255.004 33.2773C255.285 33.1445 255.426 32.8398 255.426 32.3633V20.2109C255.426 19.3516 255.289 18.8516 255.016 18.7109C254.75 18.5625 253.848 18.4883 252.309 18.4883H247.41V32.1172C247.41 32.7109 247.492 33.0742 247.656 33.207C247.875 33.3789 248.418 33.4648 249.285 33.4648H250.867V35H240.883V33.4648H242.043C242.879 33.4648 243.422 33.3906 243.672 33.2422C243.93 33.0859 244.059 32.7266 244.059 32.1641V18.4883H240.555L241.129 16.1797H244.059V9.99219C244.059 6.82031 245.262 4.22266 247.668 2.19922C249.254 0.863281 251.137 0.195312 253.316 0.195312C254.535 0.195312 255.598 0.378906 256.504 0.746094C257.418 1.10547 257.875 1.55078 257.875 2.08203C257.875 2.60547 257.574 3.18359 256.973 3.81641C256.379 4.44922 255.816 4.76562 255.285 4.76562C255.137 4.76562 254.855 4.53906 254.441 4.08594C254.035 3.625 253.688 3.25781 253.398 2.98438C252.719 2.34375 252.043 2.02344 251.371 2.02344C250.699 2.02344 250.137 2.19141 249.684 2.52734C249.238 2.86328 248.875 3.28906 248.594 3.80469C248.32 4.32031 248.094 4.91406 247.914 5.58594C247.578 6.80469 247.41 8.06641 247.41 9.37109V16.1797H252.742ZM273.613 4.90625L273.707 2.98438H284.312C289.836 2.98438 293.363 4.55859 294.895 7.70703C295.363 8.67578 295.598 9.64844 295.598 10.625C295.598 11.6016 295.418 12.4688 295.059 13.2266C294.699 13.9766 294.223 14.6328 293.629 15.1953C292.434 16.3438 291.039 17.1523 289.445 17.6211C292.391 18.2852 294.484 19.8438 295.727 22.2969C296.406 23.6641 296.746 25.0117 296.746 26.3398C296.746 28.9258 296.027 30.8672 294.59 32.1641C292.676 33.8906 289.16 34.8242 284.043 34.9648C283.176 34.9883 282.098 35 280.809 35H273.988V33.125H275.43C276.25 33.125 276.789 33.043 277.047 32.8789C277.312 32.7148 277.445 32.332 277.445 31.7305V6.62891C277.445 5.72266 277.148 5.19531 276.555 5.04688C276.203 4.95312 275.668 4.90625 274.949 4.90625H273.613ZM281.242 18.4883L281.336 31.3555C281.336 32.0117 281.539 32.4336 281.945 32.6211C282.352 32.8008 283.105 32.8906 284.207 32.8906C285.309 32.8906 286.242 32.8164 287.008 32.668C287.781 32.5117 288.43 32.3125 288.953 32.0703C289.477 31.8203 289.938 31.5156 290.336 31.1562C290.734 30.7891 291.047 30.4219 291.273 30.0547C291.508 29.6797 291.695 29.2695 291.836 28.8242C292.07 28.082 292.188 27.2617 292.188 26.3633C292.188 25.4648 292.055 24.6328 291.789 23.8672C291.523 23.0938 291.172 22.4414 290.734 21.9102C290.297 21.3711 289.77 20.8945 289.152 20.4805C288.543 20.0664 287.914 19.7383 287.266 19.4961C286.625 19.2461 285.934 19.043 285.191 18.8867C283.934 18.6211 282.617 18.4883 281.242 18.4883ZM282.812 5.09375C281.828 5.09375 281.336 5.46094 281.336 6.19531V17.0938H286.035C287.613 17.0938 288.875 16.4492 289.82 15.1602C290.695 13.9727 291.133 12.7305 291.133 11.4336C291.133 9.20703 290.004 7.45313 287.746 6.17188C286.473 5.45312 284.828 5.09375 282.812 5.09375ZM303.883 24.1484L303.836 24.8281C303.836 28.3984 305.266 30.7422 308.125 31.8594C308.984 32.1953 309.844 32.3633 310.703 32.3633C311.562 32.3633 312.316 32.2852 312.965 32.1289C313.613 31.9727 314.156 31.7852 314.594 31.5664C315.039 31.3398 315.438 31.1172 315.789 30.8984C316.656 30.3672 317.164 30.1016 317.312 30.1016C317.602 30.1016 317.746 30.2461 317.746 30.5352C317.746 30.8242 317.613 31.1602 317.348 31.543C317.082 31.9258 316.684 32.3516 316.152 32.8203C315.621 33.2812 315.016 33.7188 314.336 34.1328C312.727 35.125 310.953 35.6211 309.016 35.6211C306.383 35.6211 304.281 34.7734 302.711 33.0781C301.055 31.2734 300.227 28.9844 300.227 26.2109C300.227 23.125 301.047 20.6172 302.688 18.6875C304.297 16.7969 306.309 15.8516 308.723 15.8516C311.426 15.8516 313.645 16.9375 315.379 19.1094C316.254 20.2031 316.691 21.1641 316.691 21.9922C316.691 22.2188 316.598 22.3945 316.41 22.5195C316.23 22.6445 316.07 22.707 315.93 22.707L303.883 24.1484ZM303.977 22.4727L312.227 21.418C312.023 20.707 311.695 20.0586 311.242 19.4727C310.789 18.8789 310.438 18.4727 310.188 18.2539C309.586 17.7383 308.863 17.4805 308.02 17.4805C307.176 17.4805 306.355 17.9297 305.559 18.8281C304.762 19.7188 304.234 20.9336 303.977 22.4727ZM321.695 23.0938C320.953 23.0938 320.582 22.5195 320.582 21.3711C320.582 20.6289 320.957 19.7734 321.707 18.8047C323.152 16.9297 325.578 15.9922 328.984 15.9922C330.922 15.9922 332.219 16.6953 332.875 18.1016C333.102 18.5938 333.215 19.1719 333.215 19.8359V28.8125C333.215 30.2656 333.484 31.2969 334.023 31.9062C334.531 32.4688 335.301 32.8906 336.332 33.1719C336.621 33.25 336.766 33.3828 336.766 33.5703C336.766 33.7578 336.562 33.9766 336.156 34.2266C334.438 35.2656 333.535 35.7969 333.449 35.8203C332.738 35.3203 332.219 34.8789 331.891 34.4961C331.484 34.0352 330.934 33.3555 330.238 32.457C329.598 33.3242 328.754 34.0547 327.707 34.6484C326.668 35.2344 325.758 35.5273 324.977 35.5273C324.203 35.5273 323.566 35.457 323.066 35.3164C322.566 35.1758 322.098 34.9648 321.66 34.6836C320.691 34.0586 320.207 33.1133 320.207 31.8477C320.207 30.5742 320.629 29.375 321.473 28.25C322.316 27.125 323.48 26.2266 324.965 25.5547C326.457 24.875 328.086 24.5352 329.852 24.5352V21.6523C329.852 20.2773 329.578 19.3594 329.031 18.8984C328.516 18.4609 327.828 18.2422 326.969 18.2422C326.117 18.2422 325.441 18.293 324.941 18.3945C324.441 18.4961 324.062 18.6211 323.805 18.7695C323.258 19.082 322.906 19.4023 322.75 19.7305C322.797 19.9414 322.863 20.2031 322.949 20.5156C323.137 21.1875 323.23 21.6641 323.23 21.9453C323.23 22.2266 323.039 22.4883 322.656 22.7305C322.281 22.9727 321.961 23.0938 321.695 23.0938ZM323.559 30.6172C323.559 31.25 323.789 31.7969 324.25 32.2578C324.719 32.7109 325.336 32.9375 326.102 32.9375C326.867 32.9375 327.457 32.8789 327.871 32.7617C328.293 32.6445 328.625 32.4961 328.867 32.3164C329.109 32.1367 329.309 31.9219 329.465 31.6719C329.723 31.2734 329.852 30.8164 329.852 30.3008V25.8359C327.914 25.8359 326.363 26.3477 325.199 27.3711C324.105 28.332 323.559 29.4141 323.559 30.6172ZM338.066 18.8281C337.684 18.8281 337.492 18.6992 337.492 18.4414C337.492 18.2695 337.902 17.7422 338.723 16.8594C339.543 15.9766 340.09 15.3828 340.363 15.0781C340.637 14.7656 341.039 14.2734 341.57 13.6016C342.703 12.1562 343.328 11.4336 343.445 11.4336C343.641 11.4336 343.738 11.5469 343.738 11.7734V16.5195H350.219L349.926 18.8281H343.738V30.0078C343.738 31.4453 344.422 32.3438 345.789 32.7031C346.148 32.7969 346.57 32.8438 347.055 32.8438C347.547 32.8438 348.062 32.7695 348.602 32.6211C349.148 32.4648 349.586 32.3125 349.914 32.1641C350.242 32.0078 350.422 31.9297 350.453 31.9297C350.68 31.9297 350.793 32.1172 350.793 32.4922C350.793 32.8594 350.492 33.2891 349.891 33.7812C349.297 34.2734 348.547 34.6875 347.641 35.0234C346.734 35.3594 345.871 35.5273 345.051 35.5273C344.238 35.5273 343.523 35.3945 342.906 35.1289C342.289 34.8633 341.801 34.4922 341.441 34.0156C340.73 33.0703 340.375 31.8633 340.375 30.3945V18.8281H338.066ZM354.895 35.6211L354.941 36.1016L353.547 36.1953L352.68 28.2266L354.168 28.1328L354.648 32.1172C355.609 32.8672 356.602 33.3672 357.625 33.6172C358.656 33.8672 359.414 33.9922 359.898 33.9922C360.383 33.9922 360.809 33.9102 361.176 33.7461C361.543 33.582 361.836 33.3633 362.055 33.0898C362.492 32.5273 362.711 31.9961 362.711 31.4961C362.711 30.9961 362.648 30.5859 362.523 30.2656C362.398 29.9453 362.246 29.668 362.066 29.4336C361.895 29.1914 361.648 28.9297 361.328 28.6484C360.867 28.2656 360.227 27.8086 359.406 27.2773L357.672 26.1172C355.273 24.5547 354.074 22.7812 354.074 20.7969C354.074 19.9453 354.328 19.1523 354.836 18.418C355.352 17.6758 356.059 17.0859 356.957 16.6484C357.863 16.2109 358.762 15.9922 359.652 15.9922C360.543 15.9922 361.297 16.0664 361.914 16.2148C362.539 16.3555 363.035 16.5 363.402 16.6484C363.77 16.7891 364.023 16.8594 364.164 16.8594C364.414 16.8594 364.539 16.3789 364.539 15.418L366.074 15.4648V22.707H364.539L364.492 19.3086C363.953 18.6602 362.984 18.1875 361.586 17.8906C361.07 17.7734 360.5 17.7148 359.875 17.7148C359.25 17.7148 358.652 17.9414 358.082 18.3945C357.52 18.8477 357.238 19.3906 357.238 20.0234C357.238 20.5 357.312 20.8477 357.461 21.0664C357.609 21.2773 357.703 21.4219 357.742 21.5C357.789 21.5781 357.883 21.6836 358.023 21.8164C358.172 21.9492 358.27 22.043 358.316 22.0977C358.371 22.1445 358.492 22.2383 358.68 22.3789C358.875 22.5195 359 22.6094 359.055 22.6484C359.227 22.7891 359.504 22.9844 359.887 23.2344L362.043 24.6758C363.52 25.668 364.438 26.3828 364.797 26.8203C365.164 27.25 365.453 27.6328 365.664 27.9688C366.062 28.6094 366.262 29.3203 366.262 30.1016C366.262 30.8828 366.129 31.5977 365.863 32.2461C365.598 32.8867 365.215 33.4609 364.715 33.9688C363.629 35.0703 362.066 35.6211 360.027 35.6211C358.941 35.6211 357.898 35.5156 356.898 35.3047C355.906 35.1016 355.379 35 355.316 35C355.035 35 354.895 35.207 354.895 35.6211Z" fill="#5B279E"/>
</svg>
